{"glyphs":{"0":{"ha":836,"x_min":35,"x_max":801,"o":"m 418 764 q 567 733 497 764 q 689 649 636 703 q 772 523 742 594 q 801 369 801 451 q 772 216 801 288 q 689 90 742 144 q 567 6 636 36 q 418 -25 497 -25 q 269 6 339 -25 q 147 90 200 36 q 65 216 94 144 q 35 369 35 288 q 65 523 35 451 q 147 649 94 594 q 269 733 200 703 q 418 764 339 764 m 417 658 q 311 615 353 658 q 249 504 269 571 q 229 367 229 438 q 251 228 229 296 q 315 117 272 161 q 421 72 357 72 q 503 99 469 72 q 560 169 538 125 q 594 267 583 214 q 604 372 604 319 q 584 509 604 443 q 522 617 564 575 q 417 658 481 658 z "},"1":{"ha":551,"x_min":14,"x_max":524,"o":"m 374 215 q 394 122 374 160 q 467 83 415 83 l 503 83 q 524 63 524 83 l 524 21 q 503 0 524 0 l 49 0 q 28 21 28 0 l 28 63 q 49 83 28 83 l 86 83 q 159 122 139 83 q 179 215 179 160 l 179 497 q 149 592 179 554 q 35 629 119 629 q 14 650 14 629 l 14 692 q 35 713 14 713 q 178 718 115 713 q 302 738 242 724 q 433 778 363 753 q 449 774 444 782 q 454 757 454 767 l 454 697 q 449 683 454 688 q 433 676 444 679 l 419 672 q 385 653 394 665 q 374 615 375 640 q 374 539 374 589 l 374 215 z "},"2":{"ha":754,"x_min":42,"x_max":740,"o":"m 726 193 q 740 178 740 186 q 735 164 740 174 l 631 -7 q 614 -18 624 -18 q 607 -16 611 -18 q 594 -7 603 -14 q 583 -1 589 -1 q 569 0 576 0 l 63 0 q 42 21 42 0 l 42 60 q 46 82 42 74 q 124 190 75 140 q 227 285 172 240 q 331 372 282 329 q 412 460 381 415 q 443 556 443 504 q 417 647 443 617 q 344 678 390 678 q 271 657 307 678 q 235 583 235 636 q 243 531 235 551 q 260 497 251 511 q 268 467 268 482 q 256 454 268 453 l 110 488 q 75 514 82 493 q 64 564 64 540 q 100 658 64 614 q 201 731 136 703 q 351 758 267 758 q 568 708 493 758 q 643 554 643 657 q 611 442 643 490 q 527 356 579 394 q 416 281 475 317 q 302 206 357 246 q 210 118 247 167 l 339 118 q 421 119 375 118 q 513 128 467 121 q 596 153 558 136 q 651 203 633 171 l 656 210 q 672 222 663 222 q 683 218 678 222 l 726 193 z "},"3":{"ha":735,"x_min":28,"x_max":693,"o":"m 72 488 q 50 497 57 490 q 38 514 43 504 q 28 564 28 538 q 64 658 28 614 q 165 731 100 703 q 315 758 229 758 q 531 708 456 758 q 606 554 606 657 q 554 414 606 468 q 421 329 503 360 q 617 244 540 311 q 693 61 693 176 q 631 -122 693 -49 q 462 -232 568 -196 q 225 -268 356 -268 q 96 -260 161 -268 q 74 -240 75 -258 l 65 -176 q 71 -162 64 -168 q 88 -160 78 -157 q 150 -170 119 -167 q 211 -174 181 -174 q 348 -149 288 -174 q 444 -71 408 -124 q 479 65 479 -18 q 427 204 479 164 q 289 244 375 244 q 214 238 242 244 q 171 232 186 232 q 151 249 154 232 l 143 299 q 148 310 142 306 q 161 317 154 315 q 342 417 279 354 q 406 556 406 481 q 380 647 406 617 q 308 678 354 678 q 234 657 269 678 q 199 583 199 636 q 215 511 199 544 q 232 467 232 478 q 218 454 232 450 l 72 488 z "},"4":{"ha":799,"x_min":14,"x_max":764,"o":"m 764 22 q 743 1 764 1 l 588 1 l 588 -257 q 567 -278 588 -278 l 444 -278 q 424 -257 424 -278 l 424 1 l 35 1 q 14 22 14 1 l 14 108 q 21 135 14 125 q 115 263 65 204 q 209 378 165 322 q 281 490 253 433 q 308 610 308 547 q 276 738 308 668 q 272 756 272 749 q 286 767 272 769 l 486 725 q 521 697 513 719 q 526 676 525 688 q 528 653 528 664 q 501 545 528 603 q 432 427 475 488 q 341 310 389 367 q 249 204 293 253 q 176 122 206 156 l 424 122 l 424 264 q 442 286 424 282 l 571 311 q 583 308 579 314 q 588 292 588 301 l 588 122 l 743 122 q 764 101 764 122 l 764 22 z "},"5":{"ha":746,"x_min":14,"x_max":718,"o":"m 221 421 q 262 425 242 424 q 301 426 282 426 q 485 390 403 426 q 618 283 568 354 q 668 108 668 213 q 628 -58 668 13 q 520 -173 589 -128 q 362 -240 451 -218 q 172 -262 272 -262 q 43 -254 108 -262 q 21 -235 22 -251 q 16 -197 18 -211 q 14 -171 14 -183 q 19 -157 14 -162 q 35 -154 25 -151 q 97 -165 67 -161 q 156 -168 126 -168 q 299 -140 235 -168 q 402 -49 364 -111 q 440 113 440 13 q 403 251 440 203 q 312 317 367 299 q 200 335 257 335 q 150 331 178 335 q 101 324 122 328 q 74 319 81 319 q 60 340 56 319 l 135 740 q 158 758 139 758 l 363 758 q 428 760 388 758 q 510 767 468 761 q 585 784 553 772 q 631 817 618 796 l 635 824 q 651 836 642 836 q 664 832 658 836 l 707 807 q 718 790 718 800 q 714 779 718 786 l 626 632 q 610 621 619 621 q 603 622 607 621 q 590 632 599 624 q 578 639 585 639 q 564 639 572 639 l 268 639 l 221 421 z "},"6":{"ha":844,"x_min":42,"x_max":817,"o":"m 806 326 q 753 142 806 219 q 614 22 701 64 q 419 -19 526 -19 q 257 18 328 -19 q 138 122 186 56 q 66 272 90 188 q 42 447 42 356 q 72 689 42 578 q 161 883 101 800 q 309 1013 221 967 q 515 1060 397 1060 q 644 1040 589 1060 q 739 990 700 1019 q 797 929 778 960 q 817 878 817 899 q 810 860 817 867 l 688 747 q 676 744 681 740 q 674 756 675 747 q 671 772 672 764 q 618 911 661 857 q 496 965 575 965 q 328 882 389 965 q 249 638 268 799 q 346 673 294 665 q 438 681 397 681 q 636 631 554 681 q 762 500 718 581 q 806 326 806 419 m 240 372 q 255 284 242 333 q 294 190 268 235 q 360 115 319 144 q 454 86 400 86 q 548 112 513 86 q 599 181 583 138 q 614 274 614 224 q 603 367 614 315 q 570 465 593 418 q 509 544 547 513 q 414 575 471 575 q 306 543 344 575 q 253 465 268 511 q 240 372 239 418 z "},"7":{"ha":794,"x_min":14,"x_max":767,"o":"m 746 758 q 767 738 767 758 l 767 657 q 760 631 767 642 q 668 496 721 571 q 559 335 615 421 q 454 163 503 250 q 375 -10 406 75 q 344 -169 344 -94 q 349 -224 344 -197 q 365 -275 354 -250 q 369 -289 369 -285 q 356 -303 369 -304 l 128 -260 q 95 -239 101 -254 q 89 -204 89 -224 q 122 -83 89 -156 q 210 74 156 -11 q 331 247 265 160 q 459 412 396 333 q 572 550 522 490 q 647 639 622 610 l 369 639 q 304 637 344 639 q 222 629 264 635 q 147 612 179 624 q 101 579 114 600 q 92 563 96 567 q 81 560 88 560 q 68 564 75 560 l 25 589 q 14 606 14 596 q 18 617 14 611 l 119 767 q 136 778 126 778 q 143 776 139 778 q 156 767 147 775 q 182 758 165 758 l 746 758 z "},"8":{"ha":775,"x_min":42,"x_max":733,"o":"m 393 1063 q 557 1028 488 1063 q 665 935 626 994 q 704 801 704 876 q 656 658 704 724 q 540 556 607 592 q 681 440 628 508 q 733 269 733 372 q 687 119 733 182 q 560 21 640 56 q 379 -14 481 -14 q 135 61 228 -14 q 42 269 42 136 q 96 423 42 364 q 231 515 150 482 q 149 582 188 543 q 88 672 111 621 q 64 788 64 722 q 107 931 64 869 q 225 1028 150 993 q 393 1063 300 1063 m 393 976 q 284 933 326 976 q 242 803 242 889 q 271 715 242 754 q 341 649 300 676 q 414 611 382 622 q 518 685 486 632 q 550 801 550 738 q 533 885 550 846 q 482 951 517 925 q 393 976 447 976 m 357 453 q 231 378 268 426 q 193 269 193 331 q 213 174 193 219 q 274 101 232 129 q 379 74 315 74 q 510 119 469 74 q 550 251 550 165 q 530 330 550 296 q 478 389 510 364 q 415 430 447 414 q 357 453 382 446 z "},"9":{"ha":844,"x_min":28,"x_max":803,"o":"m 803 565 q 776 324 803 435 q 694 129 750 213 q 547 -1 638 46 q 329 -47 457 -47 q 201 -27 257 -47 q 106 23 144 -7 q 47 83 67 53 q 28 135 28 114 q 35 153 28 146 l 157 265 q 168 268 164 272 q 172 258 171 267 q 174 240 172 249 q 227 101 185 156 q 349 47 269 47 q 516 131 456 47 q 596 375 576 214 q 499 340 550 347 q 407 332 447 332 q 208 382 290 332 q 83 513 126 432 q 39 686 39 593 q 91 871 39 793 q 231 990 143 949 q 425 1032 318 1032 q 594 994 522 1032 q 712 891 665 957 q 781 741 758 825 q 803 565 803 657 m 604 640 q 590 729 603 681 q 551 823 576 778 q 485 897 525 868 q 390 926 444 926 q 297 901 332 926 q 247 833 263 875 q 231 739 231 790 q 241 646 231 697 q 274 547 251 594 q 335 469 297 500 q 431 438 374 438 q 538 469 500 438 q 592 548 576 501 q 604 640 607 594 z "},"A":{"ha":1092,"x_min":8,"x_max":1083,"o":"m 960 215 q 1003 121 982 158 q 1063 83 1024 83 q 1080 78 1076 83 q 1083 63 1083 74 l 1083 21 q 1063 0 1083 0 l 636 0 q 615 21 615 0 l 615 63 q 619 78 615 74 q 636 83 622 83 q 709 111 674 83 q 744 179 744 139 q 742 197 744 189 q 738 215 740 206 l 694 333 l 314 333 l 272 215 q 268 197 269 206 q 267 181 267 188 q 303 110 267 136 q 375 83 339 83 q 393 78 390 83 q 396 63 396 74 l 396 21 q 375 0 396 0 l 29 0 q 8 21 8 0 l 8 63 q 12 78 8 74 q 29 83 15 83 q 92 122 71 83 q 133 215 114 161 l 432 1024 q 456 1042 438 1042 l 624 1042 q 647 1025 642 1042 l 960 215 m 357 454 l 650 454 l 500 860 l 357 454 z "},"Á":{"ha":1092,"x_min":8,"x_max":1083,"o":"m 960 215 q 1003 121 982 158 q 1063 83 1024 83 q 1080 78 1076 83 q 1083 63 1083 74 l 1083 21 q 1063 0 1083 0 l 636 0 q 615 21 615 0 l 615 63 q 619 78 615 74 q 636 83 622 83 q 709 111 674 83 q 744 179 744 139 q 742 197 744 189 q 738 215 740 206 l 694 333 l 314 333 l 272 215 q 268 197 269 206 q 267 181 267 188 q 303 110 267 136 q 375 83 339 83 q 393 78 390 83 q 396 63 396 74 l 396 21 q 375 0 396 0 l 29 0 q 8 21 8 0 l 8 63 q 12 78 8 74 q 29 83 15 83 q 92 122 71 83 q 133 215 114 161 l 432 1024 q 456 1042 438 1042 l 624 1042 q 647 1025 642 1042 l 960 215 m 357 454 l 650 454 l 500 860 l 357 454 m 440 1150 q 510 1246 485 1207 q 553 1320 536 1285 q 589 1400 571 1356 q 610 1416 594 1413 q 640 1419 626 1419 q 709 1402 681 1419 q 738 1349 738 1385 q 703 1253 738 1296 q 622 1180 669 1211 q 531 1129 574 1149 q 519 1124 525 1126 q 506 1121 513 1121 q 492 1125 500 1121 l 440 1150 z "},"Ă":{"ha":1092,"x_min":8,"x_max":1083,"o":"m 960 215 q 1003 121 982 158 q 1063 83 1024 83 q 1080 78 1076 83 q 1083 63 1083 74 l 1083 21 q 1063 0 1083 0 l 636 0 q 615 21 615 0 l 615 63 q 619 78 615 74 q 636 83 622 83 q 709 111 674 83 q 744 179 744 139 q 742 197 744 189 q 738 215 740 206 l 694 333 l 314 333 l 272 215 q 268 197 269 206 q 267 181 267 188 q 303 110 267 136 q 375 83 339 83 q 393 78 390 83 q 396 63 396 74 l 396 21 q 375 0 396 0 l 29 0 q 8 21 8 0 l 8 63 q 12 78 8 74 q 29 83 15 83 q 92 122 71 83 q 133 215 114 161 l 432 1024 q 456 1042 438 1042 l 624 1042 q 647 1025 642 1042 l 960 215 m 357 454 l 650 454 l 500 860 l 357 454 m 418 1378 q 440 1357 436 1378 q 472 1290 450 1314 q 539 1267 493 1267 q 606 1290 585 1267 q 638 1357 628 1314 q 660 1378 642 1378 q 698 1374 671 1378 q 746 1368 725 1371 q 763 1361 756 1367 q 769 1344 769 1356 q 742 1265 769 1310 q 663 1187 714 1219 q 539 1154 611 1154 q 416 1187 468 1154 q 336 1265 364 1219 q 308 1344 308 1310 q 315 1361 308 1356 q 332 1368 322 1367 q 380 1374 353 1371 q 418 1378 407 1378 z "},"Â":{"ha":1092,"x_min":8,"x_max":1083,"o":"m 960 215 q 1003 121 982 158 q 1063 83 1024 83 q 1080 78 1076 83 q 1083 63 1083 74 l 1083 21 q 1063 0 1083 0 l 636 0 q 615 21 615 0 l 615 63 q 619 78 615 74 q 636 83 622 83 q 709 111 674 83 q 744 179 744 139 q 742 197 744 189 q 738 215 740 206 l 694 333 l 314 333 l 272 215 q 268 197 269 206 q 267 181 267 188 q 303 110 267 136 q 375 83 339 83 q 393 78 390 83 q 396 63 396 74 l 396 21 q 375 0 396 0 l 29 0 q 8 21 8 0 l 8 63 q 12 78 8 74 q 29 83 15 83 q 92 122 71 83 q 133 215 114 161 l 432 1024 q 456 1042 438 1042 l 624 1042 q 647 1025 642 1042 l 960 215 m 357 454 l 650 454 l 500 860 l 357 454 m 539 1282 q 490 1206 519 1243 q 422 1143 460 1168 q 339 1118 385 1118 q 287 1147 304 1118 q 269 1215 269 1176 q 272 1247 269 1233 q 288 1267 275 1261 q 369 1301 333 1285 q 444 1344 404 1318 q 539 1415 483 1371 q 635 1344 596 1371 q 709 1301 674 1318 q 790 1267 744 1285 q 806 1247 803 1261 q 808 1215 808 1233 q 792 1147 808 1176 q 739 1118 775 1118 q 656 1143 694 1118 q 589 1206 618 1168 q 539 1282 560 1243 z "},"Ä":{"ha":1092,"x_min":8,"x_max":1083,"o":"m 960 215 q 1003 121 982 158 q 1063 83 1024 83 q 1080 78 1076 83 q 1083 63 1083 74 l 1083 21 q 1063 0 1083 0 l 636 0 q 615 21 615 0 l 615 63 q 619 78 615 74 q 636 83 622 83 q 709 111 674 83 q 744 179 744 139 q 742 197 744 189 q 738 215 740 206 l 694 333 l 314 333 l 272 215 q 268 197 269 206 q 267 181 267 188 q 303 110 267 136 q 375 83 339 83 q 393 78 390 83 q 396 63 396 74 l 396 21 q 375 0 396 0 l 29 0 q 8 21 8 0 l 8 63 q 12 78 8 74 q 29 83 15 83 q 92 122 71 83 q 133 215 114 161 l 432 1024 q 456 1042 438 1042 l 624 1042 q 647 1025 642 1042 l 960 215 m 357 454 l 650 454 l 500 860 l 357 454 m 378 1375 q 447 1340 413 1375 q 482 1271 482 1306 q 447 1201 482 1236 q 378 1167 413 1167 q 308 1201 343 1167 q 274 1271 274 1236 q 282 1306 274 1290 q 308 1340 290 1321 q 378 1375 342 1375 m 700 1375 q 771 1340 736 1375 q 806 1271 806 1306 q 771 1201 806 1236 q 700 1167 736 1167 q 631 1201 665 1167 q 596 1271 596 1236 q 631 1340 596 1306 q 700 1375 665 1375 z "},"Ạ":{"ha":1092,"x_min":8,"x_max":1083,"o":"m 960 215 q 1003 121 982 158 q 1063 83 1024 83 q 1080 78 1076 83 q 1083 63 1083 74 l 1083 21 q 1063 0 1083 0 l 636 0 q 615 21 615 0 l 615 63 q 619 78 615 74 q 636 83 622 83 q 709 111 674 83 q 744 179 744 139 q 742 197 744 189 q 738 215 740 206 l 694 333 l 314 333 l 272 215 q 268 197 269 206 q 267 181 267 188 q 303 110 267 136 q 375 83 339 83 q 393 78 390 83 q 396 63 396 74 l 396 21 q 375 0 396 0 l 29 0 q 8 21 8 0 l 8 63 q 12 78 8 74 q 29 83 15 83 q 92 122 71 83 q 133 215 114 161 l 432 1024 q 456 1042 438 1042 l 624 1042 q 647 1025 642 1042 l 960 215 m 357 454 l 650 454 l 500 860 l 357 454 m 506 -92 q 576 -126 542 -92 q 611 -196 611 -161 q 576 -265 611 -231 q 506 -300 542 -300 q 436 -265 472 -300 q 401 -196 401 -232 q 436 -126 401 -161 q 506 -92 471 -92 z "},"À":{"ha":1092,"x_min":8,"x_max":1083,"o":"m 960 215 q 1003 121 982 158 q 1063 83 1024 83 q 1080 78 1076 83 q 1083 63 1083 74 l 1083 21 q 1063 0 1083 0 l 636 0 q 615 21 615 0 l 615 63 q 619 78 615 74 q 636 83 622 83 q 709 111 674 83 q 744 179 744 139 q 742 197 744 189 q 738 215 740 206 l 694 333 l 314 333 l 272 215 q 268 197 269 206 q 267 181 267 188 q 303 110 267 136 q 375 83 339 83 q 393 78 390 83 q 396 63 396 74 l 396 21 q 375 0 396 0 l 29 0 q 8 21 8 0 l 8 63 q 12 78 8 74 q 29 83 15 83 q 92 122 71 83 q 133 215 114 161 l 432 1024 q 456 1042 438 1042 l 624 1042 q 647 1025 642 1042 l 960 215 m 357 454 l 650 454 l 500 860 l 357 454 m 647 1150 l 596 1125 q 582 1121 588 1121 q 570 1124 576 1121 q 557 1129 564 1126 q 466 1180 514 1149 q 384 1253 418 1211 q 350 1349 350 1296 q 379 1402 350 1385 q 447 1419 408 1419 q 478 1416 463 1419 q 499 1400 493 1413 q 535 1320 518 1356 q 577 1246 551 1285 q 647 1150 603 1207 z "},"Ā":{"ha":1092,"x_min":8,"x_max":1083,"o":"m 960 215 q 1003 121 982 158 q 1063 83 1024 83 q 1080 78 1076 83 q 1083 63 1083 74 l 1083 21 q 1063 0 1083 0 l 636 0 q 615 21 615 0 l 615 63 q 619 78 615 74 q 636 83 622 83 q 709 111 674 83 q 744 179 744 139 q 742 197 744 189 q 738 215 740 206 l 694 333 l 314 333 l 272 215 q 268 197 269 206 q 267 181 267 188 q 303 110 267 136 q 375 83 339 83 q 393 78 390 83 q 396 63 396 74 l 396 21 q 375 0 396 0 l 29 0 q 8 21 8 0 l 8 63 q 12 78 8 74 q 29 83 15 83 q 92 122 71 83 q 133 215 114 161 l 432 1024 q 456 1042 438 1042 l 624 1042 q 647 1025 642 1042 l 960 215 m 357 454 l 650 454 l 500 860 l 357 454 m 746 1222 q 725 1201 746 1201 l 353 1201 q 332 1222 332 1201 l 332 1306 q 353 1326 332 1326 l 725 1326 q 746 1306 746 1326 l 746 1222 z "},"Ą":{"ha":1092,"x_min":8,"x_max":1172,"o":"m 960 215 q 1003 121 982 158 q 1063 83 1024 83 q 1080 78 1076 83 q 1083 63 1083 74 l 1083 21 q 1063 0 1083 0 l 636 0 q 615 21 615 0 l 615 63 q 619 78 615 74 q 636 83 622 83 q 709 111 674 83 q 744 179 744 139 q 742 197 744 189 q 738 215 740 206 l 694 333 l 314 333 l 272 215 q 268 197 269 206 q 267 181 267 188 q 303 110 267 136 q 375 83 339 83 q 393 78 390 83 q 396 63 396 74 l 396 21 q 375 0 396 0 l 29 0 q 8 21 8 0 l 8 63 q 12 78 8 74 q 29 83 15 83 q 92 122 71 83 q 133 215 114 161 l 432 1024 q 456 1042 438 1042 l 624 1042 q 647 1025 642 1042 l 960 215 m 357 454 l 650 454 l 500 860 l 357 454 m 1074 25 q 1079 10 1079 17 q 1063 0 1079 0 q 1035 -6 1057 0 q 989 -27 1014 -12 q 946 -67 964 -42 q 928 -131 928 -93 q 957 -212 928 -179 q 1039 -244 986 -244 q 1089 -235 1064 -244 q 1133 -217 1114 -226 q 1160 -208 1153 -208 q 1172 -225 1172 -208 l 1172 -281 q 1163 -303 1172 -297 q 1010 -351 1082 -351 q 886 -317 935 -351 q 814 -235 838 -283 q 790 -146 790 -187 q 820 -40 790 -82 q 892 26 850 1 q 973 60 935 50 q 1026 69 1011 69 q 1050 57 1040 69 l 1074 25 z "},"Å":{"ha":1092,"x_min":8,"x_max":1083,"o":"m 960 215 q 1003 121 982 158 q 1063 83 1024 83 q 1080 78 1076 83 q 1083 63 1083 74 l 1083 21 q 1063 0 1083 0 l 636 0 q 615 21 615 0 l 615 63 q 619 78 615 74 q 636 83 622 83 q 709 111 674 83 q 744 179 744 139 q 742 197 744 189 q 738 215 740 206 l 694 333 l 314 333 l 272 215 q 268 197 269 206 q 267 181 267 188 q 303 110 267 136 q 375 83 339 83 q 393 78 390 83 q 396 63 396 74 l 396 21 q 375 0 396 0 l 29 0 q 8 21 8 0 l 8 63 q 12 78 8 74 q 29 83 15 83 q 92 122 71 83 q 133 215 114 161 l 432 1024 q 456 1042 438 1042 l 624 1042 q 647 1025 642 1042 l 960 215 m 357 454 l 650 454 l 500 860 l 357 454 m 542 1111 q 445 1135 489 1111 q 376 1201 401 1160 q 350 1292 350 1242 q 376 1383 350 1342 q 445 1448 401 1424 q 542 1472 489 1472 q 639 1448 596 1472 q 708 1383 682 1424 q 733 1292 733 1342 q 708 1201 733 1242 q 639 1135 682 1160 q 542 1111 596 1111 m 457 1292 q 480 1231 457 1254 q 542 1208 503 1208 q 603 1231 581 1208 q 626 1292 626 1254 q 603 1352 626 1329 q 542 1375 581 1375 q 480 1352 503 1375 q 457 1292 457 1329 z "},"Ǻ":{"ha":1092,"x_min":8,"x_max":1083,"o":"m 960 215 q 1003 121 982 158 q 1063 83 1024 83 q 1080 78 1076 83 q 1083 63 1083 74 l 1083 21 q 1063 0 1083 0 l 636 0 q 615 21 615 0 l 615 63 q 619 78 615 74 q 636 83 622 83 q 709 111 674 83 q 744 179 744 139 q 742 197 744 189 q 738 215 740 206 l 694 333 l 314 333 l 272 215 q 268 197 269 206 q 267 181 267 188 q 303 110 267 136 q 375 83 339 83 q 393 78 390 83 q 396 63 396 74 l 396 21 q 375 0 396 0 l 29 0 q 8 21 8 0 l 8 63 q 12 78 8 74 q 29 83 15 83 q 92 122 71 83 q 133 215 114 161 l 432 1024 q 456 1042 438 1042 l 624 1042 q 647 1025 642 1042 l 960 215 m 357 454 l 650 454 l 500 860 l 357 454 m 542 1111 q 445 1135 489 1111 q 376 1201 401 1160 q 350 1292 350 1242 q 376 1383 350 1342 q 445 1448 401 1424 q 542 1472 489 1472 q 639 1448 596 1472 q 708 1383 682 1424 q 733 1292 733 1342 q 708 1201 733 1242 q 639 1135 682 1160 q 542 1111 596 1111 m 457 1292 q 480 1231 457 1254 q 542 1208 503 1208 q 603 1231 581 1208 q 626 1292 626 1254 q 603 1352 626 1329 q 542 1375 581 1375 q 480 1352 503 1375 q 457 1292 457 1329 m 440 1539 q 510 1635 485 1596 q 553 1709 536 1674 q 589 1789 571 1744 q 610 1805 594 1801 q 640 1808 626 1808 q 709 1791 681 1808 q 738 1738 738 1774 q 703 1642 738 1685 q 622 1569 669 1600 q 531 1518 574 1538 q 519 1513 525 1515 q 506 1510 513 1510 q 492 1514 500 1510 l 440 1539 z "},"Ã":{"ha":1092,"x_min":8,"x_max":1083,"o":"m 960 215 q 1003 121 982 158 q 1063 83 1024 83 q 1080 78 1076 83 q 1083 63 1083 74 l 1083 21 q 1063 0 1083 0 l 636 0 q 615 21 615 0 l 615 63 q 619 78 615 74 q 636 83 622 83 q 709 111 674 83 q 744 179 744 139 q 742 197 744 189 q 738 215 740 206 l 694 333 l 314 333 l 272 215 q 268 197 269 206 q 267 181 267 188 q 303 110 267 136 q 375 83 339 83 q 393 78 390 83 q 396 63 396 74 l 396 21 q 375 0 396 0 l 29 0 q 8 21 8 0 l 8 63 q 12 78 8 74 q 29 83 15 83 q 92 122 71 83 q 133 215 114 161 l 432 1024 q 456 1042 438 1042 l 624 1042 q 647 1025 642 1042 l 960 215 m 357 454 l 650 454 l 500 860 l 357 454 m 585 1282 q 629 1243 608 1243 q 650 1253 644 1243 q 656 1275 656 1264 q 651 1305 656 1290 q 635 1333 646 1319 q 667 1362 646 1347 q 711 1376 689 1376 q 740 1361 724 1376 q 769 1322 757 1346 q 782 1269 782 1297 q 740 1163 782 1201 q 646 1124 699 1124 q 569 1139 599 1124 q 522 1176 539 1154 q 493 1217 504 1199 q 470 1247 481 1239 q 449 1256 460 1256 q 428 1245 435 1256 q 422 1224 422 1235 q 427 1195 422 1210 q 443 1165 432 1181 q 410 1137 432 1151 q 365 1122 389 1122 q 338 1138 354 1122 q 308 1177 321 1153 q 296 1228 296 1201 q 338 1336 296 1297 q 432 1375 381 1375 q 510 1359 481 1375 q 558 1322 540 1343 q 585 1282 575 1300 z "},"Æ":{"ha":1628,"x_min":7,"x_max":1600,"o":"m 635 0 q 614 21 614 0 l 614 74 q 635 94 614 94 q 706 125 676 94 q 736 215 736 156 l 736 332 l 406 332 l 340 215 q 315 139 315 169 q 333 103 315 117 q 374 90 350 90 q 392 85 389 90 q 394 69 394 79 l 394 21 q 374 0 394 0 l 28 0 q 7 21 7 0 l 7 69 q 28 90 7 90 q 130 128 88 90 q 201 215 172 165 l 581 872 q 596 904 590 889 q 601 929 601 919 q 539 957 601 957 l 538 957 q 517 978 517 957 l 517 1019 q 538 1042 517 1042 l 1338 1042 q 1364 1049 1356 1042 l 1372 1056 q 1383 1060 1376 1060 q 1401 1049 1394 1060 l 1511 860 q 1515 847 1515 854 q 1504 831 1515 838 l 1449 800 q 1433 794 1439 794 q 1417 807 1424 794 l 1413 814 q 1320 915 1369 886 q 1190 943 1271 943 l 965 943 l 965 617 l 1088 617 q 1185 640 1150 617 q 1219 710 1219 664 l 1219 719 q 1240 740 1219 740 l 1282 740 q 1303 719 1303 740 l 1303 404 q 1282 383 1303 383 l 1240 383 q 1219 404 1219 383 l 1219 413 q 1185 483 1219 460 q 1088 506 1151 506 l 965 506 l 965 231 q 1061 99 965 99 l 1151 99 q 1319 118 1254 99 q 1427 183 1383 138 q 1510 307 1471 229 l 1514 315 q 1532 326 1521 326 q 1543 324 1539 326 l 1588 297 q 1600 282 1600 290 q 1596 268 1600 276 l 1465 -7 q 1449 -19 1460 -19 q 1436 -14 1442 -19 l 1429 -7 q 1401 0 1422 0 l 635 0 m 474 453 l 735 453 l 735 918 l 474 453 z "},"Ǽ":{"ha":1628,"x_min":7,"x_max":1600,"o":"m 635 0 q 614 21 614 0 l 614 74 q 635 94 614 94 q 706 125 676 94 q 736 215 736 156 l 736 332 l 406 332 l 340 215 q 315 139 315 169 q 333 103 315 117 q 374 90 350 90 q 392 85 389 90 q 394 69 394 79 l 394 21 q 374 0 394 0 l 28 0 q 7 21 7 0 l 7 69 q 28 90 7 90 q 130 128 88 90 q 201 215 172 165 l 581 872 q 596 904 590 889 q 601 929 601 919 q 539 957 601 957 l 538 957 q 517 978 517 957 l 517 1019 q 538 1042 517 1042 l 1338 1042 q 1364 1049 1356 1042 l 1372 1056 q 1383 1060 1376 1060 q 1401 1049 1394 1060 l 1511 860 q 1515 847 1515 854 q 1504 831 1515 838 l 1449 800 q 1433 794 1439 794 q 1417 807 1424 794 l 1413 814 q 1320 915 1369 886 q 1190 943 1271 943 l 965 943 l 965 617 l 1088 617 q 1185 640 1150 617 q 1219 710 1219 664 l 1219 719 q 1240 740 1219 740 l 1282 740 q 1303 719 1303 740 l 1303 404 q 1282 383 1303 383 l 1240 383 q 1219 404 1219 383 l 1219 413 q 1185 483 1219 460 q 1088 506 1151 506 l 965 506 l 965 231 q 1061 99 965 99 l 1151 99 q 1319 118 1254 99 q 1427 183 1383 138 q 1510 307 1471 229 l 1514 315 q 1532 326 1521 326 q 1543 324 1539 326 l 1588 297 q 1600 282 1600 290 q 1596 268 1600 276 l 1465 -7 q 1449 -19 1460 -19 q 1436 -14 1442 -19 l 1429 -7 q 1401 0 1422 0 l 635 0 m 474 453 l 735 453 l 735 918 l 474 453 m 919 1150 q 990 1246 964 1207 q 1033 1320 1015 1285 q 1068 1400 1050 1356 q 1090 1416 1074 1413 q 1119 1419 1106 1419 q 1188 1402 1160 1419 q 1217 1349 1217 1385 q 1183 1253 1217 1296 q 1101 1180 1149 1211 q 1010 1129 1053 1149 q 998 1124 1004 1126 q 985 1121 992 1121 q 971 1125 979 1121 l 919 1150 z "},"B":{"ha":999,"x_min":42,"x_max":943,"o":"m 510 1042 q 684 1008 607 1042 q 807 918 761 975 q 853 790 853 861 q 817 681 853 731 q 713 596 781 631 q 882 488 821 565 q 943 307 943 411 q 896 147 943 217 q 765 39 849 78 q 572 0 682 0 l 63 0 q 42 21 42 0 l 42 63 q 63 83 42 83 q 165 215 165 83 l 165 826 q 63 958 165 958 q 42 979 42 958 l 42 1021 q 63 1042 42 1042 l 510 1042 m 465 622 q 598 667 551 622 q 644 790 644 711 q 599 914 644 869 q 471 958 553 958 l 386 958 l 386 622 l 465 622 m 513 83 q 676 142 618 83 q 735 307 735 201 q 467 524 735 524 l 386 524 l 386 215 q 410 117 386 151 q 478 83 433 83 l 513 83 z "},"C":{"ha":1040,"x_min":49,"x_max":1033,"o":"m 1014 333 q 1028 326 1022 329 q 1033 315 1033 322 q 1031 304 1033 313 q 970 194 1008 250 q 876 89 932 138 q 742 11 819 40 q 565 -18 665 -18 q 283 51 399 -18 q 108 241 168 121 q 49 510 49 361 q 64 655 49 579 q 114 803 79 731 q 208 933 149 875 q 354 1024 267 990 q 561 1058 442 1058 q 733 1033 661 1058 q 854 970 806 1008 q 932 890 903 932 q 974 813 961 849 q 986 758 986 776 q 963 731 986 739 l 793 671 q 768 665 779 665 q 751 679 751 665 q 753 700 751 682 q 754 725 754 718 q 736 826 754 775 q 674 913 718 878 q 550 949 629 949 q 424 913 475 949 q 343 818 374 876 q 299 694 313 760 q 286 571 286 629 q 318 334 286 436 q 417 174 350 232 q 588 117 485 117 q 756 153 690 117 q 862 241 822 189 q 924 343 901 293 q 947 361 932 361 q 965 356 954 361 l 1014 333 z "},"Ć":{"ha":1040,"x_min":49,"x_max":1033,"o":"m 1014 333 q 1028 326 1022 329 q 1033 315 1033 322 q 1031 304 1033 313 q 970 194 1008 250 q 876 89 932 138 q 742 11 819 40 q 565 -18 665 -18 q 283 51 399 -18 q 108 241 168 121 q 49 510 49 361 q 64 655 49 579 q 114 803 79 731 q 208 933 149 875 q 354 1024 267 990 q 561 1058 442 1058 q 733 1033 661 1058 q 854 970 806 1008 q 932 890 903 932 q 974 813 961 849 q 986 758 986 776 q 963 731 986 739 l 793 671 q 768 665 779 665 q 751 679 751 665 q 753 700 751 682 q 754 725 754 718 q 736 826 754 775 q 674 913 718 878 q 550 949 629 949 q 424 913 475 949 q 343 818 374 876 q 299 694 313 760 q 286 571 286 629 q 318 334 286 436 q 417 174 350 232 q 588 117 485 117 q 756 153 690 117 q 862 241 822 189 q 924 343 901 293 q 947 361 932 361 q 965 356 954 361 l 1014 333 m 458 1150 q 528 1246 503 1207 q 572 1320 554 1285 q 607 1400 589 1356 q 628 1416 613 1413 q 658 1419 644 1419 q 727 1402 699 1419 q 756 1349 756 1385 q 722 1253 756 1296 q 640 1180 688 1211 q 549 1129 592 1149 q 537 1124 543 1126 q 524 1121 531 1121 q 510 1125 518 1121 l 458 1150 z "},"Č":{"ha":1040,"x_min":49,"x_max":1033,"o":"m 1014 333 q 1028 326 1022 329 q 1033 315 1033 322 q 1031 304 1033 313 q 970 194 1008 250 q 876 89 932 138 q 742 11 819 40 q 565 -18 665 -18 q 283 51 399 -18 q 108 241 168 121 q 49 510 49 361 q 64 655 49 579 q 114 803 79 731 q 208 933 149 875 q 354 1024 267 990 q 561 1058 442 1058 q 733 1033 661 1058 q 854 970 806 1008 q 932 890 903 932 q 974 813 961 849 q 986 758 986 776 q 963 731 986 739 l 793 671 q 768 665 779 665 q 751 679 751 665 q 753 700 751 682 q 754 725 754 718 q 736 826 754 775 q 674 913 718 878 q 550 949 629 949 q 424 913 475 949 q 343 818 374 876 q 299 694 313 760 q 286 571 286 629 q 318 334 286 436 q 417 174 350 232 q 588 117 485 117 q 756 153 690 117 q 862 241 822 189 q 924 343 901 293 q 947 361 932 361 q 965 356 954 361 l 1014 333 m 553 1251 q 603 1328 574 1290 q 670 1390 632 1365 q 753 1415 708 1415 q 806 1387 789 1415 q 822 1318 822 1358 q 819 1286 822 1300 q 804 1267 817 1272 q 723 1233 758 1250 q 649 1189 688 1215 q 553 1118 610 1163 q 458 1189 497 1163 q 383 1233 418 1215 q 301 1267 347 1250 q 286 1286 289 1272 q 283 1318 283 1300 q 301 1387 283 1358 q 353 1415 318 1415 q 436 1390 399 1415 q 503 1328 474 1365 q 553 1251 533 1290 z "},"Ç":{"ha":1040,"x_min":49,"x_max":1033,"o":"m 1014 333 q 1028 326 1022 329 q 1033 315 1033 322 q 1031 304 1033 313 q 970 194 1008 250 q 876 89 932 138 q 742 11 819 40 q 565 -18 665 -18 q 283 51 399 -18 q 108 241 168 121 q 49 510 49 361 q 64 655 49 579 q 114 803 79 731 q 208 933 149 875 q 354 1024 267 990 q 561 1058 442 1058 q 733 1033 661 1058 q 854 970 806 1008 q 932 890 903 932 q 974 813 961 849 q 986 758 986 776 q 963 731 986 739 l 793 671 q 768 665 779 665 q 751 679 751 665 q 753 700 751 682 q 754 725 754 718 q 736 826 754 775 q 674 913 718 878 q 550 949 629 949 q 424 913 475 949 q 343 818 374 876 q 299 694 313 760 q 286 571 286 629 q 318 334 286 436 q 417 174 350 232 q 588 117 485 117 q 756 153 690 117 q 862 241 822 189 q 924 343 901 293 q 947 361 932 361 q 965 356 954 361 l 1014 333 m 511 42 q 536 56 519 56 l 608 56 q 626 43 626 56 q 621 29 626 36 l 526 -83 q 590 -72 557 -72 q 664 -87 628 -72 q 724 -133 700 -101 q 747 -212 747 -164 q 698 -315 747 -274 q 567 -356 649 -356 q 501 -349 536 -356 q 428 -326 465 -342 q 404 -293 408 -318 q 400 -247 400 -268 q 410 -232 400 -232 q 422 -235 414 -232 q 479 -250 447 -243 q 540 -257 511 -257 q 588 -247 568 -257 q 607 -212 607 -237 q 577 -162 607 -176 q 500 -147 547 -147 q 460 -149 479 -147 q 421 -151 440 -151 q 407 -140 407 -151 q 411 -128 407 -133 l 511 42 z "},"Ḉ":{"ha":1040,"x_min":49,"x_max":1033,"o":"m 1014 333 q 1028 326 1022 329 q 1033 315 1033 322 q 1031 304 1033 313 q 970 194 1008 250 q 876 89 932 138 q 742 11 819 40 q 565 -18 665 -18 q 283 51 399 -18 q 108 241 168 121 q 49 510 49 361 q 64 655 49 579 q 114 803 79 731 q 208 933 149 875 q 354 1024 267 990 q 561 1058 442 1058 q 733 1033 661 1058 q 854 970 806 1008 q 932 890 903 932 q 974 813 961 849 q 986 758 986 776 q 963 731 986 739 l 793 671 q 768 665 779 665 q 751 679 751 665 q 753 700 751 682 q 754 725 754 718 q 736 826 754 775 q 674 913 718 878 q 550 949 629 949 q 424 913 475 949 q 343 818 374 876 q 299 694 313 760 q 286 571 286 629 q 318 334 286 436 q 417 174 350 232 q 588 117 485 117 q 756 153 690 117 q 862 241 822 189 q 924 343 901 293 q 947 361 932 361 q 965 356 954 361 l 1014 333 m 511 42 q 536 56 519 56 l 608 56 q 626 43 626 56 q 621 29 626 36 l 526 -83 q 590 -72 557 -72 q 664 -87 628 -72 q 724 -133 700 -101 q 747 -212 747 -164 q 698 -315 747 -274 q 567 -356 649 -356 q 501 -349 536 -356 q 428 -326 465 -342 q 404 -293 408 -318 q 400 -247 400 -268 q 410 -232 400 -232 q 422 -235 414 -232 q 479 -250 447 -243 q 540 -257 511 -257 q 588 -247 568 -257 q 607 -212 607 -237 q 577 -162 607 -176 q 500 -147 547 -147 q 460 -149 479 -147 q 421 -151 440 -151 q 407 -140 407 -151 q 411 -128 407 -133 l 511 42 m 458 1150 q 528 1246 503 1207 q 572 1320 554 1285 q 607 1400 589 1356 q 628 1416 613 1413 q 658 1419 644 1419 q 727 1402 699 1419 q 756 1349 756 1385 q 722 1253 756 1296 q 640 1180 688 1211 q 549 1129 592 1149 q 537 1124 543 1126 q 524 1121 531 1121 q 510 1125 518 1121 l 458 1150 z "},"Ĉ":{"ha":1040,"x_min":49,"x_max":1033,"o":"m 1014 333 q 1028 326 1022 329 q 1033 315 1033 322 q 1031 304 1033 313 q 970 194 1008 250 q 876 89 932 138 q 742 11 819 40 q 565 -18 665 -18 q 283 51 399 -18 q 108 241 168 121 q 49 510 49 361 q 64 655 49 579 q 114 803 79 731 q 208 933 149 875 q 354 1024 267 990 q 561 1058 442 1058 q 733 1033 661 1058 q 854 970 806 1008 q 932 890 903 932 q 974 813 961 849 q 986 758 986 776 q 963 731 986 739 l 793 671 q 768 665 779 665 q 751 679 751 665 q 753 700 751 682 q 754 725 754 718 q 736 826 754 775 q 674 913 718 878 q 550 949 629 949 q 424 913 475 949 q 343 818 374 876 q 299 694 313 760 q 286 571 286 629 q 318 334 286 436 q 417 174 350 232 q 588 117 485 117 q 756 153 690 117 q 862 241 822 189 q 924 343 901 293 q 947 361 932 361 q 965 356 954 361 l 1014 333 m 557 1282 q 508 1206 538 1243 q 440 1143 478 1168 q 357 1118 403 1118 q 305 1147 322 1118 q 288 1215 288 1176 q 290 1247 288 1233 q 306 1267 293 1261 q 387 1301 351 1285 q 462 1344 422 1318 q 557 1415 501 1371 q 653 1344 614 1371 q 727 1301 692 1318 q 808 1267 763 1285 q 824 1247 821 1261 q 826 1215 826 1233 q 810 1147 826 1176 q 757 1118 793 1118 q 674 1143 713 1118 q 607 1206 636 1168 q 557 1282 578 1243 z "},"Ċ":{"ha":1040,"x_min":49,"x_max":1033,"o":"m 1014 333 q 1028 326 1022 329 q 1033 315 1033 322 q 1031 304 1033 313 q 970 194 1008 250 q 876 89 932 138 q 742 11 819 40 q 565 -18 665 -18 q 283 51 399 -18 q 108 241 168 121 q 49 510 49 361 q 64 655 49 579 q 114 803 79 731 q 208 933 149 875 q 354 1024 267 990 q 561 1058 442 1058 q 733 1033 661 1058 q 854 970 806 1008 q 932 890 903 932 q 974 813 961 849 q 986 758 986 776 q 963 731 986 739 l 793 671 q 768 665 779 665 q 751 679 751 665 q 753 700 751 682 q 754 725 754 718 q 736 826 754 775 q 674 913 718 878 q 550 949 629 949 q 424 913 475 949 q 343 818 374 876 q 299 694 313 760 q 286 571 286 629 q 318 334 286 436 q 417 174 350 232 q 588 117 485 117 q 756 153 690 117 q 862 241 822 189 q 924 343 901 293 q 947 361 932 361 q 965 356 954 361 l 1014 333 m 557 1375 q 628 1340 593 1375 q 663 1271 663 1306 q 628 1201 663 1236 q 557 1167 593 1167 q 488 1201 524 1167 q 453 1271 453 1235 q 488 1340 453 1306 q 557 1375 522 1375 z "},"D":{"ha":1097,"x_min":42,"x_max":1049,"o":"m 490 1042 q 783 979 657 1042 q 978 800 908 917 q 1049 522 1049 683 q 985 240 1049 357 q 804 61 921 122 q 529 0 688 0 l 63 0 q 42 21 42 0 l 42 63 q 63 83 42 83 l 72 83 q 142 118 118 83 q 165 215 165 153 l 165 826 q 64 958 165 958 l 63 958 q 42 979 42 958 l 42 1021 q 63 1042 42 1042 l 490 1042 m 386 208 q 404 122 386 154 q 489 90 422 90 q 746 193 654 90 q 838 522 838 296 q 743 841 838 724 q 451 958 649 958 l 386 958 l 386 208 z "},"Ď":{"ha":1097,"x_min":42,"x_max":1049,"o":"m 490 1042 q 783 979 657 1042 q 978 800 908 917 q 1049 522 1049 683 q 985 240 1049 357 q 804 61 921 122 q 529 0 688 0 l 63 0 q 42 21 42 0 l 42 63 q 63 83 42 83 l 72 83 q 142 118 118 83 q 165 215 165 153 l 165 826 q 64 958 165 958 l 63 958 q 42 979 42 958 l 42 1021 q 63 1042 42 1042 l 490 1042 m 386 208 q 404 122 386 154 q 489 90 422 90 q 746 193 654 90 q 838 522 838 296 q 743 841 838 724 q 451 958 649 958 l 386 958 l 386 208 m 483 1251 q 533 1328 504 1290 q 601 1390 563 1365 q 683 1415 639 1415 q 736 1387 719 1415 q 753 1318 753 1358 q 750 1286 753 1300 q 735 1267 747 1272 q 653 1233 689 1250 q 579 1189 618 1215 q 483 1118 540 1163 q 388 1189 428 1163 q 313 1233 349 1215 q 232 1267 278 1250 q 217 1286 219 1272 q 214 1318 214 1300 q 231 1387 214 1358 q 283 1415 249 1415 q 367 1390 329 1415 q 434 1328 404 1365 q 483 1251 464 1290 z "},"Đ":{"ha":1097,"x_min":42,"x_max":1049,"o":"m 63 421 q 42 442 42 421 l 42 563 q 63 583 42 583 l 165 583 l 165 826 q 64 958 165 958 l 63 958 q 42 979 42 958 l 42 1021 q 63 1042 42 1042 l 490 1042 q 783 979 657 1042 q 978 800 908 917 q 1049 522 1049 683 q 985 240 1049 357 q 804 61 921 122 q 529 0 688 0 l 63 0 q 42 21 42 0 l 42 63 q 63 83 42 83 l 72 83 q 142 118 118 83 q 165 215 165 153 l 165 421 l 63 421 m 386 208 q 404 122 386 154 q 489 90 422 90 q 746 193 654 90 q 838 522 838 296 q 743 841 838 724 q 451 958 649 958 l 386 958 l 386 583 l 681 583 q 701 563 701 583 l 701 442 q 681 421 701 421 l 386 421 l 386 208 z "},"Ḍ":{"ha":1097,"x_min":42,"x_max":1049,"o":"m 490 1042 q 783 979 657 1042 q 978 800 908 917 q 1049 522 1049 683 q 985 240 1049 357 q 804 61 921 122 q 529 0 688 0 l 63 0 q 42 21 42 0 l 42 63 q 63 83 42 83 l 72 83 q 142 118 118 83 q 165 215 165 153 l 165 826 q 64 958 165 958 l 63 958 q 42 979 42 958 l 42 1021 q 63 1042 42 1042 l 490 1042 m 386 208 q 404 122 386 154 q 489 90 422 90 q 746 193 654 90 q 838 522 838 296 q 743 841 838 724 q 451 958 649 958 l 386 958 l 386 208 m 490 -92 q 561 -126 526 -92 q 596 -196 596 -161 q 561 -265 596 -231 q 490 -300 526 -300 q 421 -265 457 -300 q 386 -196 386 -232 q 421 -126 386 -161 q 490 -92 456 -92 z "},"Ḏ":{"ha":1097,"x_min":42,"x_max":1049,"o":"m 490 1042 q 783 979 657 1042 q 978 800 908 917 q 1049 522 1049 683 q 985 240 1049 357 q 804 61 921 122 q 529 0 688 0 l 63 0 q 42 21 42 0 l 42 63 q 63 83 42 83 l 72 83 q 142 118 118 83 q 165 215 165 153 l 165 826 q 64 958 165 958 l 63 958 q 42 979 42 958 l 42 1021 q 63 1042 42 1042 l 490 1042 m 386 208 q 404 122 386 154 q 489 90 422 90 q 746 193 654 90 q 838 522 838 296 q 743 841 838 724 q 451 958 649 958 l 386 958 l 386 208 m 697 -189 q 676 -210 697 -210 l 304 -210 q 283 -189 283 -210 l 283 -106 q 304 -85 283 -85 l 676 -85 q 697 -106 697 -85 l 697 -189 z "},"Ð":{"ha":1097,"x_min":42,"x_max":1049,"o":"m 63 421 q 42 442 42 421 l 42 563 q 63 583 42 583 l 165 583 l 165 826 q 64 958 165 958 l 63 958 q 42 979 42 958 l 42 1021 q 63 1042 42 1042 l 490 1042 q 783 979 657 1042 q 978 800 908 917 q 1049 522 1049 683 q 985 240 1049 357 q 804 61 921 122 q 529 0 688 0 l 63 0 q 42 21 42 0 l 42 63 q 63 83 42 83 l 72 83 q 142 118 118 83 q 165 215 165 153 l 165 421 l 63 421 m 386 208 q 404 122 386 154 q 489 90 422 90 q 746 193 654 90 q 838 522 838 296 q 743 841 838 724 q 451 958 649 958 l 386 958 l 386 583 l 681 583 q 701 563 701 583 l 701 442 q 681 421 701 421 l 386 421 l 386 208 z "},"E":{"ha":1049,"x_min":42,"x_max":1021,"o":"m 1008 297 q 1021 282 1021 290 q 1017 268 1021 276 l 886 -7 q 869 -19 881 -19 q 857 -14 863 -19 l 850 -7 q 822 0 843 0 l 63 0 q 42 21 42 0 l 42 63 q 63 83 42 83 l 65 83 q 165 215 165 83 l 165 825 q 64 957 165 957 l 63 957 q 42 978 42 957 l 42 1019 q 63 1042 42 1042 l 758 1042 q 785 1049 776 1042 l 793 1056 q 804 1060 797 1060 q 822 1049 815 1060 l 932 860 q 936 847 936 854 q 925 831 936 838 l 869 800 q 854 794 860 794 q 838 807 844 794 l 833 814 q 741 915 790 886 q 611 943 692 943 l 386 943 l 386 617 l 508 617 q 606 640 571 617 q 640 710 640 664 l 640 719 q 661 740 640 740 l 703 740 q 724 719 724 740 l 724 404 q 703 383 724 383 l 661 383 q 640 404 640 383 l 640 413 q 606 483 640 460 q 508 506 572 506 l 386 506 l 386 231 q 482 99 386 99 l 572 99 q 740 118 675 99 q 848 183 804 138 q 931 307 892 229 l 935 315 q 953 326 942 326 q 964 324 960 326 l 1008 297 z "},"É":{"ha":1049,"x_min":42,"x_max":1021,"o":"m 1008 297 q 1021 282 1021 290 q 1017 268 1021 276 l 886 -7 q 869 -19 881 -19 q 857 -14 863 -19 l 850 -7 q 822 0 843 0 l 63 0 q 42 21 42 0 l 42 63 q 63 83 42 83 l 65 83 q 165 215 165 83 l 165 825 q 64 957 165 957 l 63 957 q 42 978 42 957 l 42 1019 q 63 1042 42 1042 l 758 1042 q 785 1049 776 1042 l 793 1056 q 804 1060 797 1060 q 822 1049 815 1060 l 932 860 q 936 847 936 854 q 925 831 936 838 l 869 800 q 854 794 860 794 q 838 807 844 794 l 833 814 q 741 915 790 886 q 611 943 692 943 l 386 943 l 386 617 l 508 617 q 606 640 571 617 q 640 710 640 664 l 640 719 q 661 740 640 740 l 703 740 q 724 719 724 740 l 724 404 q 703 383 724 383 l 661 383 q 640 404 640 383 l 640 413 q 606 483 640 460 q 508 506 572 506 l 386 506 l 386 231 q 482 99 386 99 l 572 99 q 740 118 675 99 q 848 183 804 138 q 931 307 892 229 l 935 315 q 953 326 942 326 q 964 324 960 326 l 1008 297 m 408 1150 q 478 1246 453 1207 q 522 1320 504 1285 q 557 1400 539 1356 q 578 1416 563 1413 q 608 1419 594 1419 q 677 1402 649 1419 q 706 1349 706 1385 q 672 1253 706 1296 q 590 1180 638 1211 q 499 1129 542 1149 q 487 1124 493 1126 q 474 1121 481 1121 q 460 1125 468 1121 l 408 1150 z "},"Ĕ":{"ha":1049,"x_min":42,"x_max":1021,"o":"m 1008 297 q 1021 282 1021 290 q 1017 268 1021 276 l 886 -7 q 869 -19 881 -19 q 857 -14 863 -19 l 850 -7 q 822 0 843 0 l 63 0 q 42 21 42 0 l 42 63 q 63 83 42 83 l 65 83 q 165 215 165 83 l 165 825 q 64 957 165 957 l 63 957 q 42 978 42 957 l 42 1019 q 63 1042 42 1042 l 758 1042 q 785 1049 776 1042 l 793 1056 q 804 1060 797 1060 q 822 1049 815 1060 l 932 860 q 936 847 936 854 q 925 831 936 838 l 869 800 q 854 794 860 794 q 838 807 844 794 l 833 814 q 741 915 790 886 q 611 943 692 943 l 386 943 l 386 617 l 508 617 q 606 640 571 617 q 640 710 640 664 l 640 719 q 661 740 640 740 l 703 740 q 724 719 724 740 l 724 404 q 703 383 724 383 l 661 383 q 640 404 640 383 l 640 413 q 606 483 640 460 q 508 506 572 506 l 386 506 l 386 231 q 482 99 386 99 l 572 99 q 740 118 675 99 q 848 183 804 138 q 931 307 892 229 l 935 315 q 953 326 942 326 q 964 324 960 326 l 1008 297 m 386 1378 q 408 1357 404 1378 q 440 1290 418 1314 q 507 1267 461 1267 q 574 1290 553 1267 q 606 1357 596 1314 q 628 1378 610 1378 q 666 1374 639 1378 q 714 1368 693 1371 q 731 1361 724 1367 q 738 1344 738 1356 q 710 1265 738 1310 q 631 1187 682 1219 q 507 1154 579 1154 q 384 1187 436 1154 q 304 1265 332 1219 q 276 1344 276 1310 q 283 1361 276 1356 q 300 1368 290 1367 q 348 1374 321 1371 q 386 1378 375 1378 z "},"Ě":{"ha":1049,"x_min":42,"x_max":1021,"o":"m 1008 297 q 1021 282 1021 290 q 1017 268 1021 276 l 886 -7 q 869 -19 881 -19 q 857 -14 863 -19 l 850 -7 q 822 0 843 0 l 63 0 q 42 21 42 0 l 42 63 q 63 83 42 83 l 65 83 q 165 215 165 83 l 165 825 q 64 957 165 957 l 63 957 q 42 978 42 957 l 42 1019 q 63 1042 42 1042 l 758 1042 q 785 1049 776 1042 l 793 1056 q 804 1060 797 1060 q 822 1049 815 1060 l 932 860 q 936 847 936 854 q 925 831 936 838 l 869 800 q 854 794 860 794 q 838 807 844 794 l 833 814 q 741 915 790 886 q 611 943 692 943 l 386 943 l 386 617 l 508 617 q 606 640 571 617 q 640 710 640 664 l 640 719 q 661 740 640 740 l 703 740 q 724 719 724 740 l 724 404 q 703 383 724 383 l 661 383 q 640 404 640 383 l 640 413 q 606 483 640 460 q 508 506 572 506 l 386 506 l 386 231 q 482 99 386 99 l 572 99 q 740 118 675 99 q 848 183 804 138 q 931 307 892 229 l 935 315 q 953 326 942 326 q 964 324 960 326 l 1008 297 m 503 1251 q 553 1328 524 1290 q 620 1390 582 1365 q 703 1415 658 1415 q 756 1387 739 1415 q 772 1318 772 1358 q 769 1286 772 1300 q 754 1267 767 1272 q 673 1233 708 1250 q 599 1189 638 1215 q 503 1118 560 1163 q 408 1189 447 1163 q 333 1233 368 1215 q 251 1267 297 1250 q 236 1286 239 1272 q 233 1318 233 1300 q 251 1387 233 1358 q 303 1415 268 1415 q 386 1390 349 1415 q 453 1328 424 1365 q 503 1251 483 1290 z "},"Ḝ":{"ha":1049,"x_min":42,"x_max":1021,"o":"m 1008 297 q 1021 282 1021 290 q 1017 268 1021 276 l 886 -7 q 869 -19 881 -19 q 857 -14 863 -19 l 850 -7 q 822 0 843 0 l 63 0 q 42 21 42 0 l 42 63 q 63 83 42 83 l 65 83 q 165 215 165 83 l 165 825 q 64 957 165 957 l 63 957 q 42 978 42 957 l 42 1019 q 63 1042 42 1042 l 758 1042 q 785 1049 776 1042 l 793 1056 q 804 1060 797 1060 q 822 1049 815 1060 l 932 860 q 936 847 936 854 q 925 831 936 838 l 869 800 q 854 794 860 794 q 838 807 844 794 l 833 814 q 741 915 790 886 q 611 943 692 943 l 386 943 l 386 617 l 508 617 q 606 640 571 617 q 640 710 640 664 l 640 719 q 661 740 640 740 l 703 740 q 724 719 724 740 l 724 404 q 703 383 724 383 l 661 383 q 640 404 640 383 l 640 413 q 606 483 640 460 q 508 506 572 506 l 386 506 l 386 231 q 482 99 386 99 l 572 99 q 740 118 675 99 q 848 183 804 138 q 931 307 892 229 l 935 315 q 953 326 942 326 q 964 324 960 326 l 1008 297 m 465 42 q 490 56 474 56 l 563 56 q 581 43 581 56 q 575 29 581 36 l 481 -83 q 544 -72 511 -72 q 618 -87 582 -72 q 678 -133 654 -101 q 701 -212 701 -164 q 652 -315 701 -274 q 521 -356 603 -356 q 455 -349 490 -356 q 382 -326 419 -342 q 358 -293 363 -318 q 354 -247 354 -268 q 364 -232 354 -232 q 376 -235 368 -232 q 433 -250 401 -243 q 494 -257 465 -257 q 542 -247 522 -257 q 561 -212 561 -237 q 531 -162 561 -176 q 454 -147 501 -147 q 414 -149 433 -147 q 375 -151 394 -151 q 361 -140 361 -151 q 365 -128 361 -133 l 465 42 m 386 1378 q 408 1357 404 1378 q 440 1290 418 1314 q 507 1267 461 1267 q 574 1290 553 1267 q 606 1357 596 1314 q 628 1378 610 1378 q 666 1374 639 1378 q 714 1368 693 1371 q 731 1361 724 1367 q 738 1344 738 1356 q 710 1265 738 1310 q 631 1187 682 1219 q 507 1154 579 1154 q 384 1187 436 1154 q 304 1265 332 1219 q 276 1344 276 1310 q 283 1361 276 1356 q 300 1368 290 1367 q 348 1374 321 1371 q 386 1378 375 1378 z "},"Ê":{"ha":1049,"x_min":42,"x_max":1021,"o":"m 1008 297 q 1021 282 1021 290 q 1017 268 1021 276 l 886 -7 q 869 -19 881 -19 q 857 -14 863 -19 l 850 -7 q 822 0 843 0 l 63 0 q 42 21 42 0 l 42 63 q 63 83 42 83 l 65 83 q 165 215 165 83 l 165 825 q 64 957 165 957 l 63 957 q 42 978 42 957 l 42 1019 q 63 1042 42 1042 l 758 1042 q 785 1049 776 1042 l 793 1056 q 804 1060 797 1060 q 822 1049 815 1060 l 932 860 q 936 847 936 854 q 925 831 936 838 l 869 800 q 854 794 860 794 q 838 807 844 794 l 833 814 q 741 915 790 886 q 611 943 692 943 l 386 943 l 386 617 l 508 617 q 606 640 571 617 q 640 710 640 664 l 640 719 q 661 740 640 740 l 703 740 q 724 719 724 740 l 724 404 q 703 383 724 383 l 661 383 q 640 404 640 383 l 640 413 q 606 483 640 460 q 508 506 572 506 l 386 506 l 386 231 q 482 99 386 99 l 572 99 q 740 118 675 99 q 848 183 804 138 q 931 307 892 229 l 935 315 q 953 326 942 326 q 964 324 960 326 l 1008 297 m 507 1282 q 458 1206 488 1243 q 390 1143 428 1168 q 307 1118 353 1118 q 255 1147 272 1118 q 238 1215 238 1176 q 240 1247 238 1233 q 256 1267 243 1261 q 337 1301 301 1285 q 412 1344 372 1318 q 507 1415 451 1371 q 603 1344 564 1371 q 677 1301 642 1318 q 758 1267 713 1285 q 774 1247 771 1261 q 776 1215 776 1233 q 760 1147 776 1176 q 707 1118 743 1118 q 624 1143 663 1118 q 557 1206 586 1168 q 507 1282 528 1243 z "},"Ë":{"ha":1049,"x_min":42,"x_max":1021,"o":"m 1008 297 q 1021 282 1021 290 q 1017 268 1021 276 l 886 -7 q 869 -19 881 -19 q 857 -14 863 -19 l 850 -7 q 822 0 843 0 l 63 0 q 42 21 42 0 l 42 63 q 63 83 42 83 l 65 83 q 165 215 165 83 l 165 825 q 64 957 165 957 l 63 957 q 42 978 42 957 l 42 1019 q 63 1042 42 1042 l 758 1042 q 785 1049 776 1042 l 793 1056 q 804 1060 797 1060 q 822 1049 815 1060 l 932 860 q 936 847 936 854 q 925 831 936 838 l 869 800 q 854 794 860 794 q 838 807 844 794 l 833 814 q 741 915 790 886 q 611 943 692 943 l 386 943 l 386 617 l 508 617 q 606 640 571 617 q 640 710 640 664 l 640 719 q 661 740 640 740 l 703 740 q 724 719 724 740 l 724 404 q 703 383 724 383 l 661 383 q 640 404 640 383 l 640 413 q 606 483 640 460 q 508 506 572 506 l 386 506 l 386 231 q 482 99 386 99 l 572 99 q 740 118 675 99 q 848 183 804 138 q 931 307 892 229 l 935 315 q 953 326 942 326 q 964 324 960 326 l 1008 297 m 346 1375 q 415 1340 381 1375 q 450 1271 450 1306 q 415 1201 450 1236 q 346 1167 381 1167 q 276 1201 311 1167 q 242 1271 242 1236 q 250 1306 242 1290 q 276 1340 258 1321 q 346 1375 310 1375 m 668 1375 q 739 1340 704 1375 q 774 1271 774 1306 q 739 1201 774 1236 q 668 1167 704 1167 q 599 1201 633 1167 q 564 1271 564 1236 q 599 1340 564 1306 q 668 1375 633 1375 z "},"Ė":{"ha":1049,"x_min":42,"x_max":1021,"o":"m 1008 297 q 1021 282 1021 290 q 1017 268 1021 276 l 886 -7 q 869 -19 881 -19 q 857 -14 863 -19 l 850 -7 q 822 0 843 0 l 63 0 q 42 21 42 0 l 42 63 q 63 83 42 83 l 65 83 q 165 215 165 83 l 165 825 q 64 957 165 957 l 63 957 q 42 978 42 957 l 42 1019 q 63 1042 42 1042 l 758 1042 q 785 1049 776 1042 l 793 1056 q 804 1060 797 1060 q 822 1049 815 1060 l 932 860 q 936 847 936 854 q 925 831 936 838 l 869 800 q 854 794 860 794 q 838 807 844 794 l 833 814 q 741 915 790 886 q 611 943 692 943 l 386 943 l 386 617 l 508 617 q 606 640 571 617 q 640 710 640 664 l 640 719 q 661 740 640 740 l 703 740 q 724 719 724 740 l 724 404 q 703 383 724 383 l 661 383 q 640 404 640 383 l 640 413 q 606 483 640 460 q 508 506 572 506 l 386 506 l 386 231 q 482 99 386 99 l 572 99 q 740 118 675 99 q 848 183 804 138 q 931 307 892 229 l 935 315 q 953 326 942 326 q 964 324 960 326 l 1008 297 m 507 1375 q 578 1340 543 1375 q 613 1271 613 1306 q 578 1201 613 1236 q 507 1167 543 1167 q 438 1201 474 1167 q 403 1271 403 1235 q 438 1340 403 1306 q 507 1375 472 1375 z "},"Ẹ":{"ha":1049,"x_min":42,"x_max":1021,"o":"m 1008 297 q 1021 282 1021 290 q 1017 268 1021 276 l 886 -7 q 869 -19 881 -19 q 857 -14 863 -19 l 850 -7 q 822 0 843 0 l 63 0 q 42 21 42 0 l 42 63 q 63 83 42 83 l 65 83 q 165 215 165 83 l 165 825 q 64 957 165 957 l 63 957 q 42 978 42 957 l 42 1019 q 63 1042 42 1042 l 758 1042 q 785 1049 776 1042 l 793 1056 q 804 1060 797 1060 q 822 1049 815 1060 l 932 860 q 936 847 936 854 q 925 831 936 838 l 869 800 q 854 794 860 794 q 838 807 844 794 l 833 814 q 741 915 790 886 q 611 943 692 943 l 386 943 l 386 617 l 508 617 q 606 640 571 617 q 640 710 640 664 l 640 719 q 661 740 640 740 l 703 740 q 724 719 724 740 l 724 404 q 703 383 724 383 l 661 383 q 640 404 640 383 l 640 413 q 606 483 640 460 q 508 506 572 506 l 386 506 l 386 231 q 482 99 386 99 l 572 99 q 740 118 675 99 q 848 183 804 138 q 931 307 892 229 l 935 315 q 953 326 942 326 q 964 324 960 326 l 1008 297 m 519 -92 q 590 -126 556 -92 q 625 -196 625 -161 q 590 -265 625 -231 q 519 -300 556 -300 q 450 -265 486 -300 q 415 -196 415 -232 q 450 -126 415 -161 q 519 -92 485 -92 z "},"È":{"ha":1049,"x_min":42,"x_max":1021,"o":"m 1008 297 q 1021 282 1021 290 q 1017 268 1021 276 l 886 -7 q 869 -19 881 -19 q 857 -14 863 -19 l 850 -7 q 822 0 843 0 l 63 0 q 42 21 42 0 l 42 63 q 63 83 42 83 l 65 83 q 165 215 165 83 l 165 825 q 64 957 165 957 l 63 957 q 42 978 42 957 l 42 1019 q 63 1042 42 1042 l 758 1042 q 785 1049 776 1042 l 793 1056 q 804 1060 797 1060 q 822 1049 815 1060 l 932 860 q 936 847 936 854 q 925 831 936 838 l 869 800 q 854 794 860 794 q 838 807 844 794 l 833 814 q 741 915 790 886 q 611 943 692 943 l 386 943 l 386 617 l 508 617 q 606 640 571 617 q 640 710 640 664 l 640 719 q 661 740 640 740 l 703 740 q 724 719 724 740 l 724 404 q 703 383 724 383 l 661 383 q 640 404 640 383 l 640 413 q 606 483 640 460 q 508 506 572 506 l 386 506 l 386 231 q 482 99 386 99 l 572 99 q 740 118 675 99 q 848 183 804 138 q 931 307 892 229 l 935 315 q 953 326 942 326 q 964 324 960 326 l 1008 297 m 615 1150 l 564 1125 q 550 1121 556 1121 q 538 1124 544 1121 q 525 1129 532 1126 q 434 1180 482 1149 q 352 1253 386 1211 q 318 1349 318 1296 q 347 1402 318 1385 q 415 1419 376 1419 q 446 1416 431 1419 q 467 1400 461 1413 q 503 1320 486 1356 q 545 1246 519 1285 q 615 1150 571 1207 z "},"Ē":{"ha":1049,"x_min":42,"x_max":1021,"o":"m 1008 297 q 1021 282 1021 290 q 1017 268 1021 276 l 886 -7 q 869 -19 881 -19 q 857 -14 863 -19 l 850 -7 q 822 0 843 0 l 63 0 q 42 21 42 0 l 42 63 q 63 83 42 83 l 65 83 q 165 215 165 83 l 165 825 q 64 957 165 957 l 63 957 q 42 978 42 957 l 42 1019 q 63 1042 42 1042 l 758 1042 q 785 1049 776 1042 l 793 1056 q 804 1060 797 1060 q 822 1049 815 1060 l 932 860 q 936 847 936 854 q 925 831 936 838 l 869 800 q 854 794 860 794 q 838 807 844 794 l 833 814 q 741 915 790 886 q 611 943 692 943 l 386 943 l 386 617 l 508 617 q 606 640 571 617 q 640 710 640 664 l 640 719 q 661 740 640 740 l 703 740 q 724 719 724 740 l 724 404 q 703 383 724 383 l 661 383 q 640 404 640 383 l 640 413 q 606 483 640 460 q 508 506 572 506 l 386 506 l 386 231 q 482 99 386 99 l 572 99 q 740 118 675 99 q 848 183 804 138 q 931 307 892 229 l 935 315 q 953 326 942 326 q 964 324 960 326 l 1008 297 m 714 1222 q 693 1201 714 1201 l 321 1201 q 300 1222 300 1201 l 300 1306 q 321 1326 300 1326 l 693 1326 q 714 1306 714 1326 l 714 1222 z "},"Ḗ":{"ha":1049,"x_min":42,"x_max":1021,"o":"m 1008 297 q 1021 282 1021 290 q 1017 268 1021 276 l 886 -7 q 869 -19 881 -19 q 857 -14 863 -19 l 850 -7 q 822 0 843 0 l 63 0 q 42 21 42 0 l 42 63 q 63 83 42 83 l 65 83 q 165 215 165 83 l 165 825 q 64 957 165 957 l 63 957 q 42 978 42 957 l 42 1019 q 63 1042 42 1042 l 758 1042 q 785 1049 776 1042 l 793 1056 q 804 1060 797 1060 q 822 1049 815 1060 l 932 860 q 936 847 936 854 q 925 831 936 838 l 869 800 q 854 794 860 794 q 838 807 844 794 l 833 814 q 741 915 790 886 q 611 943 692 943 l 386 943 l 386 617 l 508 617 q 606 640 571 617 q 640 710 640 664 l 640 719 q 661 740 640 740 l 703 740 q 724 719 724 740 l 724 404 q 703 383 724 383 l 661 383 q 640 404 640 383 l 640 413 q 606 483 640 460 q 508 506 572 506 l 386 506 l 386 231 q 482 99 386 99 l 572 99 q 740 118 675 99 q 848 183 804 138 q 931 307 892 229 l 935 315 q 953 326 942 326 q 964 324 960 326 l 1008 297 m 714 1222 q 693 1201 714 1201 l 321 1201 q 300 1222 300 1201 l 300 1306 q 321 1326 300 1326 l 693 1326 q 714 1306 714 1326 l 714 1222 m 408 1442 q 478 1538 453 1499 q 522 1612 504 1576 q 557 1692 539 1647 q 578 1708 563 1704 q 608 1711 594 1711 q 677 1694 649 1711 q 706 1640 706 1676 q 672 1545 706 1588 q 590 1472 638 1503 q 499 1421 542 1440 q 487 1415 493 1418 q 474 1413 481 1413 q 460 1417 468 1413 l 408 1442 z "},"Ḕ":{"ha":1049,"x_min":42,"x_max":1021,"o":"m 1008 297 q 1021 282 1021 290 q 1017 268 1021 276 l 886 -7 q 869 -19 881 -19 q 857 -14 863 -19 l 850 -7 q 822 0 843 0 l 63 0 q 42 21 42 0 l 42 63 q 63 83 42 83 l 65 83 q 165 215 165 83 l 165 825 q 64 957 165 957 l 63 957 q 42 978 42 957 l 42 1019 q 63 1042 42 1042 l 758 1042 q 785 1049 776 1042 l 793 1056 q 804 1060 797 1060 q 822 1049 815 1060 l 932 860 q 936 847 936 854 q 925 831 936 838 l 869 800 q 854 794 860 794 q 838 807 844 794 l 833 814 q 741 915 790 886 q 611 943 692 943 l 386 943 l 386 617 l 508 617 q 606 640 571 617 q 640 710 640 664 l 640 719 q 661 740 640 740 l 703 740 q 724 719 724 740 l 724 404 q 703 383 724 383 l 661 383 q 640 404 640 383 l 640 413 q 606 483 640 460 q 508 506 572 506 l 386 506 l 386 231 q 482 99 386 99 l 572 99 q 740 118 675 99 q 848 183 804 138 q 931 307 892 229 l 935 315 q 953 326 942 326 q 964 324 960 326 l 1008 297 m 714 1222 q 693 1201 714 1201 l 321 1201 q 300 1222 300 1201 l 300 1306 q 321 1326 300 1326 l 693 1326 q 714 1306 714 1326 l 714 1222 m 615 1442 l 564 1417 q 550 1413 556 1413 q 538 1415 544 1413 q 525 1421 532 1418 q 434 1472 482 1440 q 352 1545 386 1503 q 318 1640 318 1588 q 347 1694 318 1676 q 415 1711 376 1711 q 446 1708 431 1711 q 467 1692 461 1704 q 503 1612 486 1647 q 545 1538 519 1576 q 615 1442 571 1499 z "},"Ę":{"ha":1049,"x_min":42,"x_max":1021,"o":"m 1008 297 q 1021 282 1021 290 q 1017 268 1021 276 l 886 -7 q 869 -19 881 -19 q 857 -14 863 -19 l 850 -7 q 822 0 843 0 l 63 0 q 42 21 42 0 l 42 63 q 63 83 42 83 l 65 83 q 165 215 165 83 l 165 825 q 64 957 165 957 l 63 957 q 42 978 42 957 l 42 1019 q 63 1042 42 1042 l 758 1042 q 785 1049 776 1042 l 793 1056 q 804 1060 797 1060 q 822 1049 815 1060 l 932 860 q 936 847 936 854 q 925 831 936 838 l 869 800 q 854 794 860 794 q 838 807 844 794 l 833 814 q 741 915 790 886 q 611 943 692 943 l 386 943 l 386 617 l 508 617 q 606 640 571 617 q 640 710 640 664 l 640 719 q 661 740 640 740 l 703 740 q 724 719 724 740 l 724 404 q 703 383 724 383 l 661 383 q 640 404 640 383 l 640 413 q 606 483 640 460 q 508 506 572 506 l 386 506 l 386 231 q 482 99 386 99 l 572 99 q 740 118 675 99 q 848 183 804 138 q 931 307 892 229 l 935 315 q 953 326 942 326 q 964 324 960 326 l 1008 297 m 833 25 q 839 10 839 17 q 822 0 839 0 q 795 -6 817 0 q 749 -27 774 -12 q 706 -67 724 -42 q 688 -131 688 -93 q 717 -212 688 -179 q 799 -244 746 -244 q 849 -235 824 -244 q 893 -217 874 -226 q 919 -208 913 -208 q 932 -225 932 -208 l 932 -281 q 922 -303 932 -297 q 769 -351 842 -351 q 646 -317 694 -351 q 574 -235 597 -283 q 550 -146 550 -187 q 580 -40 550 -82 q 652 26 610 1 q 733 60 694 50 q 786 69 771 69 q 810 57 800 69 l 833 25 z "},"Ẽ":{"ha":1049,"x_min":42,"x_max":1021,"o":"m 1008 297 q 1021 282 1021 290 q 1017 268 1021 276 l 886 -7 q 869 -19 881 -19 q 857 -14 863 -19 l 850 -7 q 822 0 843 0 l 63 0 q 42 21 42 0 l 42 63 q 63 83 42 83 l 65 83 q 165 215 165 83 l 165 825 q 64 957 165 957 l 63 957 q 42 978 42 957 l 42 1019 q 63 1042 42 1042 l 758 1042 q 785 1049 776 1042 l 793 1056 q 804 1060 797 1060 q 822 1049 815 1060 l 932 860 q 936 847 936 854 q 925 831 936 838 l 869 800 q 854 794 860 794 q 838 807 844 794 l 833 814 q 741 915 790 886 q 611 943 692 943 l 386 943 l 386 617 l 508 617 q 606 640 571 617 q 640 710 640 664 l 640 719 q 661 740 640 740 l 703 740 q 724 719 724 740 l 724 404 q 703 383 724 383 l 661 383 q 640 404 640 383 l 640 413 q 606 483 640 460 q 508 506 572 506 l 386 506 l 386 231 q 482 99 386 99 l 572 99 q 740 118 675 99 q 848 183 804 138 q 931 307 892 229 l 935 315 q 953 326 942 326 q 964 324 960 326 l 1008 297 m 553 1282 q 597 1243 576 1243 q 618 1253 613 1243 q 624 1275 624 1264 q 619 1305 624 1290 q 603 1333 614 1319 q 635 1362 614 1347 q 679 1376 657 1376 q 708 1361 692 1376 q 738 1322 725 1346 q 750 1269 750 1297 q 708 1163 750 1201 q 614 1124 667 1124 q 537 1139 567 1124 q 490 1176 507 1154 q 461 1217 472 1199 q 438 1247 449 1239 q 417 1256 428 1256 q 397 1245 403 1256 q 390 1224 390 1235 q 395 1195 390 1210 q 411 1165 400 1181 q 378 1137 400 1151 q 333 1122 357 1122 q 306 1138 322 1122 q 276 1177 289 1153 q 264 1228 264 1201 q 306 1336 264 1297 q 400 1375 349 1375 q 478 1359 449 1375 q 526 1322 508 1343 q 553 1282 543 1300 z "},"Ə":{"ha":1082,"x_min":49,"x_max":1033,"o":"m 51 740 q 112 851 74 794 q 206 953 150 907 q 340 1029 263 1000 q 517 1058 417 1058 q 799 990 683 1058 q 974 803 914 921 q 1033 535 1033 685 q 1018 389 1033 465 q 968 240 1003 313 q 874 110 933 168 q 728 17 815 51 q 521 -18 640 -18 q 342 10 417 -18 q 217 85 268 39 q 138 183 167 131 q 96 286 108 236 q 83 371 83 336 q 87 390 83 382 q 104 403 90 397 l 768 697 q 669 866 738 804 q 494 928 601 928 q 326 892 392 928 q 220 804 260 857 q 158 701 181 751 q 135 683 150 683 q 117 689 128 683 l 68 711 q 55 718 61 714 q 49 728 49 722 q 51 740 49 732 m 328 319 q 346 219 328 271 q 408 131 364 167 q 532 96 453 96 q 658 132 607 96 q 739 226 708 168 q 783 350 769 285 q 796 474 796 415 q 792 567 796 521 l 328 336 l 328 319 z "},"F":{"ha":964,"x_min":42,"x_max":936,"o":"m 386 215 q 410 118 386 153 q 481 83 433 83 l 490 83 q 511 63 511 83 l 511 21 q 490 0 511 0 l 63 0 q 42 21 42 0 l 42 63 q 63 83 42 83 l 65 83 q 165 215 165 83 l 165 825 q 64 957 165 957 l 63 957 q 42 978 42 957 l 42 1019 q 63 1042 42 1042 l 758 1042 q 785 1049 776 1042 l 793 1056 q 804 1060 797 1060 q 822 1049 815 1060 l 932 860 q 936 847 936 854 q 925 831 936 838 l 869 800 q 854 794 860 794 q 838 807 844 794 l 833 814 q 727 915 790 886 q 583 943 664 943 l 386 943 l 386 603 l 508 603 q 606 626 571 603 q 640 696 640 650 l 640 706 q 661 726 640 726 l 703 726 q 724 706 724 726 l 724 390 q 703 369 724 369 l 661 369 q 640 390 640 369 l 640 399 q 606 469 640 446 q 508 492 572 492 l 386 492 l 386 215 z "},"G":{"ha":1072,"x_min":49,"x_max":1044,"o":"m 286 571 q 303 415 286 494 q 356 267 319 335 q 449 158 392 199 q 586 117 506 117 q 653 124 617 117 q 717 151 690 132 q 744 201 744 169 l 744 274 q 722 386 744 353 q 666 426 700 419 q 596 433 632 433 l 586 433 q 565 454 565 433 l 565 496 q 586 517 565 517 l 1024 517 q 1044 496 1044 517 l 1044 454 q 1024 433 1044 433 l 1013 433 q 976 388 976 433 l 976 238 q 819 54 929 126 q 551 -18 710 -18 q 342 22 435 -18 q 183 135 249 63 q 83 303 118 207 q 49 510 49 399 q 64 656 49 579 q 115 803 79 732 q 209 933 150 875 q 355 1024 268 990 q 561 1058 442 1058 q 734 1033 661 1058 q 856 969 807 1008 q 933 889 904 931 q 974 812 961 847 q 986 758 986 776 q 980 740 986 746 q 963 731 974 735 l 793 671 q 781 667 788 669 q 768 665 775 665 q 757 667 763 665 q 751 679 751 669 q 753 697 751 686 q 754 725 754 707 q 703 885 754 821 q 550 949 653 949 q 411 901 471 949 q 319 768 351 853 q 286 571 286 683 z "},"Ğ":{"ha":1072,"x_min":49,"x_max":1044,"o":"m 286 571 q 303 415 286 494 q 356 267 319 335 q 449 158 392 199 q 586 117 506 117 q 653 124 617 117 q 717 151 690 132 q 744 201 744 169 l 744 274 q 722 386 744 353 q 666 426 700 419 q 596 433 632 433 l 586 433 q 565 454 565 433 l 565 496 q 586 517 565 517 l 1024 517 q 1044 496 1044 517 l 1044 454 q 1024 433 1044 433 l 1013 433 q 976 388 976 433 l 976 238 q 819 54 929 126 q 551 -18 710 -18 q 342 22 435 -18 q 183 135 249 63 q 83 303 118 207 q 49 510 49 399 q 64 656 49 579 q 115 803 79 732 q 209 933 150 875 q 355 1024 268 990 q 561 1058 442 1058 q 734 1033 661 1058 q 856 969 807 1008 q 933 889 904 931 q 974 812 961 847 q 986 758 986 776 q 980 740 986 746 q 963 731 974 735 l 793 671 q 781 667 788 669 q 768 665 775 665 q 757 667 763 665 q 751 679 751 669 q 753 697 751 686 q 754 725 754 707 q 703 885 754 821 q 550 949 653 949 q 411 901 471 949 q 319 768 351 853 q 286 571 286 683 m 415 1378 q 438 1357 433 1378 q 469 1290 447 1314 q 536 1267 490 1267 q 603 1290 582 1267 q 635 1357 625 1314 q 657 1378 639 1378 q 695 1374 668 1378 q 743 1368 722 1371 q 760 1361 753 1367 q 767 1344 767 1356 q 739 1265 767 1310 q 660 1187 711 1219 q 536 1154 608 1154 q 413 1187 465 1154 q 333 1265 361 1219 q 306 1344 306 1310 q 313 1361 306 1356 q 329 1368 319 1367 q 377 1374 350 1371 q 415 1378 404 1378 z "},"Ǧ":{"ha":1072,"x_min":49,"x_max":1044,"o":"m 286 571 q 303 415 286 494 q 356 267 319 335 q 449 158 392 199 q 586 117 506 117 q 653 124 617 117 q 717 151 690 132 q 744 201 744 169 l 744 274 q 722 386 744 353 q 666 426 700 419 q 596 433 632 433 l 586 433 q 565 454 565 433 l 565 496 q 586 517 565 517 l 1024 517 q 1044 496 1044 517 l 1044 454 q 1024 433 1044 433 l 1013 433 q 976 388 976 433 l 976 238 q 819 54 929 126 q 551 -18 710 -18 q 342 22 435 -18 q 183 135 249 63 q 83 303 118 207 q 49 510 49 399 q 64 656 49 579 q 115 803 79 732 q 209 933 150 875 q 355 1024 268 990 q 561 1058 442 1058 q 734 1033 661 1058 q 856 969 807 1008 q 933 889 904 931 q 974 812 961 847 q 986 758 986 776 q 980 740 986 746 q 963 731 974 735 l 793 671 q 781 667 788 669 q 768 665 775 665 q 757 667 763 665 q 751 679 751 669 q 753 697 751 686 q 754 725 754 707 q 703 885 754 821 q 550 949 653 949 q 411 901 471 949 q 319 768 351 853 q 286 571 286 683 m 532 1251 q 582 1328 553 1290 q 649 1390 611 1365 q 732 1415 688 1415 q 785 1387 768 1415 q 801 1318 801 1358 q 799 1286 801 1300 q 783 1267 796 1272 q 702 1233 738 1250 q 628 1189 667 1215 q 532 1118 589 1163 q 437 1189 476 1163 q 362 1233 397 1215 q 281 1267 326 1250 q 265 1286 268 1272 q 263 1318 263 1300 q 280 1387 263 1358 q 332 1415 297 1415 q 415 1390 378 1415 q 483 1328 453 1365 q 532 1251 513 1290 z "},"Ĝ":{"ha":1072,"x_min":49,"x_max":1044,"o":"m 286 571 q 303 415 286 494 q 356 267 319 335 q 449 158 392 199 q 586 117 506 117 q 653 124 617 117 q 717 151 690 132 q 744 201 744 169 l 744 274 q 722 386 744 353 q 666 426 700 419 q 596 433 632 433 l 586 433 q 565 454 565 433 l 565 496 q 586 517 565 517 l 1024 517 q 1044 496 1044 517 l 1044 454 q 1024 433 1044 433 l 1013 433 q 976 388 976 433 l 976 238 q 819 54 929 126 q 551 -18 710 -18 q 342 22 435 -18 q 183 135 249 63 q 83 303 118 207 q 49 510 49 399 q 64 656 49 579 q 115 803 79 732 q 209 933 150 875 q 355 1024 268 990 q 561 1058 442 1058 q 734 1033 661 1058 q 856 969 807 1008 q 933 889 904 931 q 974 812 961 847 q 986 758 986 776 q 980 740 986 746 q 963 731 974 735 l 793 671 q 781 667 788 669 q 768 665 775 665 q 757 667 763 665 q 751 679 751 669 q 753 697 751 686 q 754 725 754 707 q 703 885 754 821 q 550 949 653 949 q 411 901 471 949 q 319 768 351 853 q 286 571 286 683 m 536 1282 q 487 1206 517 1243 q 419 1143 457 1168 q 336 1118 382 1118 q 284 1147 301 1118 q 267 1215 267 1176 q 269 1247 267 1233 q 285 1267 272 1261 q 366 1301 331 1285 q 441 1344 401 1318 q 536 1415 481 1371 q 632 1344 593 1371 q 706 1301 671 1318 q 788 1267 742 1285 q 803 1247 800 1261 q 806 1215 806 1233 q 789 1147 806 1176 q 736 1118 772 1118 q 653 1143 692 1118 q 586 1206 615 1168 q 536 1282 557 1243 z "},"Ģ":{"ha":1072,"x_min":49,"x_max":1044,"o":"m 286 571 q 303 415 286 494 q 356 267 319 335 q 449 158 392 199 q 586 117 506 117 q 653 124 617 117 q 717 151 690 132 q 744 201 744 169 l 744 274 q 722 386 744 353 q 666 426 700 419 q 596 433 632 433 l 586 433 q 565 454 565 433 l 565 496 q 586 517 565 517 l 1024 517 q 1044 496 1044 517 l 1044 454 q 1024 433 1044 433 l 1013 433 q 976 388 976 433 l 976 238 q 819 54 929 126 q 551 -18 710 -18 q 342 22 435 -18 q 183 135 249 63 q 83 303 118 207 q 49 510 49 399 q 64 656 49 579 q 115 803 79 732 q 209 933 150 875 q 355 1024 268 990 q 561 1058 442 1058 q 734 1033 661 1058 q 856 969 807 1008 q 933 889 904 931 q 974 812 961 847 q 986 758 986 776 q 980 740 986 746 q 963 731 974 735 l 793 671 q 781 667 788 669 q 768 665 775 665 q 757 667 763 665 q 751 679 751 669 q 753 697 751 686 q 754 725 754 707 q 703 885 754 821 q 550 949 653 949 q 411 901 471 949 q 319 768 351 853 q 286 571 286 683 m 626 -150 q 642 -173 636 -160 q 647 -206 647 -186 q 647 -219 647 -211 q 644 -235 646 -226 q 615 -297 639 -264 q 563 -358 592 -329 q 510 -404 535 -386 q 478 -422 486 -422 q 467 -419 474 -422 q 439 -407 461 -417 q 497 -346 475 -379 q 518 -289 518 -312 q 508 -267 518 -276 l 469 -228 q 451 -189 451 -207 q 469 -150 451 -171 l 508 -111 q 549 -92 528 -92 q 588 -111 565 -92 l 626 -150 z "},"Ġ":{"ha":1072,"x_min":49,"x_max":1044,"o":"m 286 571 q 303 415 286 494 q 356 267 319 335 q 449 158 392 199 q 586 117 506 117 q 653 124 617 117 q 717 151 690 132 q 744 201 744 169 l 744 274 q 722 386 744 353 q 666 426 700 419 q 596 433 632 433 l 586 433 q 565 454 565 433 l 565 496 q 586 517 565 517 l 1024 517 q 1044 496 1044 517 l 1044 454 q 1024 433 1044 433 l 1013 433 q 976 388 976 433 l 976 238 q 819 54 929 126 q 551 -18 710 -18 q 342 22 435 -18 q 183 135 249 63 q 83 303 118 207 q 49 510 49 399 q 64 656 49 579 q 115 803 79 732 q 209 933 150 875 q 355 1024 268 990 q 561 1058 442 1058 q 734 1033 661 1058 q 856 969 807 1008 q 933 889 904 931 q 974 812 961 847 q 986 758 986 776 q 980 740 986 746 q 963 731 974 735 l 793 671 q 781 667 788 669 q 768 665 775 665 q 757 667 763 665 q 751 679 751 669 q 753 697 751 686 q 754 725 754 707 q 703 885 754 821 q 550 949 653 949 q 411 901 471 949 q 319 768 351 853 q 286 571 286 683 m 536 1375 q 607 1340 572 1375 q 642 1271 642 1306 q 607 1201 642 1236 q 536 1167 572 1167 q 467 1201 503 1167 q 432 1271 432 1235 q 467 1340 432 1306 q 536 1375 501 1375 z "},"Ḡ":{"ha":1072,"x_min":49,"x_max":1044,"o":"m 286 571 q 303 415 286 494 q 356 267 319 335 q 449 158 392 199 q 586 117 506 117 q 653 124 617 117 q 717 151 690 132 q 744 201 744 169 l 744 274 q 722 386 744 353 q 666 426 700 419 q 596 433 632 433 l 586 433 q 565 454 565 433 l 565 496 q 586 517 565 517 l 1024 517 q 1044 496 1044 517 l 1044 454 q 1024 433 1044 433 l 1013 433 q 976 388 976 433 l 976 238 q 819 54 929 126 q 551 -18 710 -18 q 342 22 435 -18 q 183 135 249 63 q 83 303 118 207 q 49 510 49 399 q 64 656 49 579 q 115 803 79 732 q 209 933 150 875 q 355 1024 268 990 q 561 1058 442 1058 q 734 1033 661 1058 q 856 969 807 1008 q 933 889 904 931 q 974 812 961 847 q 986 758 986 776 q 980 740 986 746 q 963 731 974 735 l 793 671 q 781 667 788 669 q 768 665 775 665 q 757 667 763 665 q 751 679 751 669 q 753 697 751 686 q 754 725 754 707 q 703 885 754 821 q 550 949 653 949 q 411 901 471 949 q 319 768 351 853 q 286 571 286 683 m 743 1222 q 722 1201 743 1201 l 350 1201 q 329 1222 329 1201 l 329 1306 q 350 1326 329 1326 l 722 1326 q 743 1306 743 1326 l 743 1222 z "},"H":{"ha":1247,"x_min":42,"x_max":1206,"o":"m 1083 215 q 1103 122 1083 160 q 1176 83 1124 83 l 1185 83 q 1206 63 1206 83 l 1206 21 q 1185 0 1206 0 l 758 0 q 738 21 738 0 l 738 63 q 758 83 738 83 l 767 83 q 840 122 819 83 q 861 215 861 160 l 861 479 l 386 479 l 386 215 q 407 122 386 160 q 481 83 428 83 l 489 83 q 510 63 510 83 l 510 21 q 489 0 510 0 l 63 0 q 42 21 42 0 l 42 63 q 63 83 42 83 l 71 83 q 144 122 124 83 q 164 215 164 160 l 164 826 q 144 920 164 882 q 71 958 124 958 l 63 958 q 42 979 42 958 l 42 1021 q 63 1042 42 1042 l 489 1042 q 510 1021 510 1042 l 510 979 q 489 958 510 958 l 481 958 q 407 920 428 958 q 386 826 386 882 l 386 589 l 861 589 l 861 826 q 840 920 861 882 q 767 958 819 958 l 758 958 q 738 979 738 958 l 738 1021 q 758 1042 738 1042 l 1185 1042 q 1206 1021 1206 1042 l 1206 979 q 1185 958 1206 958 l 1176 958 q 1103 920 1124 958 q 1083 826 1083 882 l 1083 215 z "},"Ħ":{"ha":1247,"x_min":33,"x_max":1214,"o":"m 54 694 q 33 715 33 694 l 33 785 q 54 806 33 806 l 164 806 l 164 826 q 144 920 164 882 q 71 958 124 958 l 63 958 q 42 979 42 958 l 42 1021 q 63 1042 42 1042 l 489 1042 q 510 1021 510 1042 l 510 979 q 489 958 510 958 l 481 958 q 407 920 428 958 q 386 826 386 882 l 386 806 l 861 806 l 861 826 q 840 920 861 882 q 767 958 819 958 l 758 958 q 738 979 738 958 l 738 1021 q 758 1042 738 1042 l 1185 1042 q 1206 1021 1206 1042 l 1206 979 q 1185 958 1206 958 l 1176 958 q 1103 920 1124 958 q 1083 826 1083 882 l 1083 806 l 1193 806 q 1214 785 1214 806 l 1214 715 q 1193 694 1214 694 l 1083 694 l 1083 215 q 1103 122 1083 160 q 1176 83 1124 83 l 1185 83 q 1206 63 1206 83 l 1206 21 q 1185 0 1206 0 l 758 0 q 738 21 738 0 l 738 63 q 758 83 738 83 l 767 83 q 840 122 819 83 q 861 215 861 160 l 861 479 l 386 479 l 386 215 q 407 122 386 160 q 481 83 428 83 l 489 83 q 510 63 510 83 l 510 21 q 489 0 510 0 l 63 0 q 42 21 42 0 l 42 63 q 63 83 42 83 l 71 83 q 144 122 124 83 q 164 215 164 160 l 164 694 l 54 694 m 386 589 l 861 589 l 861 694 l 386 694 l 386 589 z "},"Ḫ":{"ha":1247,"x_min":42,"x_max":1206,"o":"m 1083 215 q 1103 122 1083 160 q 1176 83 1124 83 l 1185 83 q 1206 63 1206 83 l 1206 21 q 1185 0 1206 0 l 758 0 q 738 21 738 0 l 738 63 q 758 83 738 83 l 767 83 q 840 122 819 83 q 861 215 861 160 l 861 479 l 386 479 l 386 215 q 407 122 386 160 q 481 83 428 83 l 489 83 q 510 63 510 83 l 510 21 q 489 0 510 0 l 63 0 q 42 21 42 0 l 42 63 q 63 83 42 83 l 71 83 q 144 122 124 83 q 164 215 164 160 l 164 826 q 144 920 164 882 q 71 958 124 958 l 63 958 q 42 979 42 958 l 42 1021 q 63 1042 42 1042 l 489 1042 q 510 1021 510 1042 l 510 979 q 489 958 510 958 l 481 958 q 407 920 428 958 q 386 826 386 882 l 386 589 l 861 589 l 861 826 q 840 920 861 882 q 767 958 819 958 l 758 958 q 738 979 738 958 l 738 1021 q 758 1042 738 1042 l 1185 1042 q 1206 1021 1206 1042 l 1206 979 q 1185 958 1206 958 l 1176 958 q 1103 920 1124 958 q 1083 826 1083 882 l 1083 215 m 503 -92 q 525 -112 521 -92 q 556 -179 535 -156 q 624 -203 578 -203 q 691 -179 669 -203 q 722 -112 713 -156 q 744 -92 726 -92 q 783 -95 756 -92 q 831 -101 810 -99 q 847 -108 840 -103 q 854 -125 854 -114 q 826 -205 854 -160 q 747 -283 799 -250 q 624 -315 696 -315 q 501 -283 553 -315 q 421 -205 449 -250 q 393 -125 393 -160 q 400 -108 393 -114 q 417 -101 407 -103 q 465 -95 438 -99 q 503 -92 492 -92 z "},"Ĥ":{"ha":1247,"x_min":42,"x_max":1206,"o":"m 1083 215 q 1103 122 1083 160 q 1176 83 1124 83 l 1185 83 q 1206 63 1206 83 l 1206 21 q 1185 0 1206 0 l 758 0 q 738 21 738 0 l 738 63 q 758 83 738 83 l 767 83 q 840 122 819 83 q 861 215 861 160 l 861 479 l 386 479 l 386 215 q 407 122 386 160 q 481 83 428 83 l 489 83 q 510 63 510 83 l 510 21 q 489 0 510 0 l 63 0 q 42 21 42 0 l 42 63 q 63 83 42 83 l 71 83 q 144 122 124 83 q 164 215 164 160 l 164 826 q 144 920 164 882 q 71 958 124 958 l 63 958 q 42 979 42 958 l 42 1021 q 63 1042 42 1042 l 489 1042 q 510 1021 510 1042 l 510 979 q 489 958 510 958 l 481 958 q 407 920 428 958 q 386 826 386 882 l 386 589 l 861 589 l 861 826 q 840 920 861 882 q 767 958 819 958 l 758 958 q 738 979 738 958 l 738 1021 q 758 1042 738 1042 l 1185 1042 q 1206 1021 1206 1042 l 1206 979 q 1185 958 1206 958 l 1176 958 q 1103 920 1124 958 q 1083 826 1083 882 l 1083 215 m 624 1282 q 574 1206 604 1243 q 507 1143 544 1168 q 424 1118 469 1118 q 372 1147 389 1118 q 354 1215 354 1176 q 357 1247 354 1233 q 372 1267 360 1261 q 453 1301 418 1285 q 528 1344 489 1318 q 624 1415 568 1371 q 719 1344 681 1371 q 794 1301 758 1318 q 875 1267 829 1285 q 890 1247 888 1261 q 893 1215 893 1233 q 876 1147 893 1176 q 824 1118 860 1118 q 741 1143 779 1118 q 674 1206 703 1168 q 624 1282 644 1243 z "},"Ḥ":{"ha":1247,"x_min":42,"x_max":1206,"o":"m 1083 215 q 1103 122 1083 160 q 1176 83 1124 83 l 1185 83 q 1206 63 1206 83 l 1206 21 q 1185 0 1206 0 l 758 0 q 738 21 738 0 l 738 63 q 758 83 738 83 l 767 83 q 840 122 819 83 q 861 215 861 160 l 861 479 l 386 479 l 386 215 q 407 122 386 160 q 481 83 428 83 l 489 83 q 510 63 510 83 l 510 21 q 489 0 510 0 l 63 0 q 42 21 42 0 l 42 63 q 63 83 42 83 l 71 83 q 144 122 124 83 q 164 215 164 160 l 164 826 q 144 920 164 882 q 71 958 124 958 l 63 958 q 42 979 42 958 l 42 1021 q 63 1042 42 1042 l 489 1042 q 510 1021 510 1042 l 510 979 q 489 958 510 958 l 481 958 q 407 920 428 958 q 386 826 386 882 l 386 589 l 861 589 l 861 826 q 840 920 861 882 q 767 958 819 958 l 758 958 q 738 979 738 958 l 738 1021 q 758 1042 738 1042 l 1185 1042 q 1206 1021 1206 1042 l 1206 979 q 1185 958 1206 958 l 1176 958 q 1103 920 1124 958 q 1083 826 1083 882 l 1083 215 m 624 -92 q 694 -126 660 -92 q 729 -196 729 -161 q 694 -265 729 -231 q 624 -300 660 -300 q 554 -265 590 -300 q 519 -196 519 -232 q 554 -126 519 -161 q 624 -92 589 -92 z "},"I":{"ha":565,"x_min":49,"x_max":517,"o":"m 394 215 q 415 122 394 160 q 488 83 436 83 l 496 83 q 517 63 517 83 l 517 21 q 496 0 517 0 l 69 0 q 49 21 49 0 l 49 63 q 69 83 49 83 l 79 83 q 152 122 132 83 q 172 215 172 160 l 172 826 q 152 920 172 882 q 79 958 132 958 l 69 958 q 49 979 49 958 l 49 1021 q 69 1042 49 1042 l 496 1042 q 517 1021 517 1042 l 517 979 q 496 958 517 958 l 488 958 q 415 920 436 958 q 394 826 394 882 l 394 215 z "},"Ĳ":{"ha":1225,"x_min":49,"x_max":1190,"o":"m 394 215 q 415 122 394 160 q 488 83 436 83 l 496 83 q 517 63 517 83 l 517 21 q 496 0 517 0 l 69 0 q 49 21 49 0 l 49 63 q 69 83 49 83 l 79 83 q 152 122 132 83 q 172 215 172 160 l 172 826 q 152 920 172 882 q 79 958 132 958 l 69 958 q 49 979 49 958 l 49 1021 q 69 1042 49 1042 l 496 1042 q 517 1021 517 1042 l 517 979 q 496 958 517 958 l 488 958 q 415 920 436 958 q 394 826 394 882 l 394 215 m 1169 1042 q 1190 1021 1190 1042 l 1190 979 q 1169 958 1190 958 l 1161 958 q 1088 919 1108 958 q 1067 826 1067 881 l 1067 303 q 1052 186 1067 243 q 1003 83 1038 129 q 910 9 969 36 q 761 -18 851 -18 q 640 5 689 -18 q 560 61 590 28 q 517 125 531 94 q 503 171 503 156 q 525 204 503 192 l 654 274 q 674 281 667 281 q 688 263 688 281 q 685 239 688 251 q 683 203 683 226 q 689 148 683 178 q 711 97 694 118 q 761 75 728 75 q 824 105 803 75 q 846 178 846 135 l 846 826 q 825 920 846 882 q 751 958 804 958 l 742 958 q 721 979 721 958 l 721 1021 q 742 1042 721 1042 l 1169 1042 z "},"Í":{"ha":565,"x_min":49,"x_max":517,"o":"m 394 215 q 415 122 394 160 q 488 83 436 83 l 496 83 q 517 63 517 83 l 517 21 q 496 0 517 0 l 69 0 q 49 21 49 0 l 49 63 q 69 83 49 83 l 79 83 q 152 122 132 83 q 172 215 172 160 l 172 826 q 152 920 172 882 q 79 958 132 958 l 69 958 q 49 979 49 958 l 49 1021 q 69 1042 49 1042 l 496 1042 q 517 1021 517 1042 l 517 979 q 496 958 517 958 l 488 958 q 415 920 436 958 q 394 826 394 882 l 394 215 m 185 1150 q 255 1246 229 1207 q 298 1320 281 1285 q 333 1400 315 1356 q 355 1416 339 1413 q 385 1419 371 1419 q 453 1402 425 1419 q 482 1349 482 1385 q 448 1253 482 1296 q 366 1180 414 1211 q 275 1129 318 1149 q 263 1124 269 1126 q 250 1121 257 1121 q 236 1125 244 1121 l 185 1150 z "},"Ĭ":{"ha":565,"x_min":49,"x_max":517,"o":"m 394 215 q 415 122 394 160 q 488 83 436 83 l 496 83 q 517 63 517 83 l 517 21 q 496 0 517 0 l 69 0 q 49 21 49 0 l 49 63 q 69 83 49 83 l 79 83 q 152 122 132 83 q 172 215 172 160 l 172 826 q 152 920 172 882 q 79 958 132 958 l 69 958 q 49 979 49 958 l 49 1021 q 69 1042 49 1042 l 496 1042 q 517 1021 517 1042 l 517 979 q 496 958 517 958 l 488 958 q 415 920 436 958 q 394 826 394 882 l 394 215 m 163 1378 q 185 1357 181 1378 q 216 1290 194 1314 q 283 1267 238 1267 q 351 1290 329 1267 q 382 1357 372 1314 q 404 1378 386 1378 q 442 1374 415 1378 q 490 1368 469 1371 q 507 1361 500 1367 q 514 1344 514 1356 q 486 1265 514 1310 q 407 1187 458 1219 q 283 1154 356 1154 q 160 1187 213 1154 q 81 1265 108 1219 q 53 1344 53 1310 q 60 1361 53 1356 q 76 1368 67 1367 q 124 1374 97 1371 q 163 1378 151 1378 z "},"Î":{"ha":565,"x_min":14,"x_max":553,"o":"m 394 215 q 415 122 394 160 q 488 83 436 83 l 496 83 q 517 63 517 83 l 517 21 q 496 0 517 0 l 69 0 q 49 21 49 0 l 49 63 q 69 83 49 83 l 79 83 q 152 122 132 83 q 172 215 172 160 l 172 826 q 152 920 172 882 q 79 958 132 958 l 69 958 q 49 979 49 958 l 49 1021 q 69 1042 49 1042 l 496 1042 q 517 1021 517 1042 l 517 979 q 496 958 517 958 l 488 958 q 415 920 436 958 q 394 826 394 882 l 394 215 m 283 1282 q 234 1206 264 1243 q 167 1143 204 1168 q 83 1118 129 1118 q 31 1147 49 1118 q 14 1215 14 1176 q 17 1247 14 1233 q 32 1267 19 1261 q 113 1301 78 1285 q 188 1344 149 1318 q 283 1415 228 1371 q 379 1344 340 1371 q 453 1301 418 1318 q 535 1267 489 1285 q 550 1247 547 1261 q 553 1215 553 1233 q 536 1147 553 1176 q 483 1118 519 1118 q 401 1143 439 1118 q 333 1206 363 1168 q 283 1282 304 1243 z "},"Ï":{"ha":565,"x_min":18,"x_max":550,"o":"m 394 215 q 415 122 394 160 q 488 83 436 83 l 496 83 q 517 63 517 83 l 517 21 q 496 0 517 0 l 69 0 q 49 21 49 0 l 49 63 q 69 83 49 83 l 79 83 q 152 122 132 83 q 172 215 172 160 l 172 826 q 152 920 172 882 q 79 958 132 958 l 69 958 q 49 979 49 958 l 49 1021 q 69 1042 49 1042 l 496 1042 q 517 1021 517 1042 l 517 979 q 496 958 517 958 l 488 958 q 415 920 436 958 q 394 826 394 882 l 394 215 m 122 1375 q 192 1340 157 1375 q 226 1271 226 1306 q 192 1201 226 1236 q 122 1167 157 1167 q 53 1201 88 1167 q 18 1271 18 1236 q 26 1306 18 1290 q 53 1340 35 1321 q 122 1375 86 1375 m 444 1375 q 515 1340 481 1375 q 550 1271 550 1306 q 515 1201 550 1236 q 444 1167 481 1167 q 375 1201 410 1167 q 340 1271 340 1236 q 375 1340 340 1306 q 444 1375 410 1375 z "},"Ḯ":{"ha":565,"x_min":18,"x_max":550,"o":"m 394 215 q 415 122 394 160 q 488 83 436 83 l 496 83 q 517 63 517 83 l 517 21 q 496 0 517 0 l 69 0 q 49 21 49 0 l 49 63 q 69 83 49 83 l 79 83 q 152 122 132 83 q 172 215 172 160 l 172 826 q 152 920 172 882 q 79 958 132 958 l 69 958 q 49 979 49 958 l 49 1021 q 69 1042 49 1042 l 496 1042 q 517 1021 517 1042 l 517 979 q 496 958 517 958 l 488 958 q 415 920 436 958 q 394 826 394 882 l 394 215 m 122 1375 q 192 1340 157 1375 q 226 1271 226 1306 q 192 1201 226 1236 q 122 1167 157 1167 q 53 1201 88 1167 q 18 1271 18 1236 q 26 1306 18 1290 q 53 1340 35 1321 q 122 1375 86 1375 m 444 1375 q 515 1340 481 1375 q 550 1271 550 1306 q 515 1201 550 1236 q 444 1167 481 1167 q 375 1201 410 1167 q 340 1271 340 1236 q 375 1340 340 1306 q 444 1375 410 1375 m 185 1442 q 255 1538 229 1499 q 298 1612 281 1576 q 333 1692 315 1647 q 355 1708 339 1704 q 385 1711 371 1711 q 453 1694 425 1711 q 482 1640 482 1676 q 448 1545 482 1588 q 366 1472 414 1503 q 275 1421 318 1440 q 263 1415 269 1418 q 250 1413 257 1413 q 236 1417 244 1413 l 185 1442 z "},"İ":{"ha":565,"x_min":49,"x_max":517,"o":"m 394 215 q 415 122 394 160 q 488 83 436 83 l 496 83 q 517 63 517 83 l 517 21 q 496 0 517 0 l 69 0 q 49 21 49 0 l 49 63 q 69 83 49 83 l 79 83 q 152 122 132 83 q 172 215 172 160 l 172 826 q 152 920 172 882 q 79 958 132 958 l 69 958 q 49 979 49 958 l 49 1021 q 69 1042 49 1042 l 496 1042 q 517 1021 517 1042 l 517 979 q 496 958 517 958 l 488 958 q 415 920 436 958 q 394 826 394 882 l 394 215 m 283 1375 q 354 1340 319 1375 q 389 1271 389 1306 q 354 1201 389 1236 q 283 1167 319 1167 q 214 1201 250 1167 q 179 1271 179 1235 q 214 1340 179 1306 q 283 1375 249 1375 z "},"Ị":{"ha":565,"x_min":49,"x_max":517,"o":"m 394 215 q 415 122 394 160 q 488 83 436 83 l 496 83 q 517 63 517 83 l 517 21 q 496 0 517 0 l 69 0 q 49 21 49 0 l 49 63 q 69 83 49 83 l 79 83 q 152 122 132 83 q 172 215 172 160 l 172 826 q 152 920 172 882 q 79 958 132 958 l 69 958 q 49 979 49 958 l 49 1021 q 69 1042 49 1042 l 496 1042 q 517 1021 517 1042 l 517 979 q 496 958 517 958 l 488 958 q 415 920 436 958 q 394 826 394 882 l 394 215 m 283 -92 q 354 -126 319 -92 q 389 -196 389 -161 q 354 -265 389 -231 q 283 -300 319 -300 q 214 -265 250 -300 q 179 -196 179 -232 q 214 -126 179 -161 q 283 -92 249 -92 z "},"Ì":{"ha":565,"x_min":49,"x_max":517,"o":"m 394 215 q 415 122 394 160 q 488 83 436 83 l 496 83 q 517 63 517 83 l 517 21 q 496 0 517 0 l 69 0 q 49 21 49 0 l 49 63 q 69 83 49 83 l 79 83 q 152 122 132 83 q 172 215 172 160 l 172 826 q 152 920 172 882 q 79 958 132 958 l 69 958 q 49 979 49 958 l 49 1021 q 69 1042 49 1042 l 496 1042 q 517 1021 517 1042 l 517 979 q 496 958 517 958 l 488 958 q 415 920 436 958 q 394 826 394 882 l 394 215 m 392 1150 l 340 1125 q 326 1121 332 1121 q 315 1124 321 1121 q 301 1129 308 1126 q 210 1180 258 1149 q 128 1253 163 1211 q 94 1349 94 1296 q 124 1402 94 1385 q 192 1419 153 1419 q 222 1416 207 1419 q 243 1400 238 1413 q 279 1320 263 1356 q 322 1246 296 1285 q 392 1150 347 1207 z "},"Ī":{"ha":565,"x_min":49,"x_max":517,"o":"m 394 215 q 415 122 394 160 q 488 83 436 83 l 496 83 q 517 63 517 83 l 517 21 q 496 0 517 0 l 69 0 q 49 21 49 0 l 49 63 q 69 83 49 83 l 79 83 q 152 122 132 83 q 172 215 172 160 l 172 826 q 152 920 172 882 q 79 958 132 958 l 69 958 q 49 979 49 958 l 49 1021 q 69 1042 49 1042 l 496 1042 q 517 1021 517 1042 l 517 979 q 496 958 517 958 l 488 958 q 415 920 436 958 q 394 826 394 882 l 394 215 m 490 1222 q 469 1201 490 1201 l 97 1201 q 76 1222 76 1201 l 76 1306 q 97 1326 76 1326 l 469 1326 q 490 1306 490 1326 l 490 1222 z "},"Į":{"ha":565,"x_min":49,"x_max":606,"o":"m 394 215 q 415 122 394 160 q 488 83 436 83 l 496 83 q 517 63 517 83 l 517 21 q 496 0 517 0 l 69 0 q 49 21 49 0 l 49 63 q 69 83 49 83 l 79 83 q 152 122 132 83 q 172 215 172 160 l 172 826 q 152 920 172 882 q 79 958 132 958 l 69 958 q 49 979 49 958 l 49 1021 q 69 1042 49 1042 l 496 1042 q 517 1021 517 1042 l 517 979 q 496 958 517 958 l 488 958 q 415 920 436 958 q 394 826 394 882 l 394 215 m 507 25 q 513 10 513 17 q 496 0 513 0 q 469 -6 490 0 q 422 -27 447 -12 q 379 -67 397 -42 q 361 -131 361 -93 q 390 -212 361 -179 q 472 -244 419 -244 q 522 -235 497 -244 q 567 -217 547 -226 q 593 -208 586 -208 q 606 -225 606 -208 l 606 -281 q 596 -303 606 -297 q 443 -351 515 -351 q 319 -317 368 -351 q 247 -235 271 -283 q 224 -146 224 -187 q 253 -40 224 -82 q 326 26 283 1 q 406 60 368 50 q 460 69 444 69 q 483 57 474 69 l 507 25 z "},"Ĩ":{"ha":565,"x_min":40,"x_max":526,"o":"m 394 215 q 415 122 394 160 q 488 83 436 83 l 496 83 q 517 63 517 83 l 517 21 q 496 0 517 0 l 69 0 q 49 21 49 0 l 49 63 q 69 83 49 83 l 79 83 q 152 122 132 83 q 172 215 172 160 l 172 826 q 152 920 172 882 q 79 958 132 958 l 69 958 q 49 979 49 958 l 49 1021 q 69 1042 49 1042 l 496 1042 q 517 1021 517 1042 l 517 979 q 496 958 517 958 l 488 958 q 415 920 436 958 q 394 826 394 882 l 394 215 m 329 1282 q 374 1243 353 1243 q 394 1253 389 1243 q 400 1275 400 1264 q 395 1305 400 1290 q 379 1333 390 1319 q 412 1362 390 1347 q 456 1376 433 1376 q 485 1361 468 1376 q 514 1322 501 1346 q 526 1269 526 1297 q 485 1163 526 1201 q 390 1124 443 1124 q 313 1139 343 1124 q 266 1176 283 1154 q 238 1217 249 1199 q 215 1247 225 1239 q 193 1256 204 1256 q 173 1245 179 1256 q 167 1224 167 1235 q 172 1195 167 1210 q 188 1165 176 1181 q 155 1137 176 1151 q 110 1122 133 1122 q 82 1138 99 1122 q 53 1177 65 1153 q 40 1228 40 1201 q 83 1336 40 1297 q 176 1375 125 1375 q 255 1359 225 1375 q 302 1322 285 1343 q 329 1282 319 1300 z "},"J":{"ha":729,"x_min":7,"x_max":694,"o":"m 674 1042 q 694 1021 694 1042 l 694 979 q 674 958 694 958 l 665 958 q 592 919 613 958 q 571 826 571 881 l 571 303 q 556 186 571 243 q 508 83 542 129 q 415 9 474 36 q 265 -18 356 -18 q 144 5 193 -18 q 65 61 94 28 q 21 125 35 94 q 7 171 7 156 q 29 204 7 192 l 158 274 q 178 281 171 281 q 192 263 192 281 q 190 239 192 251 q 188 203 188 226 q 193 148 188 178 q 215 97 199 118 q 265 75 232 75 q 328 105 307 75 q 350 178 350 135 l 350 826 q 329 920 350 882 q 256 958 308 958 l 246 958 q 225 979 225 958 l 225 1021 q 246 1042 225 1042 l 674 1042 z "},"Ĵ":{"ha":729,"x_min":7,"x_max":729,"o":"m 674 1042 q 694 1021 694 1042 l 694 979 q 674 958 694 958 l 665 958 q 592 919 613 958 q 571 826 571 881 l 571 303 q 556 186 571 243 q 508 83 542 129 q 415 9 474 36 q 265 -18 356 -18 q 144 5 193 -18 q 65 61 94 28 q 21 125 35 94 q 7 171 7 156 q 29 204 7 192 l 158 274 q 178 281 171 281 q 192 263 192 281 q 190 239 192 251 q 188 203 188 226 q 193 148 188 178 q 215 97 199 118 q 265 75 232 75 q 328 105 307 75 q 350 178 350 135 l 350 826 q 329 920 350 882 q 256 958 308 958 l 246 958 q 225 979 225 958 l 225 1021 q 246 1042 225 1042 l 674 1042 m 460 1282 q 410 1206 440 1243 q 343 1143 381 1168 q 260 1118 306 1118 q 208 1147 225 1118 q 190 1215 190 1176 q 193 1247 190 1233 q 208 1267 196 1261 q 290 1301 254 1285 q 365 1344 325 1318 q 460 1415 404 1371 q 556 1344 517 1371 q 630 1301 594 1318 q 711 1267 665 1285 q 726 1247 724 1261 q 729 1215 729 1233 q 713 1147 729 1176 q 660 1118 696 1118 q 577 1143 615 1118 q 510 1206 539 1168 q 460 1282 481 1243 z "},"K":{"ha":1108,"x_min":42,"x_max":1097,"o":"m 1076 83 q 1097 63 1097 83 l 1097 21 q 1076 0 1097 0 l 650 0 q 629 21 629 0 l 629 63 q 650 83 629 83 l 658 83 q 713 101 692 83 q 733 149 733 119 q 708 215 733 181 l 506 501 l 388 374 l 388 215 q 481 83 388 83 l 489 83 q 510 63 510 83 l 510 21 q 489 0 510 0 l 63 0 q 42 21 42 0 l 42 63 q 63 83 42 83 l 72 83 q 165 215 165 83 l 165 826 q 74 958 165 958 l 63 958 q 42 979 42 958 l 42 1021 q 63 1042 42 1042 l 490 1042 q 511 1021 511 1042 l 511 979 q 490 958 511 958 l 481 958 q 388 825 388 958 l 388 551 l 703 900 q 714 917 711 908 q 717 933 717 926 q 689 958 717 958 l 660 958 q 642 979 642 958 l 642 1021 q 663 1042 642 1042 l 1014 1042 q 1035 1021 1035 1042 l 1035 979 q 1017 958 1035 958 l 1000 958 q 928 940 958 958 q 846 867 897 922 l 642 647 l 931 215 q 982 140 963 167 q 1014 101 1001 113 q 1038 86 1026 89 q 1068 83 1050 83 l 1076 83 z "},"Ķ":{"ha":1108,"x_min":42,"x_max":1097,"o":"m 1076 83 q 1097 63 1097 83 l 1097 21 q 1076 0 1097 0 l 650 0 q 629 21 629 0 l 629 63 q 650 83 629 83 l 658 83 q 713 101 692 83 q 733 149 733 119 q 708 215 733 181 l 506 501 l 388 374 l 388 215 q 481 83 388 83 l 489 83 q 510 63 510 83 l 510 21 q 489 0 510 0 l 63 0 q 42 21 42 0 l 42 63 q 63 83 42 83 l 72 83 q 165 215 165 83 l 165 826 q 74 958 165 958 l 63 958 q 42 979 42 958 l 42 1021 q 63 1042 42 1042 l 490 1042 q 511 1021 511 1042 l 511 979 q 490 958 511 958 l 481 958 q 388 825 388 958 l 388 551 l 703 900 q 714 917 711 908 q 717 933 717 926 q 689 958 717 958 l 660 958 q 642 979 642 958 l 642 1021 q 663 1042 642 1042 l 1014 1042 q 1035 1021 1035 1042 l 1035 979 q 1017 958 1035 958 l 1000 958 q 928 940 958 958 q 846 867 897 922 l 642 647 l 931 215 q 982 140 963 167 q 1014 101 1001 113 q 1038 86 1026 89 q 1068 83 1050 83 l 1076 83 m 642 -150 q 657 -173 651 -160 q 663 -206 663 -186 q 662 -219 663 -211 q 660 -235 661 -226 q 631 -297 654 -264 q 578 -358 607 -329 q 526 -404 550 -386 q 493 -422 501 -422 q 483 -419 489 -422 q 454 -407 476 -417 q 512 -346 490 -379 q 533 -289 533 -312 q 524 -267 533 -276 l 485 -228 q 467 -189 467 -207 q 485 -150 467 -171 l 524 -111 q 564 -92 543 -92 q 603 -111 581 -92 l 642 -150 z "},"L":{"ha":971,"x_min":42,"x_max":957,"o":"m 944 297 q 957 281 957 292 q 956 277 957 279 q 953 268 956 275 l 822 -7 q 806 -19 817 -19 q 799 -17 803 -19 q 786 -7 794 -15 q 758 0 779 0 l 63 0 q 42 21 42 0 l 42 63 q 63 83 42 83 q 165 215 165 83 l 165 825 q 63 957 165 957 q 42 978 42 957 l 42 1019 q 63 1042 42 1042 l 483 1042 q 510 1019 510 1042 l 510 978 q 485 957 510 957 l 386 957 l 386 231 q 482 99 386 99 l 536 99 q 722 142 638 99 q 867 307 807 186 l 871 315 q 888 328 878 328 q 900 324 894 328 l 944 297 z "},"Ĺ":{"ha":971,"x_min":42,"x_max":957,"o":"m 944 297 q 957 281 957 292 q 956 277 957 279 q 953 268 956 275 l 822 -7 q 806 -19 817 -19 q 799 -17 803 -19 q 786 -7 794 -15 q 758 0 779 0 l 63 0 q 42 21 42 0 l 42 63 q 63 83 42 83 q 165 215 165 83 l 165 825 q 63 957 165 957 q 42 978 42 957 l 42 1019 q 63 1042 42 1042 l 483 1042 q 510 1019 510 1042 l 510 978 q 485 957 510 957 l 386 957 l 386 231 q 482 99 386 99 l 536 99 q 722 142 638 99 q 867 307 807 186 l 871 315 q 888 328 878 328 q 900 324 894 328 l 944 297 m 176 1150 q 247 1246 221 1207 q 290 1320 272 1285 q 325 1400 307 1356 q 347 1416 331 1413 q 376 1419 363 1419 q 445 1402 417 1419 q 474 1349 474 1385 q 440 1253 474 1296 q 358 1180 406 1211 q 267 1129 310 1149 q 255 1124 261 1126 q 242 1121 249 1121 q 228 1125 236 1121 l 176 1150 z "},"Ľ":{"ha":971,"x_min":42,"x_max":957,"o":"m 944 297 q 957 281 957 292 q 956 277 957 279 q 953 268 956 275 l 822 -7 q 806 -19 817 -19 q 799 -17 803 -19 q 786 -7 794 -15 q 758 0 779 0 l 63 0 q 42 21 42 0 l 42 63 q 63 83 42 83 q 165 215 165 83 l 165 825 q 63 957 165 957 q 42 978 42 957 l 42 1019 q 63 1042 42 1042 l 483 1042 q 510 1019 510 1042 l 510 978 q 485 957 510 957 l 386 957 l 386 231 q 482 99 386 99 l 536 99 q 722 142 638 99 q 867 307 807 186 l 871 315 q 888 328 878 328 q 900 324 894 328 l 944 297 m 606 667 q 617 728 613 690 q 621 810 621 767 q 619 863 621 836 q 614 917 617 890 l 614 921 q 626 943 614 935 q 672 968 647 958 q 717 978 696 978 q 756 965 740 978 q 771 919 771 951 q 759 842 771 889 q 727 751 747 796 q 682 679 707 707 q 673 672 678 674 q 661 669 668 671 l 606 667 z "},"Ļ":{"ha":971,"x_min":42,"x_max":957,"o":"m 944 297 q 957 281 957 292 q 956 277 957 279 q 953 268 956 275 l 822 -7 q 806 -19 817 -19 q 799 -17 803 -19 q 786 -7 794 -15 q 758 0 779 0 l 63 0 q 42 21 42 0 l 42 63 q 63 83 42 83 q 165 215 165 83 l 165 825 q 63 957 165 957 q 42 978 42 957 l 42 1019 q 63 1042 42 1042 l 483 1042 q 510 1019 510 1042 l 510 978 q 485 957 510 957 l 386 957 l 386 231 q 482 99 386 99 l 536 99 q 722 142 638 99 q 867 307 807 186 l 871 315 q 888 328 878 328 q 900 324 894 328 l 944 297 m 575 -150 q 590 -173 585 -160 q 596 -206 596 -186 q 595 -219 596 -211 q 593 -235 594 -226 q 564 -297 588 -264 q 512 -358 540 -329 q 459 -404 483 -386 q 426 -422 435 -422 q 416 -419 422 -422 q 388 -407 410 -417 q 445 -346 424 -379 q 467 -289 467 -312 q 457 -267 467 -276 l 418 -228 q 400 -189 400 -207 q 418 -150 400 -171 l 457 -111 q 497 -92 476 -92 q 536 -111 514 -92 l 575 -150 z "},"Ŀ":{"ha":933,"x_min":42,"x_max":957,"o":"m 944 297 q 957 281 957 292 q 956 277 957 279 q 953 268 956 275 l 822 -7 q 806 -19 817 -19 q 799 -17 803 -19 q 786 -7 794 -15 q 758 0 779 0 l 63 0 q 42 21 42 0 l 42 63 q 63 83 42 83 q 165 215 165 83 l 165 825 q 63 957 165 957 q 42 978 42 957 l 42 1019 q 63 1042 42 1042 l 483 1042 q 510 1019 510 1042 l 510 978 q 485 957 510 957 l 386 957 l 386 231 q 482 99 386 99 l 536 99 q 722 142 638 99 q 867 307 807 186 l 871 315 q 888 328 878 328 q 900 324 894 328 l 944 297 m 718 676 q 771 703 744 703 q 825 676 799 703 l 879 622 q 906 568 906 596 q 879 514 906 540 l 825 460 q 771 433 799 433 q 718 460 744 433 l 663 514 q 638 568 638 539 q 663 622 638 597 l 718 676 z "},"Ḷ":{"ha":971,"x_min":42,"x_max":957,"o":"m 944 297 q 957 281 957 292 q 956 277 957 279 q 953 268 956 275 l 822 -7 q 806 -19 817 -19 q 799 -17 803 -19 q 786 -7 794 -15 q 758 0 779 0 l 63 0 q 42 21 42 0 l 42 63 q 63 83 42 83 q 165 215 165 83 l 165 825 q 63 957 165 957 q 42 978 42 957 l 42 1019 q 63 1042 42 1042 l 483 1042 q 510 1019 510 1042 l 510 978 q 485 957 510 957 l 386 957 l 386 231 q 482 99 386 99 l 536 99 q 722 142 638 99 q 867 307 807 186 l 871 315 q 888 328 878 328 q 900 324 894 328 l 944 297 m 499 -92 q 569 -126 535 -92 q 604 -196 604 -161 q 569 -265 604 -231 q 499 -300 535 -300 q 429 -265 465 -300 q 394 -196 394 -232 q 429 -126 394 -161 q 499 -92 464 -92 z "},"Ḻ":{"ha":971,"x_min":42,"x_max":957,"o":"m 944 297 q 957 281 957 292 q 956 277 957 279 q 953 268 956 275 l 822 -7 q 806 -19 817 -19 q 799 -17 803 -19 q 786 -7 794 -15 q 758 0 779 0 l 63 0 q 42 21 42 0 l 42 63 q 63 83 42 83 q 165 215 165 83 l 165 825 q 63 957 165 957 q 42 978 42 957 l 42 1019 q 63 1042 42 1042 l 483 1042 q 510 1019 510 1042 l 510 978 q 485 957 510 957 l 386 957 l 386 231 q 482 99 386 99 l 536 99 q 722 142 638 99 q 867 307 807 186 l 871 315 q 888 328 878 328 q 900 324 894 328 l 944 297 m 706 -189 q 685 -210 706 -210 l 313 -210 q 292 -189 292 -210 l 292 -106 q 313 -85 292 -85 l 685 -85 q 706 -106 706 -85 l 706 -189 z "},"Ł":{"ha":985,"x_min":17,"x_max":957,"o":"m 550 749 q 563 751 558 751 q 575 732 575 751 l 575 621 q 560 597 575 603 l 386 532 l 386 231 q 482 99 386 99 l 536 99 q 722 142 638 99 q 867 307 807 186 l 871 315 q 888 328 878 328 q 900 324 894 328 l 944 297 q 957 281 957 292 q 956 277 957 279 q 953 268 956 275 l 822 -7 q 806 -19 817 -19 q 799 -17 803 -19 q 786 -7 794 -15 q 758 0 779 0 l 63 0 q 42 21 42 0 l 42 63 q 63 83 42 83 q 165 215 165 83 l 165 449 l 42 401 q 29 399 33 399 q 17 418 17 399 l 17 529 q 32 553 17 547 l 165 603 l 165 825 q 63 957 165 957 q 42 978 42 957 l 42 1019 q 63 1042 42 1042 l 483 1042 q 510 1019 510 1042 l 510 978 q 485 957 510 957 l 386 957 l 386 686 l 550 749 z "},"M":{"ha":1439,"x_min":42,"x_max":1397,"o":"m 1274 215 q 1299 122 1274 160 q 1376 83 1325 83 q 1397 63 1397 83 l 1397 21 q 1376 0 1397 0 l 1033 0 q 1013 21 1013 0 l 1013 63 q 1033 83 1013 83 q 1110 122 1085 83 q 1135 215 1135 160 l 1135 742 l 807 78 q 783 63 800 63 l 656 63 q 631 78 639 63 l 304 742 l 304 215 q 329 122 304 160 q 406 83 354 83 q 426 63 426 83 l 426 21 q 406 0 426 0 l 63 0 q 42 21 42 0 l 42 63 q 63 83 42 83 q 140 122 114 83 q 165 215 165 160 l 165 938 q 124 953 146 949 q 79 958 103 958 q 58 979 58 958 l 58 1021 q 79 1042 58 1042 l 340 1042 q 365 1029 360 1042 l 719 313 l 1074 1029 q 1099 1042 1079 1042 l 1360 1042 q 1381 1021 1381 1042 l 1381 979 q 1360 958 1381 958 q 1315 953 1338 958 q 1274 938 1293 949 l 1274 215 z "},"Ṃ":{"ha":1439,"x_min":42,"x_max":1397,"o":"m 1274 215 q 1299 122 1274 160 q 1376 83 1325 83 q 1397 63 1397 83 l 1397 21 q 1376 0 1397 0 l 1033 0 q 1013 21 1013 0 l 1013 63 q 1033 83 1013 83 q 1110 122 1085 83 q 1135 215 1135 160 l 1135 742 l 807 78 q 783 63 800 63 l 656 63 q 631 78 639 63 l 304 742 l 304 215 q 329 122 304 160 q 406 83 354 83 q 426 63 426 83 l 426 21 q 406 0 426 0 l 63 0 q 42 21 42 0 l 42 63 q 63 83 42 83 q 140 122 114 83 q 165 215 165 160 l 165 938 q 124 953 146 949 q 79 958 103 958 q 58 979 58 958 l 58 1021 q 79 1042 58 1042 l 340 1042 q 365 1029 360 1042 l 719 313 l 1074 1029 q 1099 1042 1079 1042 l 1360 1042 q 1381 1021 1381 1042 l 1381 979 q 1360 958 1381 958 q 1315 953 1338 958 q 1274 938 1293 949 l 1274 215 m 719 -92 q 790 -126 756 -92 q 825 -196 825 -161 q 790 -265 825 -231 q 719 -300 756 -300 q 650 -265 686 -300 q 615 -196 615 -232 q 650 -126 615 -161 q 719 -92 685 -92 z "},"N":{"ha":1238,"x_min":42,"x_max":1224,"o":"m 1203 1042 q 1224 1021 1224 1042 l 1224 979 q 1203 958 1224 958 q 1126 921 1151 958 q 1101 826 1101 883 l 1101 21 q 1081 0 1101 0 l 985 0 q 960 13 971 0 l 303 768 l 303 215 q 328 122 303 160 q 406 83 354 83 q 426 63 426 83 l 426 21 q 406 0 426 0 l 63 0 q 42 21 42 0 l 42 63 q 63 83 42 83 q 139 122 114 83 q 164 215 164 160 l 164 924 q 123 950 143 942 q 76 958 103 958 q 56 979 56 958 l 56 1021 q 76 1042 56 1042 l 317 1042 q 342 1029 332 1042 l 963 321 l 963 826 q 937 921 963 883 q 860 958 911 958 q 839 979 839 958 l 839 1021 q 860 1042 839 1042 l 1203 1042 z "},"Ń":{"ha":1238,"x_min":42,"x_max":1224,"o":"m 1203 1042 q 1224 1021 1224 1042 l 1224 979 q 1203 958 1224 958 q 1126 921 1151 958 q 1101 826 1101 883 l 1101 21 q 1081 0 1101 0 l 985 0 q 960 13 971 0 l 303 768 l 303 215 q 328 122 303 160 q 406 83 354 83 q 426 63 426 83 l 426 21 q 406 0 426 0 l 63 0 q 42 21 42 0 l 42 63 q 63 83 42 83 q 139 122 114 83 q 164 215 164 160 l 164 924 q 123 950 143 942 q 76 958 103 958 q 56 979 56 958 l 56 1021 q 76 1042 56 1042 l 317 1042 q 342 1029 332 1042 l 963 321 l 963 826 q 937 921 963 883 q 860 958 911 958 q 839 979 839 958 l 839 1021 q 860 1042 839 1042 l 1203 1042 m 532 1150 q 602 1246 576 1207 q 645 1320 628 1285 q 681 1400 663 1356 q 702 1416 686 1413 q 732 1419 718 1419 q 801 1402 772 1419 q 829 1349 829 1385 q 795 1253 829 1296 q 713 1180 761 1211 q 622 1129 665 1149 q 610 1124 617 1126 q 597 1121 604 1121 q 583 1125 592 1121 l 532 1150 z "},"Ň":{"ha":1238,"x_min":42,"x_max":1224,"o":"m 1203 1042 q 1224 1021 1224 1042 l 1224 979 q 1203 958 1224 958 q 1126 921 1151 958 q 1101 826 1101 883 l 1101 21 q 1081 0 1101 0 l 985 0 q 960 13 971 0 l 303 768 l 303 215 q 328 122 303 160 q 406 83 354 83 q 426 63 426 83 l 426 21 q 406 0 426 0 l 63 0 q 42 21 42 0 l 42 63 q 63 83 42 83 q 139 122 114 83 q 164 215 164 160 l 164 924 q 123 950 143 942 q 76 958 103 958 q 56 979 56 958 l 56 1021 q 76 1042 56 1042 l 317 1042 q 342 1029 332 1042 l 963 321 l 963 826 q 937 921 963 883 q 860 958 911 958 q 839 979 839 958 l 839 1021 q 860 1042 839 1042 l 1203 1042 m 626 1251 q 676 1328 647 1290 q 744 1390 706 1365 q 826 1415 782 1415 q 879 1387 863 1415 q 896 1318 896 1358 q 893 1286 896 1300 q 878 1267 890 1272 q 797 1233 832 1250 q 722 1189 761 1215 q 626 1118 683 1163 q 531 1189 571 1163 q 456 1233 492 1215 q 375 1267 421 1250 q 360 1286 363 1272 q 357 1318 357 1300 q 374 1387 357 1358 q 426 1415 392 1415 q 510 1390 472 1415 q 577 1328 547 1365 q 626 1251 607 1290 z "},"Ņ":{"ha":1238,"x_min":42,"x_max":1224,"o":"m 1203 1042 q 1224 1021 1224 1042 l 1224 979 q 1203 958 1224 958 q 1126 921 1151 958 q 1101 826 1101 883 l 1101 21 q 1081 0 1101 0 l 985 0 q 960 13 971 0 l 303 768 l 303 215 q 328 122 303 160 q 406 83 354 83 q 426 63 426 83 l 426 21 q 406 0 426 0 l 63 0 q 42 21 42 0 l 42 63 q 63 83 42 83 q 139 122 114 83 q 164 215 164 160 l 164 924 q 123 950 143 942 q 76 958 103 958 q 56 979 56 958 l 56 1021 q 76 1042 56 1042 l 317 1042 q 342 1029 332 1042 l 963 321 l 963 826 q 937 921 963 883 q 860 958 911 958 q 839 979 839 958 l 839 1021 q 860 1042 839 1042 l 1203 1042 m 715 -150 q 731 -173 725 -160 q 736 -206 736 -186 q 735 -219 736 -211 q 733 -235 735 -226 q 704 -297 728 -264 q 652 -358 681 -329 q 599 -404 624 -386 q 567 -422 575 -422 q 556 -419 563 -422 q 528 -407 550 -417 q 585 -346 564 -379 q 607 -289 607 -312 q 597 -267 607 -276 l 558 -228 q 540 -189 540 -207 q 558 -150 540 -171 l 597 -111 q 638 -92 617 -92 q 676 -111 654 -92 l 715 -150 z "},"Ṅ":{"ha":1238,"x_min":42,"x_max":1224,"o":"m 1203 1042 q 1224 1021 1224 1042 l 1224 979 q 1203 958 1224 958 q 1126 921 1151 958 q 1101 826 1101 883 l 1101 21 q 1081 0 1101 0 l 985 0 q 960 13 971 0 l 303 768 l 303 215 q 328 122 303 160 q 406 83 354 83 q 426 63 426 83 l 426 21 q 406 0 426 0 l 63 0 q 42 21 42 0 l 42 63 q 63 83 42 83 q 139 122 114 83 q 164 215 164 160 l 164 924 q 123 950 143 942 q 76 958 103 958 q 56 979 56 958 l 56 1021 q 76 1042 56 1042 l 317 1042 q 342 1029 332 1042 l 963 321 l 963 826 q 937 921 963 883 q 860 958 911 958 q 839 979 839 958 l 839 1021 q 860 1042 839 1042 l 1203 1042 m 631 1375 q 701 1340 667 1375 q 736 1271 736 1306 q 701 1201 736 1236 q 631 1167 667 1167 q 561 1201 597 1167 q 526 1271 526 1235 q 561 1340 526 1306 q 631 1375 596 1375 z "},"Ṇ":{"ha":1238,"x_min":42,"x_max":1224,"o":"m 1203 1042 q 1224 1021 1224 1042 l 1224 979 q 1203 958 1224 958 q 1126 921 1151 958 q 1101 826 1101 883 l 1101 21 q 1081 0 1101 0 l 985 0 q 960 13 971 0 l 303 768 l 303 215 q 328 122 303 160 q 406 83 354 83 q 426 63 426 83 l 426 21 q 406 0 426 0 l 63 0 q 42 21 42 0 l 42 63 q 63 83 42 83 q 139 122 114 83 q 164 215 164 160 l 164 924 q 123 950 143 942 q 76 958 103 958 q 56 979 56 958 l 56 1021 q 76 1042 56 1042 l 317 1042 q 342 1029 332 1042 l 963 321 l 963 826 q 937 921 963 883 q 860 958 911 958 q 839 979 839 958 l 839 1021 q 860 1042 839 1042 l 1203 1042 m 639 -92 q 710 -126 675 -92 q 744 -196 744 -161 q 710 -265 744 -231 q 639 -300 675 -300 q 569 -265 606 -300 q 535 -196 535 -232 q 569 -126 535 -161 q 639 -92 604 -92 z "},"Ɲ":{"ha":1238,"x_min":-1,"x_max":1224,"o":"m 303 0 q 297 -113 303 -60 q 267 -208 290 -167 q 191 -274 243 -250 q 47 -297 139 -297 q 28 -297 38 -297 q 11 -296 19 -297 q -1 -285 -1 -293 q 0 -278 -1 -282 l 15 -225 q 25 -215 18 -215 q 42 -217 32 -215 q 58 -219 51 -219 q 129 -188 107 -219 q 158 -107 151 -157 q 164 0 164 -57 l 164 924 q 123 950 143 942 q 76 958 103 958 q 56 979 56 958 l 56 1021 q 76 1042 56 1042 l 317 1042 q 342 1029 332 1042 l 963 321 l 963 826 q 937 921 963 883 q 860 958 911 958 q 839 979 839 958 l 839 1021 q 860 1042 839 1042 l 1203 1042 q 1224 1021 1224 1042 l 1224 979 q 1203 958 1224 958 q 1126 921 1151 958 q 1101 826 1101 883 l 1101 21 q 1081 0 1101 0 l 985 0 q 960 13 971 0 l 303 768 l 303 0 z "},"Ṉ":{"ha":1238,"x_min":42,"x_max":1224,"o":"m 1203 1042 q 1224 1021 1224 1042 l 1224 979 q 1203 958 1224 958 q 1126 921 1151 958 q 1101 826 1101 883 l 1101 21 q 1081 0 1101 0 l 985 0 q 960 13 971 0 l 303 768 l 303 215 q 328 122 303 160 q 406 83 354 83 q 426 63 426 83 l 426 21 q 406 0 426 0 l 63 0 q 42 21 42 0 l 42 63 q 63 83 42 83 q 139 122 114 83 q 164 215 164 160 l 164 924 q 123 950 143 942 q 76 958 103 958 q 56 979 56 958 l 56 1021 q 76 1042 56 1042 l 317 1042 q 342 1029 332 1042 l 963 321 l 963 826 q 937 921 963 883 q 860 958 911 958 q 839 979 839 958 l 839 1021 q 860 1042 839 1042 l 1203 1042 m 846 -189 q 825 -210 846 -210 l 453 -210 q 432 -189 432 -210 l 432 -106 q 453 -85 432 -85 l 825 -85 q 846 -106 846 -85 l 846 -189 z "},"Ñ":{"ha":1238,"x_min":42,"x_max":1224,"o":"m 1203 1042 q 1224 1021 1224 1042 l 1224 979 q 1203 958 1224 958 q 1126 921 1151 958 q 1101 826 1101 883 l 1101 21 q 1081 0 1101 0 l 985 0 q 960 13 971 0 l 303 768 l 303 215 q 328 122 303 160 q 406 83 354 83 q 426 63 426 83 l 426 21 q 406 0 426 0 l 63 0 q 42 21 42 0 l 42 63 q 63 83 42 83 q 139 122 114 83 q 164 215 164 160 l 164 924 q 123 950 143 942 q 76 958 103 958 q 56 979 56 958 l 56 1021 q 76 1042 56 1042 l 317 1042 q 342 1029 332 1042 l 963 321 l 963 826 q 937 921 963 883 q 860 958 911 958 q 839 979 839 958 l 839 1021 q 860 1042 839 1042 l 1203 1042 m 676 1282 q 721 1243 700 1243 q 742 1253 736 1243 q 747 1275 747 1264 q 742 1305 747 1290 q 726 1333 738 1319 q 759 1362 738 1347 q 803 1376 781 1376 q 832 1361 815 1376 q 861 1322 849 1346 q 874 1269 874 1297 q 832 1163 874 1201 q 738 1124 790 1124 q 660 1139 690 1124 q 613 1176 631 1154 q 585 1217 596 1199 q 562 1247 572 1239 q 540 1256 551 1256 q 520 1245 526 1256 q 514 1224 514 1235 q 519 1195 514 1210 q 535 1165 524 1181 q 502 1137 524 1151 q 457 1122 481 1122 q 429 1138 446 1122 q 400 1177 413 1153 q 388 1228 388 1201 q 430 1336 388 1297 q 524 1375 472 1375 q 602 1359 572 1375 q 649 1322 632 1343 q 676 1282 667 1300 z "},"Ŋ":{"ha":1233,"x_min":42,"x_max":1224,"o":"m 1203 1042 q 1224 1021 1224 1042 l 1224 979 q 1203 958 1224 958 q 1126 921 1151 958 q 1101 826 1101 883 l 1101 21 l 1101 21 q 1089 -95 1101 -39 q 1045 -197 1076 -151 q 956 -270 1014 -243 q 808 -297 899 -297 q 701 -280 744 -297 q 631 -239 657 -262 q 594 -193 606 -215 q 583 -161 583 -171 q 599 -132 583 -143 l 697 -61 q 708 -57 703 -57 q 722 -78 722 -57 q 731 -144 722 -111 q 760 -198 739 -176 q 819 -219 781 -219 q 890 -190 861 -219 q 934 -112 919 -161 q 949 -7 949 -64 l 949 25 l 303 768 l 303 215 q 328 122 303 160 q 406 83 354 83 q 426 63 426 83 l 426 21 q 406 0 426 0 l 63 0 q 42 21 42 0 l 42 63 q 63 83 42 83 q 139 122 114 83 q 164 215 164 160 l 164 924 q 123 950 143 942 q 76 958 103 958 q 56 979 56 958 l 56 1021 q 76 1042 56 1042 l 317 1042 q 342 1029 332 1042 l 963 321 l 963 826 q 937 921 963 883 q 860 958 911 958 q 839 979 839 958 l 839 1021 q 860 1042 839 1042 l 1203 1042 z "},"O":{"ha":1142,"x_min":49,"x_max":1093,"o":"m 563 1058 q 769 1015 672 1058 q 938 897 865 972 q 1052 722 1011 821 q 1093 513 1093 624 q 1053 305 1093 401 q 941 136 1013 208 q 776 23 869 64 q 578 -18 683 -18 q 372 25 468 -18 q 203 144 275 68 q 90 318 131 219 q 49 526 49 417 q 88 731 49 635 q 197 901 126 826 q 360 1017 267 975 q 563 1058 453 1058 m 547 936 q 332 844 408 936 q 256 600 256 751 q 268 472 256 540 q 306 340 281 404 q 372 222 332 275 q 467 138 413 169 q 592 106 521 106 q 752 148 686 106 q 852 266 818 190 q 886 440 886 342 q 874 561 886 494 q 837 694 863 628 q 772 815 811 760 q 676 903 732 869 q 547 936 621 936 z "},"Ó":{"ha":1142,"x_min":49,"x_max":1093,"o":"m 563 1058 q 769 1015 672 1058 q 938 897 865 972 q 1052 722 1011 821 q 1093 513 1093 624 q 1053 305 1093 401 q 941 136 1013 208 q 776 23 869 64 q 578 -18 683 -18 q 372 25 468 -18 q 203 144 275 68 q 90 318 131 219 q 49 526 49 417 q 88 731 49 635 q 197 901 126 826 q 360 1017 267 975 q 563 1058 453 1058 m 547 936 q 332 844 408 936 q 256 600 256 751 q 268 472 256 540 q 306 340 281 404 q 372 222 332 275 q 467 138 413 169 q 592 106 521 106 q 752 148 686 106 q 852 266 818 190 q 886 440 886 342 q 874 561 886 494 q 837 694 863 628 q 772 815 811 760 q 676 903 732 869 q 547 936 621 936 m 474 1150 q 544 1246 518 1207 q 587 1320 569 1285 q 622 1400 604 1356 q 644 1416 628 1413 q 674 1419 660 1419 q 742 1402 714 1419 q 771 1349 771 1385 q 737 1253 771 1296 q 655 1180 703 1211 q 564 1129 607 1149 q 552 1124 558 1126 q 539 1121 546 1121 q 525 1125 533 1121 l 474 1150 z "},"Ŏ":{"ha":1142,"x_min":49,"x_max":1093,"o":"m 563 1058 q 769 1015 672 1058 q 938 897 865 972 q 1052 722 1011 821 q 1093 513 1093 624 q 1053 305 1093 401 q 941 136 1013 208 q 776 23 869 64 q 578 -18 683 -18 q 372 25 468 -18 q 203 144 275 68 q 90 318 131 219 q 49 526 49 417 q 88 731 49 635 q 197 901 126 826 q 360 1017 267 975 q 563 1058 453 1058 m 547 936 q 332 844 408 936 q 256 600 256 751 q 268 472 256 540 q 306 340 281 404 q 372 222 332 275 q 467 138 413 169 q 592 106 521 106 q 752 148 686 106 q 852 266 818 190 q 886 440 886 342 q 874 561 886 494 q 837 694 863 628 q 772 815 811 760 q 676 903 732 869 q 547 936 621 936 m 451 1378 q 474 1357 469 1378 q 505 1290 483 1314 q 572 1267 526 1267 q 640 1290 618 1267 q 671 1357 661 1314 q 693 1378 675 1378 q 731 1374 704 1378 q 779 1368 758 1371 q 796 1361 789 1367 q 803 1344 803 1356 q 775 1265 803 1310 q 696 1187 747 1219 q 572 1154 644 1154 q 449 1187 501 1154 q 369 1265 397 1219 q 342 1344 342 1310 q 349 1361 342 1356 q 365 1368 356 1367 q 413 1374 386 1371 q 451 1378 440 1378 z "},"Ô":{"ha":1142,"x_min":49,"x_max":1093,"o":"m 563 1058 q 769 1015 672 1058 q 938 897 865 972 q 1052 722 1011 821 q 1093 513 1093 624 q 1053 305 1093 401 q 941 136 1013 208 q 776 23 869 64 q 578 -18 683 -18 q 372 25 468 -18 q 203 144 275 68 q 90 318 131 219 q 49 526 49 417 q 88 731 49 635 q 197 901 126 826 q 360 1017 267 975 q 563 1058 453 1058 m 547 936 q 332 844 408 936 q 256 600 256 751 q 268 472 256 540 q 306 340 281 404 q 372 222 332 275 q 467 138 413 169 q 592 106 521 106 q 752 148 686 106 q 852 266 818 190 q 886 440 886 342 q 874 561 886 494 q 837 694 863 628 q 772 815 811 760 q 676 903 732 869 q 547 936 621 936 m 572 1282 q 523 1206 553 1243 q 456 1143 493 1168 q 372 1118 418 1118 q 320 1147 338 1118 q 303 1215 303 1176 q 306 1247 303 1233 q 321 1267 308 1261 q 402 1301 367 1285 q 477 1344 438 1318 q 572 1415 517 1371 q 668 1344 629 1371 q 742 1301 707 1318 q 824 1267 778 1285 q 839 1247 836 1261 q 842 1215 842 1233 q 825 1147 842 1176 q 772 1118 808 1118 q 690 1143 728 1118 q 622 1206 651 1168 q 572 1282 593 1243 z "},"Ö":{"ha":1142,"x_min":49,"x_max":1093,"o":"m 563 1058 q 769 1015 672 1058 q 938 897 865 972 q 1052 722 1011 821 q 1093 513 1093 624 q 1053 305 1093 401 q 941 136 1013 208 q 776 23 869 64 q 578 -18 683 -18 q 372 25 468 -18 q 203 144 275 68 q 90 318 131 219 q 49 526 49 417 q 88 731 49 635 q 197 901 126 826 q 360 1017 267 975 q 563 1058 453 1058 m 547 936 q 332 844 408 936 q 256 600 256 751 q 268 472 256 540 q 306 340 281 404 q 372 222 332 275 q 467 138 413 169 q 592 106 521 106 q 752 148 686 106 q 852 266 818 190 q 886 440 886 342 q 874 561 886 494 q 837 694 863 628 q 772 815 811 760 q 676 903 732 869 q 547 936 621 936 m 411 1375 q 481 1340 446 1375 q 515 1271 515 1306 q 481 1201 515 1236 q 411 1167 446 1167 q 342 1201 376 1167 q 307 1271 307 1236 q 315 1306 307 1290 q 342 1340 324 1321 q 411 1375 375 1375 m 733 1375 q 804 1340 769 1375 q 839 1271 839 1306 q 804 1201 839 1236 q 733 1167 769 1167 q 664 1201 699 1167 q 629 1271 629 1236 q 664 1340 629 1306 q 733 1375 699 1375 z "},"Ọ":{"ha":1142,"x_min":49,"x_max":1093,"o":"m 563 1058 q 769 1015 672 1058 q 938 897 865 972 q 1052 722 1011 821 q 1093 513 1093 624 q 1053 305 1093 401 q 941 136 1013 208 q 776 23 869 64 q 578 -18 683 -18 q 372 25 468 -18 q 203 144 275 68 q 90 318 131 219 q 49 526 49 417 q 88 731 49 635 q 197 901 126 826 q 360 1017 267 975 q 563 1058 453 1058 m 547 936 q 332 844 408 936 q 256 600 256 751 q 268 472 256 540 q 306 340 281 404 q 372 222 332 275 q 467 138 413 169 q 592 106 521 106 q 752 148 686 106 q 852 266 818 190 q 886 440 886 342 q 874 561 886 494 q 837 694 863 628 q 772 815 811 760 q 676 903 732 869 q 547 936 621 936 m 592 -92 q 663 -126 628 -92 q 697 -196 697 -161 q 663 -265 697 -231 q 592 -300 628 -300 q 522 -265 558 -300 q 488 -196 488 -232 q 522 -126 488 -161 q 592 -92 557 -92 z "},"Ò":{"ha":1142,"x_min":49,"x_max":1093,"o":"m 563 1058 q 769 1015 672 1058 q 938 897 865 972 q 1052 722 1011 821 q 1093 513 1093 624 q 1053 305 1093 401 q 941 136 1013 208 q 776 23 869 64 q 578 -18 683 -18 q 372 25 468 -18 q 203 144 275 68 q 90 318 131 219 q 49 526 49 417 q 88 731 49 635 q 197 901 126 826 q 360 1017 267 975 q 563 1058 453 1058 m 547 936 q 332 844 408 936 q 256 600 256 751 q 268 472 256 540 q 306 340 281 404 q 372 222 332 275 q 467 138 413 169 q 592 106 521 106 q 752 148 686 106 q 852 266 818 190 q 886 440 886 342 q 874 561 886 494 q 837 694 863 628 q 772 815 811 760 q 676 903 732 869 q 547 936 621 936 m 681 1150 l 629 1125 q 615 1121 621 1121 q 603 1124 610 1121 q 590 1129 597 1126 q 499 1180 547 1149 q 417 1253 451 1211 q 383 1349 383 1296 q 413 1402 383 1385 q 481 1419 442 1419 q 511 1416 496 1419 q 532 1400 526 1413 q 568 1320 551 1356 q 610 1246 585 1285 q 681 1150 636 1207 z "},"Ő":{"ha":1142,"x_min":49,"x_max":1093,"o":"m 563 1058 q 769 1015 672 1058 q 938 897 865 972 q 1052 722 1011 821 q 1093 513 1093 624 q 1053 305 1093 401 q 941 136 1013 208 q 776 23 869 64 q 578 -18 683 -18 q 372 25 468 -18 q 203 144 275 68 q 90 318 131 219 q 49 526 49 417 q 88 731 49 635 q 197 901 126 826 q 360 1017 267 975 q 563 1058 453 1058 m 547 936 q 332 844 408 936 q 256 600 256 751 q 268 472 256 540 q 306 340 281 404 q 372 222 332 275 q 467 138 413 169 q 592 106 521 106 q 752 148 686 106 q 852 266 818 190 q 886 440 886 342 q 874 561 886 494 q 837 694 863 628 q 772 815 811 760 q 676 903 732 869 q 547 936 621 936 m 403 1142 q 418 1285 418 1192 q 417 1327 418 1303 q 413 1372 415 1351 q 411 1396 411 1392 q 424 1418 411 1408 q 469 1443 446 1433 q 514 1453 493 1453 q 553 1440 538 1453 q 568 1394 568 1426 q 556 1317 568 1364 q 525 1226 544 1271 q 479 1154 506 1182 q 458 1144 471 1144 l 403 1142 m 654 1142 q 669 1285 669 1192 q 668 1327 669 1303 q 665 1372 667 1351 q 663 1396 663 1392 q 675 1418 663 1408 q 721 1443 697 1433 q 765 1453 744 1453 q 804 1440 789 1453 q 819 1394 819 1426 q 808 1317 819 1364 q 776 1226 796 1271 q 731 1154 757 1182 q 710 1144 722 1144 l 654 1142 z "},"Ō":{"ha":1142,"x_min":49,"x_max":1093,"o":"m 563 1058 q 769 1015 672 1058 q 938 897 865 972 q 1052 722 1011 821 q 1093 513 1093 624 q 1053 305 1093 401 q 941 136 1013 208 q 776 23 869 64 q 578 -18 683 -18 q 372 25 468 -18 q 203 144 275 68 q 90 318 131 219 q 49 526 49 417 q 88 731 49 635 q 197 901 126 826 q 360 1017 267 975 q 563 1058 453 1058 m 547 936 q 332 844 408 936 q 256 600 256 751 q 268 472 256 540 q 306 340 281 404 q 372 222 332 275 q 467 138 413 169 q 592 106 521 106 q 752 148 686 106 q 852 266 818 190 q 886 440 886 342 q 874 561 886 494 q 837 694 863 628 q 772 815 811 760 q 676 903 732 869 q 547 936 621 936 m 779 1222 q 758 1201 779 1201 l 386 1201 q 365 1222 365 1201 l 365 1306 q 386 1326 365 1326 l 758 1326 q 779 1306 779 1326 l 779 1222 z "},"Ṓ":{"ha":1142,"x_min":49,"x_max":1093,"o":"m 563 1058 q 769 1015 672 1058 q 938 897 865 972 q 1052 722 1011 821 q 1093 513 1093 624 q 1053 305 1093 401 q 941 136 1013 208 q 776 23 869 64 q 578 -18 683 -18 q 372 25 468 -18 q 203 144 275 68 q 90 318 131 219 q 49 526 49 417 q 88 731 49 635 q 197 901 126 826 q 360 1017 267 975 q 563 1058 453 1058 m 547 936 q 332 844 408 936 q 256 600 256 751 q 268 472 256 540 q 306 340 281 404 q 372 222 332 275 q 467 138 413 169 q 592 106 521 106 q 752 148 686 106 q 852 266 818 190 q 886 440 886 342 q 874 561 886 494 q 837 694 863 628 q 772 815 811 760 q 676 903 732 869 q 547 936 621 936 m 779 1222 q 758 1201 779 1201 l 386 1201 q 365 1222 365 1201 l 365 1306 q 386 1326 365 1326 l 758 1326 q 779 1306 779 1326 l 779 1222 m 474 1442 q 544 1538 518 1499 q 587 1612 569 1576 q 622 1692 604 1647 q 644 1708 628 1704 q 674 1711 660 1711 q 742 1694 714 1711 q 771 1640 771 1676 q 737 1545 771 1588 q 655 1472 703 1503 q 564 1421 607 1440 q 552 1415 558 1418 q 539 1413 546 1413 q 525 1417 533 1413 l 474 1442 z "},"Ṑ":{"ha":1142,"x_min":49,"x_max":1093,"o":"m 563 1058 q 769 1015 672 1058 q 938 897 865 972 q 1052 722 1011 821 q 1093 513 1093 624 q 1053 305 1093 401 q 941 136 1013 208 q 776 23 869 64 q 578 -18 683 -18 q 372 25 468 -18 q 203 144 275 68 q 90 318 131 219 q 49 526 49 417 q 88 731 49 635 q 197 901 126 826 q 360 1017 267 975 q 563 1058 453 1058 m 547 936 q 332 844 408 936 q 256 600 256 751 q 268 472 256 540 q 306 340 281 404 q 372 222 332 275 q 467 138 413 169 q 592 106 521 106 q 752 148 686 106 q 852 266 818 190 q 886 440 886 342 q 874 561 886 494 q 837 694 863 628 q 772 815 811 760 q 676 903 732 869 q 547 936 621 936 m 779 1222 q 758 1201 779 1201 l 386 1201 q 365 1222 365 1201 l 365 1306 q 386 1326 365 1326 l 758 1326 q 779 1306 779 1326 l 779 1222 m 681 1442 l 629 1417 q 615 1413 621 1413 q 603 1415 610 1413 q 590 1421 597 1418 q 499 1472 547 1440 q 417 1545 451 1503 q 383 1640 383 1588 q 413 1694 383 1676 q 481 1711 442 1711 q 511 1708 496 1711 q 532 1692 526 1704 q 568 1612 551 1647 q 610 1538 585 1576 q 681 1442 636 1499 z "},"Ǫ":{"ha":1142,"x_min":49,"x_max":1093,"o":"m 563 1058 q 769 1015 672 1058 q 938 897 865 972 q 1052 722 1011 821 q 1093 513 1093 624 q 1053 305 1093 401 q 941 136 1013 208 q 776 23 869 64 q 578 -18 683 -18 q 372 25 468 -18 q 203 144 275 68 q 90 318 131 219 q 49 526 49 417 q 88 731 49 635 q 197 901 126 826 q 360 1017 267 975 q 563 1058 453 1058 m 547 936 q 332 844 408 936 q 256 600 256 751 q 268 472 256 540 q 306 340 281 404 q 372 222 332 275 q 467 138 413 169 q 592 106 521 106 q 752 148 686 106 q 852 266 818 190 q 886 440 886 342 q 874 561 886 494 q 837 694 863 628 q 772 815 811 760 q 676 903 732 869 q 547 936 621 936 m 603 25 q 608 10 608 17 q 592 0 608 0 q 565 -6 586 0 q 518 -27 543 -12 q 475 -67 493 -42 q 457 -131 457 -93 q 486 -212 457 -179 q 568 -244 515 -244 q 618 -235 593 -244 q 663 -217 643 -226 q 689 -208 682 -208 q 701 -225 701 -208 l 701 -281 q 692 -303 701 -297 q 539 -351 611 -351 q 415 -317 464 -351 q 343 -235 367 -283 q 319 -146 319 -187 q 349 -40 319 -82 q 422 26 379 1 q 502 60 464 50 q 556 69 540 69 q 579 57 569 69 l 603 25 z "},"Ø":{"ha":1142,"x_min":49,"x_max":1093,"o":"m 563 1058 q 667 1047 615 1058 l 708 1164 q 732 1181 715 1181 l 846 1181 q 863 1157 872 1181 l 806 997 q 956 877 890 951 q 1057 710 1021 803 q 1093 513 1093 617 q 1053 305 1093 401 q 941 136 1013 208 q 776 23 869 64 q 578 -18 683 -18 q 446 -1 510 -18 l 418 -78 q 394 -94 413 -94 l 281 -94 q 264 -71 256 -94 l 310 57 q 173 178 232 106 q 81 339 114 250 q 49 526 49 428 q 88 731 49 635 q 197 901 126 826 q 360 1017 267 975 q 563 1058 453 1058 m 547 936 q 332 844 408 936 q 256 600 256 751 q 268 473 256 540 q 306 341 281 406 q 371 225 331 276 l 622 925 q 547 936 586 936 m 886 440 q 872 573 886 500 q 827 717 857 646 q 749 842 797 788 l 492 125 q 592 106 539 106 q 752 148 686 106 q 852 266 818 190 q 886 440 886 342 z "},"Ǿ":{"ha":1142,"x_min":49,"x_max":1093,"o":"m 563 1058 q 667 1047 615 1058 l 708 1164 q 732 1181 715 1181 l 846 1181 q 863 1157 872 1181 l 806 997 q 956 877 890 951 q 1057 710 1021 803 q 1093 513 1093 617 q 1053 305 1093 401 q 941 136 1013 208 q 776 23 869 64 q 578 -18 683 -18 q 446 -1 510 -18 l 418 -78 q 394 -94 413 -94 l 281 -94 q 264 -71 256 -94 l 310 57 q 173 178 232 106 q 81 339 114 250 q 49 526 49 428 q 88 731 49 635 q 197 901 126 826 q 360 1017 267 975 q 563 1058 453 1058 m 547 936 q 332 844 408 936 q 256 600 256 751 q 268 473 256 540 q 306 341 281 406 q 371 225 331 276 l 622 925 q 547 936 586 936 m 886 440 q 872 573 886 500 q 827 717 857 646 q 749 842 797 788 l 492 125 q 592 106 539 106 q 752 148 686 106 q 852 266 818 190 q 886 440 886 342 m 474 1150 q 544 1246 518 1207 q 587 1320 569 1285 q 622 1400 604 1356 q 644 1416 628 1413 q 674 1419 660 1419 q 742 1402 714 1419 q 771 1349 771 1385 q 737 1253 771 1296 q 655 1180 703 1211 q 564 1129 607 1149 q 552 1124 558 1126 q 539 1121 546 1121 q 525 1125 533 1121 l 474 1150 z "},"Õ":{"ha":1142,"x_min":49,"x_max":1093,"o":"m 563 1058 q 769 1015 672 1058 q 938 897 865 972 q 1052 722 1011 821 q 1093 513 1093 624 q 1053 305 1093 401 q 941 136 1013 208 q 776 23 869 64 q 578 -18 683 -18 q 372 25 468 -18 q 203 144 275 68 q 90 318 131 219 q 49 526 49 417 q 88 731 49 635 q 197 901 126 826 q 360 1017 267 975 q 563 1058 453 1058 m 547 936 q 332 844 408 936 q 256 600 256 751 q 268 472 256 540 q 306 340 281 404 q 372 222 332 275 q 467 138 413 169 q 592 106 521 106 q 752 148 686 106 q 852 266 818 190 q 886 440 886 342 q 874 561 886 494 q 837 694 863 628 q 772 815 811 760 q 676 903 732 869 q 547 936 621 936 m 618 1282 q 663 1243 642 1243 q 683 1253 678 1243 q 689 1275 689 1264 q 684 1305 689 1290 q 668 1333 679 1319 q 701 1362 679 1347 q 744 1376 722 1376 q 774 1361 757 1376 q 803 1322 790 1346 q 815 1269 815 1297 q 774 1163 815 1201 q 679 1124 732 1124 q 602 1139 632 1124 q 555 1176 572 1154 q 526 1217 538 1199 q 503 1247 514 1239 q 482 1256 493 1256 q 462 1245 468 1256 q 456 1224 456 1235 q 460 1195 456 1210 q 476 1165 465 1181 q 444 1137 465 1151 q 399 1122 422 1122 q 371 1138 388 1122 q 342 1177 354 1153 q 329 1228 329 1201 q 372 1336 329 1297 q 465 1375 414 1375 q 544 1359 514 1375 q 591 1322 574 1343 q 618 1282 608 1300 z "},"Ṍ":{"ha":1142,"x_min":49,"x_max":1093,"o":"m 563 1058 q 769 1015 672 1058 q 938 897 865 972 q 1052 722 1011 821 q 1093 513 1093 624 q 1053 305 1093 401 q 941 136 1013 208 q 776 23 869 64 q 578 -18 683 -18 q 372 25 468 -18 q 203 144 275 68 q 90 318 131 219 q 49 526 49 417 q 88 731 49 635 q 197 901 126 826 q 360 1017 267 975 q 563 1058 453 1058 m 547 936 q 332 844 408 936 q 256 600 256 751 q 268 472 256 540 q 306 340 281 404 q 372 222 332 275 q 467 138 413 169 q 592 106 521 106 q 752 148 686 106 q 852 266 818 190 q 886 440 886 342 q 874 561 886 494 q 837 694 863 628 q 772 815 811 760 q 676 903 732 869 q 547 936 621 936 m 618 1282 q 663 1243 642 1243 q 683 1253 678 1243 q 689 1275 689 1264 q 684 1305 689 1290 q 668 1333 679 1319 q 701 1362 679 1347 q 744 1376 722 1376 q 774 1361 757 1376 q 803 1322 790 1346 q 815 1269 815 1297 q 774 1163 815 1201 q 679 1124 732 1124 q 602 1139 632 1124 q 555 1176 572 1154 q 526 1217 538 1199 q 503 1247 514 1239 q 482 1256 493 1256 q 462 1245 468 1256 q 456 1224 456 1235 q 460 1195 456 1210 q 476 1165 465 1181 q 444 1137 465 1151 q 399 1122 422 1122 q 371 1138 388 1122 q 342 1177 354 1153 q 329 1228 329 1201 q 372 1336 329 1297 q 465 1375 414 1375 q 544 1359 514 1375 q 591 1322 574 1343 q 618 1282 608 1300 m 474 1442 q 544 1538 518 1499 q 587 1612 569 1576 q 622 1692 604 1647 q 644 1708 628 1704 q 674 1711 660 1711 q 742 1694 714 1711 q 771 1640 771 1676 q 737 1545 771 1588 q 655 1472 703 1503 q 564 1421 607 1440 q 552 1415 558 1418 q 539 1413 546 1413 q 525 1417 533 1413 l 474 1442 z "},"Ṏ":{"ha":1142,"x_min":49,"x_max":1093,"o":"m 563 1058 q 769 1015 672 1058 q 938 897 865 972 q 1052 722 1011 821 q 1093 513 1093 624 q 1053 305 1093 401 q 941 136 1013 208 q 776 23 869 64 q 578 -18 683 -18 q 372 25 468 -18 q 203 144 275 68 q 90 318 131 219 q 49 526 49 417 q 88 731 49 635 q 197 901 126 826 q 360 1017 267 975 q 563 1058 453 1058 m 547 936 q 332 844 408 936 q 256 600 256 751 q 268 472 256 540 q 306 340 281 404 q 372 222 332 275 q 467 138 413 169 q 592 106 521 106 q 752 148 686 106 q 852 266 818 190 q 886 440 886 342 q 874 561 886 494 q 837 694 863 628 q 772 815 811 760 q 676 903 732 869 q 547 936 621 936 m 618 1282 q 663 1243 642 1243 q 683 1253 678 1243 q 689 1275 689 1264 q 684 1305 689 1290 q 668 1333 679 1319 q 701 1362 679 1347 q 744 1376 722 1376 q 774 1361 757 1376 q 803 1322 790 1346 q 815 1269 815 1297 q 774 1163 815 1201 q 679 1124 732 1124 q 602 1139 632 1124 q 555 1176 572 1154 q 526 1217 538 1199 q 503 1247 514 1239 q 482 1256 493 1256 q 462 1245 468 1256 q 456 1224 456 1235 q 460 1195 456 1210 q 476 1165 465 1181 q 444 1137 465 1151 q 399 1122 422 1122 q 371 1138 388 1122 q 342 1177 354 1153 q 329 1228 329 1201 q 372 1336 329 1297 q 465 1375 414 1375 q 544 1359 514 1375 q 591 1322 574 1343 q 618 1282 608 1300 m 411 1667 q 481 1632 446 1667 q 515 1563 515 1597 q 481 1493 515 1528 q 411 1458 446 1458 q 342 1493 376 1458 q 307 1563 307 1528 q 315 1597 307 1582 q 342 1632 324 1613 q 411 1667 375 1667 m 733 1667 q 804 1632 769 1667 q 839 1563 839 1597 q 804 1493 839 1528 q 733 1458 769 1458 q 664 1493 699 1458 q 629 1563 629 1528 q 664 1632 629 1597 q 733 1667 699 1667 z "},"Œ":{"ha":1722,"x_min":49,"x_max":1694,"o":"m 563 1058 q 692 1042 629 1058 l 1432 1042 q 1458 1049 1450 1042 l 1467 1056 q 1478 1060 1471 1060 q 1496 1049 1489 1060 l 1606 860 q 1610 847 1610 854 q 1599 831 1610 838 l 1543 800 q 1528 794 1533 794 q 1511 807 1518 794 l 1507 814 q 1415 915 1464 886 q 1285 943 1365 943 l 1060 943 l 1060 617 l 1182 617 q 1279 640 1244 617 q 1314 710 1314 664 l 1314 719 q 1335 740 1314 740 l 1376 740 q 1397 719 1397 740 l 1397 404 q 1376 383 1397 383 l 1335 383 q 1314 404 1314 383 l 1314 413 q 1280 483 1314 460 q 1182 506 1246 506 l 1060 506 l 1060 231 q 1156 99 1060 99 l 1246 99 q 1413 118 1349 99 q 1522 183 1478 138 q 1604 307 1565 229 l 1608 315 q 1626 326 1615 326 q 1638 324 1633 326 l 1682 297 q 1694 282 1694 290 q 1690 268 1694 276 l 1560 -7 q 1543 -19 1554 -19 q 1531 -14 1536 -19 l 1524 -7 q 1496 0 1517 0 l 711 0 q 646 -13 679 -8 q 578 -18 613 -18 q 372 25 468 -18 q 203 144 275 68 q 90 318 131 219 q 49 526 49 417 q 88 731 49 635 q 197 901 126 826 q 360 1017 267 975 q 563 1058 453 1058 m 256 600 q 268 472 256 540 q 306 340 281 404 q 372 222 332 275 q 467 138 413 169 q 592 106 521 106 q 752 148 686 106 q 852 266 818 190 q 886 440 886 342 q 874 561 886 494 q 837 694 863 628 q 772 815 811 760 q 676 903 732 869 q 547 936 621 936 q 332 844 408 936 q 256 600 256 751 z "},"P":{"ha":972,"x_min":42,"x_max":944,"o":"m 388 215 q 408 122 388 160 q 481 83 429 83 l 489 83 q 510 63 510 83 l 510 21 q 489 0 510 0 l 63 0 q 42 21 42 0 l 42 63 q 63 83 42 83 l 72 83 q 145 122 125 83 q 165 215 165 160 l 165 826 q 144 921 165 883 q 65 958 122 958 l 64 958 q 43 979 43 958 l 43 1021 q 64 1042 43 1042 l 574 1042 q 769 998 686 1042 q 899 884 853 954 q 944 735 944 814 q 901 574 944 646 q 760 461 858 503 q 492 419 661 419 l 388 419 l 388 215 m 468 518 q 672 569 607 518 q 736 735 736 619 q 676 894 736 831 q 513 958 617 958 l 379 958 l 379 518 l 468 518 z "},"Þ":{"ha":972,"x_min":42,"x_max":944,"o":"m 379 215 q 400 122 379 160 q 472 83 421 83 l 489 83 q 510 63 510 83 l 510 21 q 489 0 510 0 l 63 0 q 42 21 42 0 l 42 63 q 63 83 42 83 l 72 83 q 145 122 125 83 q 165 215 165 160 l 165 826 q 144 921 165 883 q 65 958 122 958 l 64 958 q 43 979 43 958 l 43 1021 q 64 1042 43 1042 l 468 1042 q 489 1021 489 1042 l 489 979 q 468 958 489 958 l 379 958 l 379 879 l 574 879 q 769 835 686 879 q 899 722 853 792 q 944 571 944 651 q 901 412 944 483 q 760 298 858 340 q 492 256 661 256 l 379 256 l 379 215 m 468 354 q 672 406 607 354 q 736 571 736 457 q 676 731 736 668 q 513 794 617 794 l 379 794 l 379 354 l 468 354 z "},"Q":{"ha":1142,"x_min":49,"x_max":1093,"o":"m 563 1058 q 769 1015 672 1058 q 938 897 865 972 q 1052 722 1011 821 q 1093 513 1093 624 q 1045 287 1093 390 q 913 110 997 183 q 718 3 828 36 q 652 -29 682 -7 q 622 -97 622 -51 q 656 -162 622 -140 q 750 -183 689 -183 q 863 -167 806 -183 q 978 -129 919 -150 q 989 -126 986 -126 q 1006 -139 1000 -126 l 1036 -199 q 1039 -204 1038 -200 q 1040 -211 1040 -208 q 1028 -228 1040 -222 q 883 -289 957 -262 q 722 -315 808 -315 q 553 -287 614 -315 q 468 -216 493 -258 q 443 -131 443 -174 q 458 -65 443 -94 q 499 -12 472 -35 q 321 51 403 3 q 178 172 239 99 q 83 335 117 244 q 49 526 49 426 q 88 731 49 635 q 197 901 126 826 q 360 1017 267 975 q 563 1058 453 1058 m 256 600 q 268 472 256 540 q 306 340 281 404 q 372 222 332 275 q 467 138 413 169 q 592 106 521 106 q 752 148 686 106 q 852 266 818 190 q 886 440 886 342 q 874 561 886 494 q 837 694 863 628 q 772 815 811 760 q 676 903 732 869 q 547 936 621 936 q 332 844 408 936 q 256 600 256 751 z "},"R":{"ha":1108,"x_min":42,"x_max":1097,"o":"m 1076 83 q 1097 63 1097 83 l 1097 21 q 1076 0 1097 0 l 650 0 q 629 21 629 0 l 629 63 q 650 83 629 83 l 658 83 q 710 103 693 83 q 726 151 726 124 q 708 215 726 183 l 582 451 q 492 447 540 447 l 388 447 l 388 215 q 408 122 388 160 q 481 83 429 83 l 489 83 q 510 63 510 83 l 510 21 q 489 0 510 0 l 63 0 q 42 21 42 0 l 42 63 q 63 83 42 83 l 72 83 q 145 122 125 83 q 165 215 165 160 l 165 826 q 144 921 165 883 q 64 958 122 958 q 43 979 43 958 l 43 1021 q 64 1042 43 1042 l 574 1042 q 769 1001 686 1042 q 899 894 853 961 q 944 749 944 828 q 907 611 944 678 q 779 501 869 544 l 931 215 q 988 124 958 164 q 1069 83 1018 83 l 1076 83 m 468 546 q 672 600 607 546 q 736 749 736 654 q 676 901 736 844 q 513 958 617 958 l 388 958 l 388 546 l 468 546 z "},"Ŕ":{"ha":1108,"x_min":42,"x_max":1097,"o":"m 1076 83 q 1097 63 1097 83 l 1097 21 q 1076 0 1097 0 l 650 0 q 629 21 629 0 l 629 63 q 650 83 629 83 l 658 83 q 710 103 693 83 q 726 151 726 124 q 708 215 726 183 l 582 451 q 492 447 540 447 l 388 447 l 388 215 q 408 122 388 160 q 481 83 429 83 l 489 83 q 510 63 510 83 l 510 21 q 489 0 510 0 l 63 0 q 42 21 42 0 l 42 63 q 63 83 42 83 l 72 83 q 145 122 125 83 q 165 215 165 160 l 165 826 q 144 921 165 883 q 64 958 122 958 q 43 979 43 958 l 43 1021 q 64 1042 43 1042 l 574 1042 q 769 1001 686 1042 q 899 894 853 961 q 944 749 944 828 q 907 611 944 678 q 779 501 869 544 l 931 215 q 988 124 958 164 q 1069 83 1018 83 l 1076 83 m 468 546 q 672 600 607 546 q 736 749 736 654 q 676 901 736 844 q 513 958 617 958 l 388 958 l 388 546 l 468 546 m 378 1150 q 448 1246 422 1207 q 491 1320 474 1285 q 526 1400 508 1356 q 548 1416 532 1413 q 578 1419 564 1419 q 647 1402 618 1419 q 675 1349 675 1385 q 641 1253 675 1296 q 559 1180 607 1211 q 468 1129 511 1149 q 456 1124 463 1126 q 443 1121 450 1121 q 429 1125 438 1121 l 378 1150 z "},"Ř":{"ha":1108,"x_min":42,"x_max":1097,"o":"m 1076 83 q 1097 63 1097 83 l 1097 21 q 1076 0 1097 0 l 650 0 q 629 21 629 0 l 629 63 q 650 83 629 83 l 658 83 q 710 103 693 83 q 726 151 726 124 q 708 215 726 183 l 582 451 q 492 447 540 447 l 388 447 l 388 215 q 408 122 388 160 q 481 83 429 83 l 489 83 q 510 63 510 83 l 510 21 q 489 0 510 0 l 63 0 q 42 21 42 0 l 42 63 q 63 83 42 83 l 72 83 q 145 122 125 83 q 165 215 165 160 l 165 826 q 144 921 165 883 q 64 958 122 958 q 43 979 43 958 l 43 1021 q 64 1042 43 1042 l 574 1042 q 769 1001 686 1042 q 899 894 853 961 q 944 749 944 828 q 907 611 944 678 q 779 501 869 544 l 931 215 q 988 124 958 164 q 1069 83 1018 83 l 1076 83 m 468 546 q 672 600 607 546 q 736 749 736 654 q 676 901 736 844 q 513 958 617 958 l 388 958 l 388 546 l 468 546 m 472 1251 q 522 1328 493 1290 q 590 1390 551 1365 q 672 1415 628 1415 q 725 1387 708 1415 q 742 1318 742 1358 q 739 1286 742 1300 q 724 1267 736 1272 q 642 1233 678 1250 q 568 1189 607 1215 q 472 1118 529 1163 q 377 1189 417 1163 q 302 1233 338 1215 q 221 1267 267 1250 q 206 1286 208 1272 q 203 1318 203 1300 q 220 1387 203 1358 q 272 1415 238 1415 q 356 1390 318 1415 q 423 1328 393 1365 q 472 1251 453 1290 z "},"Ŗ":{"ha":1108,"x_min":42,"x_max":1097,"o":"m 1076 83 q 1097 63 1097 83 l 1097 21 q 1076 0 1097 0 l 650 0 q 629 21 629 0 l 629 63 q 650 83 629 83 l 658 83 q 710 103 693 83 q 726 151 726 124 q 708 215 726 183 l 582 451 q 492 447 540 447 l 388 447 l 388 215 q 408 122 388 160 q 481 83 429 83 l 489 83 q 510 63 510 83 l 510 21 q 489 0 510 0 l 63 0 q 42 21 42 0 l 42 63 q 63 83 42 83 l 72 83 q 145 122 125 83 q 165 215 165 160 l 165 826 q 144 921 165 883 q 64 958 122 958 q 43 979 43 958 l 43 1021 q 64 1042 43 1042 l 574 1042 q 769 1001 686 1042 q 899 894 853 961 q 944 749 944 828 q 907 611 944 678 q 779 501 869 544 l 931 215 q 988 124 958 164 q 1069 83 1018 83 l 1076 83 m 468 546 q 672 600 607 546 q 736 749 736 654 q 676 901 736 844 q 513 958 617 958 l 388 958 l 388 546 l 468 546 m 646 -150 q 661 -173 656 -160 q 667 -206 667 -186 q 666 -219 667 -211 q 664 -235 665 -226 q 635 -297 658 -264 q 583 -358 611 -329 q 530 -404 554 -386 q 497 -422 506 -422 q 487 -419 493 -422 q 458 -407 481 -417 q 516 -346 494 -379 q 538 -289 538 -312 q 528 -267 538 -276 l 489 -228 q 471 -189 471 -207 q 489 -150 471 -171 l 528 -111 q 568 -92 547 -92 q 607 -111 585 -92 l 646 -150 z "},"Ṛ":{"ha":1108,"x_min":42,"x_max":1097,"o":"m 1076 83 q 1097 63 1097 83 l 1097 21 q 1076 0 1097 0 l 650 0 q 629 21 629 0 l 629 63 q 650 83 629 83 l 658 83 q 710 103 693 83 q 726 151 726 124 q 708 215 726 183 l 582 451 q 492 447 540 447 l 388 447 l 388 215 q 408 122 388 160 q 481 83 429 83 l 489 83 q 510 63 510 83 l 510 21 q 489 0 510 0 l 63 0 q 42 21 42 0 l 42 63 q 63 83 42 83 l 72 83 q 145 122 125 83 q 165 215 165 160 l 165 826 q 144 921 165 883 q 64 958 122 958 q 43 979 43 958 l 43 1021 q 64 1042 43 1042 l 574 1042 q 769 1001 686 1042 q 899 894 853 961 q 944 749 944 828 q 907 611 944 678 q 779 501 869 544 l 931 215 q 988 124 958 164 q 1069 83 1018 83 l 1076 83 m 468 546 q 672 600 607 546 q 736 749 736 654 q 676 901 736 844 q 513 958 617 958 l 388 958 l 388 546 l 468 546 m 569 -92 q 640 -126 606 -92 q 675 -196 675 -161 q 640 -265 675 -231 q 569 -300 606 -300 q 500 -265 536 -300 q 465 -196 465 -232 q 500 -126 465 -161 q 569 -92 535 -92 z "},"Ṟ":{"ha":1108,"x_min":42,"x_max":1097,"o":"m 1076 83 q 1097 63 1097 83 l 1097 21 q 1076 0 1097 0 l 650 0 q 629 21 629 0 l 629 63 q 650 83 629 83 l 658 83 q 710 103 693 83 q 726 151 726 124 q 708 215 726 183 l 582 451 q 492 447 540 447 l 388 447 l 388 215 q 408 122 388 160 q 481 83 429 83 l 489 83 q 510 63 510 83 l 510 21 q 489 0 510 0 l 63 0 q 42 21 42 0 l 42 63 q 63 83 42 83 l 72 83 q 145 122 125 83 q 165 215 165 160 l 165 826 q 144 921 165 883 q 64 958 122 958 q 43 979 43 958 l 43 1021 q 64 1042 43 1042 l 574 1042 q 769 1001 686 1042 q 899 894 853 961 q 944 749 944 828 q 907 611 944 678 q 779 501 869 544 l 931 215 q 988 124 958 164 q 1069 83 1018 83 l 1076 83 m 468 546 q 672 600 607 546 q 736 749 736 654 q 676 901 736 844 q 513 958 617 958 l 388 958 l 388 546 l 468 546 m 776 -189 q 756 -210 776 -210 l 383 -210 q 363 -189 363 -210 l 363 -106 q 383 -85 363 -85 l 756 -85 q 776 -106 776 -85 l 776 -189 z "},"S":{"ha":1004,"x_min":28,"x_max":983,"o":"m 860 726 q 851 723 856 725 q 843 721 847 721 q 819 738 832 721 q 644 897 731 849 q 467 946 558 946 q 372 917 411 946 q 332 825 332 888 q 364 740 332 774 q 447 685 396 707 q 550 649 497 664 q 706 599 629 626 q 846 533 783 571 q 946 440 908 494 q 983 307 983 385 q 935 139 983 213 q 797 24 888 65 q 579 -18 707 -18 q 462 -2 517 -18 q 356 39 407 14 q 335 44 344 44 q 322 31 322 44 q 325 15 322 26 q 329 -1 329 6 q 306 -17 329 -17 l 236 -17 q 201 3 211 -17 l 33 318 q 28 335 28 329 q 43 358 28 350 l 104 393 q 113 397 108 396 q 121 399 117 399 q 144 382 135 399 q 353 169 239 239 q 588 100 468 100 q 726 141 678 100 q 775 244 775 182 q 744 340 775 306 q 650 399 714 375 q 486 451 586 422 q 351 499 418 471 q 231 566 285 526 q 144 660 176 606 q 111 790 111 715 q 158 942 111 882 q 283 1030 204 1001 q 463 1058 363 1058 q 594 1039 540 1058 q 678 1003 649 1019 q 710 989 701 989 q 717 997 717 989 q 713 1017 717 1004 q 710 1043 710 1029 q 735 1064 710 1064 l 785 1064 q 819 1040 810 1064 l 917 792 q 921 781 919 786 q 922 772 922 776 q 907 751 922 760 l 860 726 z "},"Ś":{"ha":1004,"x_min":28,"x_max":983,"o":"m 860 726 q 851 723 856 725 q 843 721 847 721 q 819 738 832 721 q 644 897 731 849 q 467 946 558 946 q 372 917 411 946 q 332 825 332 888 q 364 740 332 774 q 447 685 396 707 q 550 649 497 664 q 706 599 629 626 q 846 533 783 571 q 946 440 908 494 q 983 307 983 385 q 935 139 983 213 q 797 24 888 65 q 579 -18 707 -18 q 462 -2 517 -18 q 356 39 407 14 q 335 44 344 44 q 322 31 322 44 q 325 15 322 26 q 329 -1 329 6 q 306 -17 329 -17 l 236 -17 q 201 3 211 -17 l 33 318 q 28 335 28 329 q 43 358 28 350 l 104 393 q 113 397 108 396 q 121 399 117 399 q 144 382 135 399 q 353 169 239 239 q 588 100 468 100 q 726 141 678 100 q 775 244 775 182 q 744 340 775 306 q 650 399 714 375 q 486 451 586 422 q 351 499 418 471 q 231 566 285 526 q 144 660 176 606 q 111 790 111 715 q 158 942 111 882 q 283 1030 204 1001 q 463 1058 363 1058 q 594 1039 540 1058 q 678 1003 649 1019 q 710 989 701 989 q 717 997 717 989 q 713 1017 717 1004 q 710 1043 710 1029 q 735 1064 710 1064 l 785 1064 q 819 1040 810 1064 l 917 792 q 921 781 919 786 q 922 772 922 776 q 907 751 922 760 l 860 726 m 414 1150 q 484 1246 458 1207 q 527 1320 510 1285 q 563 1400 544 1356 q 584 1416 568 1413 q 614 1419 600 1419 q 683 1402 654 1419 q 711 1349 711 1385 q 677 1253 711 1296 q 595 1180 643 1211 q 504 1129 547 1149 q 492 1124 499 1126 q 479 1121 486 1121 q 465 1125 474 1121 l 414 1150 z "},"Ṥ":{"ha":1004,"x_min":28,"x_max":983,"o":"m 860 726 q 851 723 856 725 q 843 721 847 721 q 819 738 832 721 q 644 897 731 849 q 467 946 558 946 q 372 917 411 946 q 332 825 332 888 q 364 740 332 774 q 447 685 396 707 q 550 649 497 664 q 706 599 629 626 q 846 533 783 571 q 946 440 908 494 q 983 307 983 385 q 935 139 983 213 q 797 24 888 65 q 579 -18 707 -18 q 462 -2 517 -18 q 356 39 407 14 q 335 44 344 44 q 322 31 322 44 q 325 15 322 26 q 329 -1 329 6 q 306 -17 329 -17 l 236 -17 q 201 3 211 -17 l 33 318 q 28 335 28 329 q 43 358 28 350 l 104 393 q 113 397 108 396 q 121 399 117 399 q 144 382 135 399 q 353 169 239 239 q 588 100 468 100 q 726 141 678 100 q 775 244 775 182 q 744 340 775 306 q 650 399 714 375 q 486 451 586 422 q 351 499 418 471 q 231 566 285 526 q 144 660 176 606 q 111 790 111 715 q 158 942 111 882 q 283 1030 204 1001 q 463 1058 363 1058 q 594 1039 540 1058 q 678 1003 649 1019 q 710 989 701 989 q 717 997 717 989 q 713 1017 717 1004 q 710 1043 710 1029 q 735 1064 710 1064 l 785 1064 q 819 1040 810 1064 l 917 792 q 921 781 919 786 q 922 772 922 776 q 907 751 922 760 l 860 726 m 483 1150 q 553 1246 528 1207 q 597 1320 579 1285 q 632 1400 614 1356 q 653 1416 638 1413 q 683 1419 669 1419 q 752 1402 724 1419 q 781 1349 781 1385 q 747 1253 781 1296 q 665 1180 713 1211 q 574 1129 617 1149 q 562 1124 568 1126 q 549 1121 556 1121 q 535 1125 543 1121 l 483 1150 m 332 1375 q 403 1340 368 1375 q 438 1271 438 1306 q 403 1201 438 1236 q 332 1167 368 1167 q 263 1201 299 1167 q 228 1271 228 1235 q 263 1340 228 1306 q 332 1375 297 1375 z "},"Š":{"ha":1004,"x_min":28,"x_max":983,"o":"m 860 726 q 851 723 856 725 q 843 721 847 721 q 819 738 832 721 q 644 897 731 849 q 467 946 558 946 q 372 917 411 946 q 332 825 332 888 q 364 740 332 774 q 447 685 396 707 q 550 649 497 664 q 706 599 629 626 q 846 533 783 571 q 946 440 908 494 q 983 307 983 385 q 935 139 983 213 q 797 24 888 65 q 579 -18 707 -18 q 462 -2 517 -18 q 356 39 407 14 q 335 44 344 44 q 322 31 322 44 q 325 15 322 26 q 329 -1 329 6 q 306 -17 329 -17 l 236 -17 q 201 3 211 -17 l 33 318 q 28 335 28 329 q 43 358 28 350 l 104 393 q 113 397 108 396 q 121 399 117 399 q 144 382 135 399 q 353 169 239 239 q 588 100 468 100 q 726 141 678 100 q 775 244 775 182 q 744 340 775 306 q 650 399 714 375 q 486 451 586 422 q 351 499 418 471 q 231 566 285 526 q 144 660 176 606 q 111 790 111 715 q 158 942 111 882 q 283 1030 204 1001 q 463 1058 363 1058 q 594 1039 540 1058 q 678 1003 649 1019 q 710 989 701 989 q 717 997 717 989 q 713 1017 717 1004 q 710 1043 710 1029 q 735 1064 710 1064 l 785 1064 q 819 1040 810 1064 l 917 792 q 921 781 919 786 q 922 772 922 776 q 907 751 922 760 l 860 726 m 508 1251 q 558 1328 529 1290 q 626 1390 588 1365 q 708 1415 664 1415 q 761 1387 744 1415 q 778 1318 778 1358 q 775 1286 778 1300 q 760 1267 772 1272 q 678 1233 714 1250 q 604 1189 643 1215 q 508 1118 565 1163 q 413 1189 453 1163 q 338 1233 374 1215 q 257 1267 303 1250 q 242 1286 244 1272 q 239 1318 239 1300 q 256 1387 239 1358 q 308 1415 274 1415 q 392 1390 354 1415 q 459 1328 429 1365 q 508 1251 489 1290 z "},"Ṧ":{"ha":1004,"x_min":28,"x_max":983,"o":"m 860 726 q 851 723 856 725 q 843 721 847 721 q 819 738 832 721 q 644 897 731 849 q 467 946 558 946 q 372 917 411 946 q 332 825 332 888 q 364 740 332 774 q 447 685 396 707 q 550 649 497 664 q 706 599 629 626 q 846 533 783 571 q 946 440 908 494 q 983 307 983 385 q 935 139 983 213 q 797 24 888 65 q 579 -18 707 -18 q 462 -2 517 -18 q 356 39 407 14 q 335 44 344 44 q 322 31 322 44 q 325 15 322 26 q 329 -1 329 6 q 306 -17 329 -17 l 236 -17 q 201 3 211 -17 l 33 318 q 28 335 28 329 q 43 358 28 350 l 104 393 q 113 397 108 396 q 121 399 117 399 q 144 382 135 399 q 353 169 239 239 q 588 100 468 100 q 726 141 678 100 q 775 244 775 182 q 744 340 775 306 q 650 399 714 375 q 486 451 586 422 q 351 499 418 471 q 231 566 285 526 q 144 660 176 606 q 111 790 111 715 q 158 942 111 882 q 283 1030 204 1001 q 463 1058 363 1058 q 594 1039 540 1058 q 678 1003 649 1019 q 710 989 701 989 q 717 997 717 989 q 713 1017 717 1004 q 710 1043 710 1029 q 735 1064 710 1064 l 785 1064 q 819 1040 810 1064 l 917 792 q 921 781 919 786 q 922 772 922 776 q 907 751 922 760 l 860 726 m 508 1251 q 558 1328 529 1290 q 626 1390 588 1365 q 708 1415 664 1415 q 761 1387 744 1415 q 778 1318 778 1358 q 775 1286 778 1300 q 760 1267 772 1272 q 678 1233 714 1250 q 604 1189 643 1215 q 508 1118 565 1163 q 413 1189 453 1163 q 338 1233 374 1215 q 257 1267 303 1250 q 242 1286 244 1272 q 239 1318 239 1300 q 256 1387 239 1358 q 308 1415 274 1415 q 392 1390 354 1415 q 459 1328 429 1365 q 508 1251 489 1290 m 513 1667 q 583 1632 549 1667 q 618 1563 618 1597 q 583 1493 618 1528 q 513 1458 549 1458 q 443 1493 479 1458 q 408 1563 408 1526 q 443 1632 408 1597 q 513 1667 478 1667 z "},"Ş":{"ha":1004,"x_min":28,"x_max":983,"o":"m 860 726 q 851 723 856 725 q 843 721 847 721 q 819 738 832 721 q 644 897 731 849 q 467 946 558 946 q 372 917 411 946 q 332 825 332 888 q 364 740 332 774 q 447 685 396 707 q 550 649 497 664 q 706 599 629 626 q 846 533 783 571 q 946 440 908 494 q 983 307 983 385 q 935 139 983 213 q 797 24 888 65 q 579 -18 707 -18 q 462 -2 517 -18 q 356 39 407 14 q 335 44 344 44 q 322 31 322 44 q 325 15 322 26 q 329 -1 329 6 q 306 -17 329 -17 l 236 -17 q 201 3 211 -17 l 33 318 q 28 335 28 329 q 43 358 28 350 l 104 393 q 113 397 108 396 q 121 399 117 399 q 144 382 135 399 q 353 169 239 239 q 588 100 468 100 q 726 141 678 100 q 775 244 775 182 q 744 340 775 306 q 650 399 714 375 q 486 451 586 422 q 351 499 418 471 q 231 566 285 526 q 144 660 176 606 q 111 790 111 715 q 158 942 111 882 q 283 1030 204 1001 q 463 1058 363 1058 q 594 1039 540 1058 q 678 1003 649 1019 q 710 989 701 989 q 717 997 717 989 q 713 1017 717 1004 q 710 1043 710 1029 q 735 1064 710 1064 l 785 1064 q 819 1040 810 1064 l 917 792 q 921 781 919 786 q 922 772 922 776 q 907 751 922 760 l 860 726 m 458 42 q 483 56 467 56 l 556 56 q 574 43 574 56 q 568 29 574 36 l 474 -83 q 538 -72 504 -72 q 611 -87 575 -72 q 671 -133 647 -101 q 694 -212 694 -164 q 645 -315 694 -274 q 514 -356 596 -356 q 448 -349 483 -356 q 375 -326 413 -342 q 351 -293 356 -318 q 347 -247 347 -268 q 357 -232 347 -232 q 369 -235 361 -232 q 426 -250 394 -243 q 488 -257 458 -257 q 535 -247 515 -257 q 554 -212 554 -237 q 524 -162 554 -176 q 447 -147 494 -147 q 407 -149 426 -147 q 368 -151 388 -151 q 354 -140 354 -151 q 358 -128 354 -133 l 458 42 z "},"Ŝ":{"ha":1004,"x_min":28,"x_max":983,"o":"m 860 726 q 851 723 856 725 q 843 721 847 721 q 819 738 832 721 q 644 897 731 849 q 467 946 558 946 q 372 917 411 946 q 332 825 332 888 q 364 740 332 774 q 447 685 396 707 q 550 649 497 664 q 706 599 629 626 q 846 533 783 571 q 946 440 908 494 q 983 307 983 385 q 935 139 983 213 q 797 24 888 65 q 579 -18 707 -18 q 462 -2 517 -18 q 356 39 407 14 q 335 44 344 44 q 322 31 322 44 q 325 15 322 26 q 329 -1 329 6 q 306 -17 329 -17 l 236 -17 q 201 3 211 -17 l 33 318 q 28 335 28 329 q 43 358 28 350 l 104 393 q 113 397 108 396 q 121 399 117 399 q 144 382 135 399 q 353 169 239 239 q 588 100 468 100 q 726 141 678 100 q 775 244 775 182 q 744 340 775 306 q 650 399 714 375 q 486 451 586 422 q 351 499 418 471 q 231 566 285 526 q 144 660 176 606 q 111 790 111 715 q 158 942 111 882 q 283 1030 204 1001 q 463 1058 363 1058 q 594 1039 540 1058 q 678 1003 649 1019 q 710 989 701 989 q 717 997 717 989 q 713 1017 717 1004 q 710 1043 710 1029 q 735 1064 710 1064 l 785 1064 q 819 1040 810 1064 l 917 792 q 921 781 919 786 q 922 772 922 776 q 907 751 922 760 l 860 726 m 513 1282 q 463 1206 493 1243 q 396 1143 433 1168 q 313 1118 358 1118 q 260 1147 278 1118 q 243 1215 243 1176 q 246 1247 243 1233 q 261 1267 249 1261 q 342 1301 307 1285 q 417 1344 378 1318 q 513 1415 457 1371 q 608 1344 569 1371 q 683 1301 647 1318 q 764 1267 718 1285 q 779 1247 776 1261 q 782 1215 782 1233 q 765 1147 782 1176 q 713 1118 749 1118 q 630 1143 668 1118 q 563 1206 592 1168 q 513 1282 533 1243 z "},"Ș":{"ha":1004,"x_min":28,"x_max":983,"o":"m 860 726 q 851 723 856 725 q 843 721 847 721 q 819 738 832 721 q 644 897 731 849 q 467 946 558 946 q 372 917 411 946 q 332 825 332 888 q 364 740 332 774 q 447 685 396 707 q 550 649 497 664 q 706 599 629 626 q 846 533 783 571 q 946 440 908 494 q 983 307 983 385 q 935 139 983 213 q 797 24 888 65 q 579 -18 707 -18 q 462 -2 517 -18 q 356 39 407 14 q 335 44 344 44 q 322 31 322 44 q 325 15 322 26 q 329 -1 329 6 q 306 -17 329 -17 l 236 -17 q 201 3 211 -17 l 33 318 q 28 335 28 329 q 43 358 28 350 l 104 393 q 113 397 108 396 q 121 399 117 399 q 144 382 135 399 q 353 169 239 239 q 588 100 468 100 q 726 141 678 100 q 775 244 775 182 q 744 340 775 306 q 650 399 714 375 q 486 451 586 422 q 351 499 418 471 q 231 566 285 526 q 144 660 176 606 q 111 790 111 715 q 158 942 111 882 q 283 1030 204 1001 q 463 1058 363 1058 q 594 1039 540 1058 q 678 1003 649 1019 q 710 989 701 989 q 717 997 717 989 q 713 1017 717 1004 q 710 1043 710 1029 q 735 1064 710 1064 l 785 1064 q 819 1040 810 1064 l 917 792 q 921 781 919 786 q 922 772 922 776 q 907 751 922 760 l 860 726 m 589 -150 q 604 -173 599 -160 q 610 -206 610 -186 q 609 -219 610 -211 q 607 -235 608 -226 q 578 -297 601 -264 q 526 -358 554 -329 q 473 -404 497 -386 q 440 -422 449 -422 q 430 -419 436 -422 q 401 -407 424 -417 q 459 -346 438 -379 q 481 -289 481 -312 q 471 -267 481 -276 l 432 -228 q 414 -189 414 -207 q 432 -150 414 -171 l 471 -111 q 511 -92 490 -92 q 550 -111 528 -92 l 589 -150 z "},"Ṡ":{"ha":1004,"x_min":28,"x_max":983,"o":"m 860 726 q 851 723 856 725 q 843 721 847 721 q 819 738 832 721 q 644 897 731 849 q 467 946 558 946 q 372 917 411 946 q 332 825 332 888 q 364 740 332 774 q 447 685 396 707 q 550 649 497 664 q 706 599 629 626 q 846 533 783 571 q 946 440 908 494 q 983 307 983 385 q 935 139 983 213 q 797 24 888 65 q 579 -18 707 -18 q 462 -2 517 -18 q 356 39 407 14 q 335 44 344 44 q 322 31 322 44 q 325 15 322 26 q 329 -1 329 6 q 306 -17 329 -17 l 236 -17 q 201 3 211 -17 l 33 318 q 28 335 28 329 q 43 358 28 350 l 104 393 q 113 397 108 396 q 121 399 117 399 q 144 382 135 399 q 353 169 239 239 q 588 100 468 100 q 726 141 678 100 q 775 244 775 182 q 744 340 775 306 q 650 399 714 375 q 486 451 586 422 q 351 499 418 471 q 231 566 285 526 q 144 660 176 606 q 111 790 111 715 q 158 942 111 882 q 283 1030 204 1001 q 463 1058 363 1058 q 594 1039 540 1058 q 678 1003 649 1019 q 710 989 701 989 q 717 997 717 989 q 713 1017 717 1004 q 710 1043 710 1029 q 735 1064 710 1064 l 785 1064 q 819 1040 810 1064 l 917 792 q 921 781 919 786 q 922 772 922 776 q 907 751 922 760 l 860 726 m 513 1375 q 583 1340 549 1375 q 618 1271 618 1306 q 583 1201 618 1236 q 513 1167 549 1167 q 443 1201 479 1167 q 408 1271 408 1235 q 443 1340 408 1306 q 513 1375 478 1375 z "},"Ṣ":{"ha":1004,"x_min":28,"x_max":983,"o":"m 860 726 q 851 723 856 725 q 843 721 847 721 q 819 738 832 721 q 644 897 731 849 q 467 946 558 946 q 372 917 411 946 q 332 825 332 888 q 364 740 332 774 q 447 685 396 707 q 550 649 497 664 q 706 599 629 626 q 846 533 783 571 q 946 440 908 494 q 983 307 983 385 q 935 139 983 213 q 797 24 888 65 q 579 -18 707 -18 q 462 -2 517 -18 q 356 39 407 14 q 335 44 344 44 q 322 31 322 44 q 325 15 322 26 q 329 -1 329 6 q 306 -17 329 -17 l 236 -17 q 201 3 211 -17 l 33 318 q 28 335 28 329 q 43 358 28 350 l 104 393 q 113 397 108 396 q 121 399 117 399 q 144 382 135 399 q 353 169 239 239 q 588 100 468 100 q 726 141 678 100 q 775 244 775 182 q 744 340 775 306 q 650 399 714 375 q 486 451 586 422 q 351 499 418 471 q 231 566 285 526 q 144 660 176 606 q 111 790 111 715 q 158 942 111 882 q 283 1030 204 1001 q 463 1058 363 1058 q 594 1039 540 1058 q 678 1003 649 1019 q 710 989 701 989 q 717 997 717 989 q 713 1017 717 1004 q 710 1043 710 1029 q 735 1064 710 1064 l 785 1064 q 819 1040 810 1064 l 917 792 q 921 781 919 786 q 922 772 922 776 q 907 751 922 760 l 860 726 m 513 -92 q 583 -126 549 -92 q 618 -196 618 -161 q 583 -265 618 -231 q 513 -300 549 -300 q 443 -265 479 -300 q 408 -196 408 -232 q 443 -126 408 -161 q 513 -92 478 -92 z "},"Ṩ":{"ha":1004,"x_min":28,"x_max":983,"o":"m 860 726 q 851 723 856 725 q 843 721 847 721 q 819 738 832 721 q 644 897 731 849 q 467 946 558 946 q 372 917 411 946 q 332 825 332 888 q 364 740 332 774 q 447 685 396 707 q 550 649 497 664 q 706 599 629 626 q 846 533 783 571 q 946 440 908 494 q 983 307 983 385 q 935 139 983 213 q 797 24 888 65 q 579 -18 707 -18 q 462 -2 517 -18 q 356 39 407 14 q 335 44 344 44 q 322 31 322 44 q 325 15 322 26 q 329 -1 329 6 q 306 -17 329 -17 l 236 -17 q 201 3 211 -17 l 33 318 q 28 335 28 329 q 43 358 28 350 l 104 393 q 113 397 108 396 q 121 399 117 399 q 144 382 135 399 q 353 169 239 239 q 588 100 468 100 q 726 141 678 100 q 775 244 775 182 q 744 340 775 306 q 650 399 714 375 q 486 451 586 422 q 351 499 418 471 q 231 566 285 526 q 144 660 176 606 q 111 790 111 715 q 158 942 111 882 q 283 1030 204 1001 q 463 1058 363 1058 q 594 1039 540 1058 q 678 1003 649 1019 q 710 989 701 989 q 717 997 717 989 q 713 1017 717 1004 q 710 1043 710 1029 q 735 1064 710 1064 l 785 1064 q 819 1040 810 1064 l 917 792 q 921 781 919 786 q 922 772 922 776 q 907 751 922 760 l 860 726 m 513 -92 q 583 -126 549 -92 q 618 -196 618 -161 q 583 -265 618 -231 q 513 -300 549 -300 q 443 -265 479 -300 q 408 -196 408 -232 q 443 -126 408 -161 q 513 -92 478 -92 m 513 1375 q 583 1340 549 1375 q 618 1271 618 1306 q 583 1201 618 1236 q 513 1167 549 1167 q 443 1201 479 1167 q 408 1271 408 1235 q 443 1340 408 1306 q 513 1375 478 1375 z "},"ẞ":{"ha":1031,"x_min":21,"x_max":975,"o":"m 625 597 q 794 561 714 597 q 924 456 874 525 q 975 288 975 388 q 946 146 975 204 q 867 51 917 88 q 758 -1 818 15 q 635 -18 697 -18 q 507 7 563 -18 q 413 71 451 32 q 404 86 404 79 q 426 131 404 90 q 439 139 432 139 q 457 132 447 139 q 582 94 513 94 q 676 115 633 94 q 746 179 719 136 q 772 288 772 222 q 706 450 772 400 q 522 500 639 500 q 509 505 515 500 q 496 517 503 510 q 476 538 490 524 q 451 567 463 553 q 440 588 440 582 q 453 599 440 599 l 458 599 q 470 602 464 599 q 483 611 476 606 l 686 779 q 696 806 696 788 q 644 920 696 888 q 519 953 593 953 q 399 909 446 953 q 353 782 353 865 l 353 21 q 332 0 353 0 l 42 0 q 21 21 21 0 l 21 63 q 42 83 21 83 l 46 83 q 124 122 103 83 q 144 215 144 160 l 144 451 q 140 524 144 489 q 118 583 135 560 q 63 611 101 607 q 46 629 46 613 l 46 676 q 67 694 46 694 l 144 694 l 144 715 q 153 794 144 749 q 184 885 161 839 q 249 970 207 931 q 358 1034 292 1010 q 519 1058 424 1058 q 766 993 672 1058 q 860 806 860 928 q 849 779 860 789 l 625 597 z "},"T":{"ha":1094,"x_min":7,"x_max":1069,"o":"m 892 1042 q 908 1044 899 1042 q 926 1056 917 1046 q 939 1061 932 1061 q 956 1049 950 1061 l 1065 846 q 1069 833 1069 838 q 1058 817 1069 822 l 1000 785 q 986 781 992 781 q 971 793 978 781 l 967 801 q 867 900 932 871 q 717 929 801 929 l 649 929 l 649 215 q 669 122 649 160 q 743 83 690 83 l 753 83 q 774 63 774 83 l 774 21 q 753 0 774 0 l 325 0 q 304 21 304 0 l 304 63 q 325 83 304 83 l 333 83 q 407 122 386 83 q 428 215 428 160 l 428 929 l 360 929 q 210 900 275 929 q 110 801 144 871 l 106 793 q 90 781 99 781 q 76 785 85 781 l 18 817 q 7 833 7 822 q 11 846 7 838 l 121 1049 q 138 1061 128 1061 q 150 1056 144 1061 q 169 1044 160 1046 q 185 1042 178 1042 l 892 1042 z "},"Ŧ":{"ha":1094,"x_min":7,"x_max":1069,"o":"m 356 1194 q 335 1215 335 1194 l 335 1299 q 356 1319 335 1319 l 726 1319 q 747 1299 747 1319 l 747 1215 q 726 1194 747 1194 l 356 1194 m 892 1042 q 908 1044 899 1042 q 926 1056 917 1046 q 939 1061 932 1061 q 956 1049 950 1061 l 1065 846 q 1069 833 1069 838 q 1058 817 1069 822 l 1000 785 q 986 781 992 781 q 971 793 978 781 l 967 801 q 867 900 932 871 q 717 929 801 929 l 649 929 l 649 215 q 669 122 649 160 q 743 83 690 83 l 753 83 q 774 63 774 83 l 774 21 q 753 0 774 0 l 325 0 q 304 21 304 0 l 304 63 q 325 83 304 83 l 333 83 q 407 122 386 83 q 428 215 428 160 l 428 929 l 360 929 q 210 900 275 929 q 110 801 144 871 l 106 793 q 90 781 99 781 q 76 785 85 781 l 18 817 q 7 833 7 822 q 11 846 7 838 l 121 1049 q 138 1061 128 1061 q 150 1056 144 1061 q 169 1044 160 1046 q 185 1042 178 1042 l 892 1042 z "},"Ť":{"ha":1094,"x_min":7,"x_max":1069,"o":"m 892 1042 q 908 1044 899 1042 q 926 1056 917 1046 q 939 1061 932 1061 q 956 1049 950 1061 l 1065 846 q 1069 833 1069 838 q 1058 817 1069 822 l 1000 785 q 986 781 992 781 q 971 793 978 781 l 967 801 q 867 900 932 871 q 717 929 801 929 l 649 929 l 649 215 q 669 122 649 160 q 743 83 690 83 l 753 83 q 774 63 774 83 l 774 21 q 753 0 774 0 l 325 0 q 304 21 304 0 l 304 63 q 325 83 304 83 l 333 83 q 407 122 386 83 q 428 215 428 160 l 428 929 l 360 929 q 210 900 275 929 q 110 801 144 871 l 106 793 q 90 781 99 781 q 76 785 85 781 l 18 817 q 7 833 7 822 q 11 846 7 838 l 121 1049 q 138 1061 128 1061 q 150 1056 144 1061 q 169 1044 160 1046 q 185 1042 178 1042 l 892 1042 m 535 1251 q 585 1328 556 1290 q 652 1390 614 1365 q 735 1415 690 1415 q 788 1387 771 1415 q 804 1318 804 1358 q 801 1286 804 1300 q 786 1267 799 1272 q 705 1233 740 1250 q 631 1189 669 1215 q 535 1118 592 1163 q 440 1189 479 1163 q 365 1233 400 1215 q 283 1267 329 1250 q 268 1286 271 1272 q 265 1318 265 1300 q 283 1387 265 1358 q 335 1415 300 1415 q 418 1390 381 1415 q 485 1328 456 1365 q 535 1251 515 1290 z "},"Ţ":{"ha":1094,"x_min":7,"x_max":1069,"o":"m 892 1042 q 908 1044 899 1042 q 926 1056 917 1046 q 939 1061 932 1061 q 956 1049 950 1061 l 1065 846 q 1069 833 1069 838 q 1058 817 1069 822 l 1000 785 q 986 781 992 781 q 971 793 978 781 l 967 801 q 867 900 932 871 q 717 929 801 929 l 649 929 l 649 215 q 669 122 649 160 q 743 83 690 83 l 753 83 q 774 63 774 83 l 774 21 q 753 0 774 0 l 325 0 q 304 21 304 0 l 304 63 q 325 83 304 83 l 333 83 q 407 122 386 83 q 428 215 428 160 l 428 929 l 360 929 q 210 900 275 929 q 110 801 144 871 l 106 793 q 90 781 99 781 q 76 785 85 781 l 18 817 q 7 833 7 822 q 11 846 7 838 l 121 1049 q 138 1061 128 1061 q 150 1056 144 1061 q 169 1044 160 1046 q 185 1042 178 1042 l 892 1042 m 482 42 q 507 56 490 56 l 579 56 q 597 43 597 56 q 592 29 597 36 l 497 -83 q 561 -72 528 -72 q 635 -87 599 -72 q 694 -133 671 -101 q 718 -212 718 -164 q 669 -315 718 -274 q 538 -356 619 -356 q 472 -349 507 -356 q 399 -326 436 -342 q 375 -293 379 -318 q 371 -247 371 -268 q 381 -232 371 -232 q 393 -235 385 -232 q 450 -250 418 -243 q 511 -257 482 -257 q 558 -247 539 -257 q 578 -212 578 -237 q 548 -162 578 -176 q 471 -147 518 -147 q 431 -149 450 -147 q 392 -151 411 -151 q 378 -140 378 -151 q 382 -128 378 -133 l 482 42 z "},"Ț":{"ha":1094,"x_min":7,"x_max":1069,"o":"m 892 1042 q 908 1044 899 1042 q 926 1056 917 1046 q 939 1061 932 1061 q 956 1049 950 1061 l 1065 846 q 1069 833 1069 838 q 1058 817 1069 822 l 1000 785 q 986 781 992 781 q 971 793 978 781 l 967 801 q 867 900 932 871 q 717 929 801 929 l 649 929 l 649 215 q 669 122 649 160 q 743 83 690 83 l 753 83 q 774 63 774 83 l 774 21 q 753 0 774 0 l 325 0 q 304 21 304 0 l 304 63 q 325 83 304 83 l 333 83 q 407 122 386 83 q 428 215 428 160 l 428 929 l 360 929 q 210 900 275 929 q 110 801 144 871 l 106 793 q 90 781 99 781 q 76 785 85 781 l 18 817 q 7 833 7 822 q 11 846 7 838 l 121 1049 q 138 1061 128 1061 q 150 1056 144 1061 q 169 1044 160 1046 q 185 1042 178 1042 l 892 1042 m 613 -150 q 628 -173 622 -160 q 633 -206 633 -186 q 633 -219 633 -211 q 631 -235 632 -226 q 601 -297 625 -264 q 549 -358 578 -329 q 497 -404 521 -386 q 464 -422 472 -422 q 453 -419 460 -422 q 425 -407 447 -417 q 483 -346 461 -379 q 504 -289 504 -312 q 494 -267 504 -276 l 456 -228 q 438 -189 438 -207 q 456 -150 438 -171 l 494 -111 q 535 -92 514 -92 q 574 -111 551 -92 l 613 -150 z "},"Ṭ":{"ha":1094,"x_min":7,"x_max":1069,"o":"m 892 1042 q 908 1044 899 1042 q 926 1056 917 1046 q 939 1061 932 1061 q 956 1049 950 1061 l 1065 846 q 1069 833 1069 838 q 1058 817 1069 822 l 1000 785 q 986 781 992 781 q 971 793 978 781 l 967 801 q 867 900 932 871 q 717 929 801 929 l 649 929 l 649 215 q 669 122 649 160 q 743 83 690 83 l 753 83 q 774 63 774 83 l 774 21 q 753 0 774 0 l 325 0 q 304 21 304 0 l 304 63 q 325 83 304 83 l 333 83 q 407 122 386 83 q 428 215 428 160 l 428 929 l 360 929 q 210 900 275 929 q 110 801 144 871 l 106 793 q 90 781 99 781 q 76 785 85 781 l 18 817 q 7 833 7 822 q 11 846 7 838 l 121 1049 q 138 1061 128 1061 q 150 1056 144 1061 q 169 1044 160 1046 q 185 1042 178 1042 l 892 1042 m 536 -92 q 607 -126 572 -92 q 642 -196 642 -161 q 607 -265 642 -231 q 536 -300 572 -300 q 467 -265 503 -300 q 432 -196 432 -232 q 467 -126 432 -161 q 536 -92 501 -92 z "},"Ṯ":{"ha":1094,"x_min":7,"x_max":1069,"o":"m 892 1042 q 908 1044 899 1042 q 926 1056 917 1046 q 939 1061 932 1061 q 956 1049 950 1061 l 1065 846 q 1069 833 1069 838 q 1058 817 1069 822 l 1000 785 q 986 781 992 781 q 971 793 978 781 l 967 801 q 867 900 932 871 q 717 929 801 929 l 649 929 l 649 215 q 669 122 649 160 q 743 83 690 83 l 753 83 q 774 63 774 83 l 774 21 q 753 0 774 0 l 325 0 q 304 21 304 0 l 304 63 q 325 83 304 83 l 333 83 q 407 122 386 83 q 428 215 428 160 l 428 929 l 360 929 q 210 900 275 929 q 110 801 144 871 l 106 793 q 90 781 99 781 q 76 785 85 781 l 18 817 q 7 833 7 822 q 11 846 7 838 l 121 1049 q 138 1061 128 1061 q 150 1056 144 1061 q 169 1044 160 1046 q 185 1042 178 1042 l 892 1042 m 743 -189 q 722 -210 743 -210 l 350 -210 q 329 -189 329 -210 l 329 -106 q 350 -85 329 -85 l 722 -85 q 743 -106 743 -85 l 743 -189 z "},"U":{"ha":1122,"x_min":35,"x_max":1108,"o":"m 1088 1042 q 1108 1021 1108 1042 l 1108 979 q 1088 958 1108 958 l 1078 958 q 1006 920 1026 958 q 985 826 985 882 l 985 382 q 890 86 985 190 q 588 -18 794 -18 q 270 85 382 -18 q 158 368 158 188 l 158 826 q 138 920 158 882 q 65 958 118 958 l 56 958 q 35 979 35 958 l 35 1021 q 56 1042 35 1042 l 482 1042 q 503 1021 503 1042 l 503 979 q 482 958 503 958 l 474 958 q 401 920 422 958 q 381 826 381 882 l 381 396 q 389 285 381 338 q 423 192 397 232 q 498 128 449 151 q 628 104 547 104 q 756 142 708 104 q 824 247 803 181 q 844 396 844 313 l 844 826 q 824 920 844 882 q 751 958 804 958 l 743 958 q 722 979 722 958 l 722 1021 q 743 1042 722 1042 l 1088 1042 z "},"Ú":{"ha":1122,"x_min":35,"x_max":1108,"o":"m 1088 1042 q 1108 1021 1108 1042 l 1108 979 q 1088 958 1108 958 l 1078 958 q 1006 920 1026 958 q 985 826 985 882 l 985 382 q 890 86 985 190 q 588 -18 794 -18 q 270 85 382 -18 q 158 368 158 188 l 158 826 q 138 920 158 882 q 65 958 118 958 l 56 958 q 35 979 35 958 l 35 1021 q 56 1042 35 1042 l 482 1042 q 503 1021 503 1042 l 503 979 q 482 958 503 958 l 474 958 q 401 920 422 958 q 381 826 381 882 l 381 396 q 389 285 381 338 q 423 192 397 232 q 498 128 449 151 q 628 104 547 104 q 756 142 708 104 q 824 247 803 181 q 844 396 844 313 l 844 826 q 824 920 844 882 q 751 958 804 958 l 743 958 q 722 979 722 958 l 722 1021 q 743 1042 722 1042 l 1088 1042 m 507 1150 q 577 1246 551 1207 q 620 1320 603 1285 q 656 1400 638 1356 q 677 1416 661 1413 q 707 1419 693 1419 q 776 1402 747 1419 q 804 1349 804 1385 q 770 1253 804 1296 q 688 1180 736 1211 q 597 1129 640 1149 q 585 1124 592 1126 q 572 1121 579 1121 q 558 1125 567 1121 l 507 1150 z "},"Ŭ":{"ha":1122,"x_min":35,"x_max":1108,"o":"m 1088 1042 q 1108 1021 1108 1042 l 1108 979 q 1088 958 1108 958 l 1078 958 q 1006 920 1026 958 q 985 826 985 882 l 985 382 q 890 86 985 190 q 588 -18 794 -18 q 270 85 382 -18 q 158 368 158 188 l 158 826 q 138 920 158 882 q 65 958 118 958 l 56 958 q 35 979 35 958 l 35 1021 q 56 1042 35 1042 l 482 1042 q 503 1021 503 1042 l 503 979 q 482 958 503 958 l 474 958 q 401 920 422 958 q 381 826 381 882 l 381 396 q 389 285 381 338 q 423 192 397 232 q 498 128 449 151 q 628 104 547 104 q 756 142 708 104 q 824 247 803 181 q 844 396 844 313 l 844 826 q 824 920 844 882 q 751 958 804 958 l 743 958 q 722 979 722 958 l 722 1021 q 743 1042 722 1042 l 1088 1042 m 485 1378 q 507 1357 503 1378 q 538 1290 517 1314 q 606 1267 560 1267 q 673 1290 651 1267 q 704 1357 694 1314 q 726 1378 708 1378 q 765 1374 738 1378 q 813 1368 792 1371 q 829 1361 822 1367 q 836 1344 836 1356 q 808 1265 836 1310 q 729 1187 781 1219 q 606 1154 678 1154 q 483 1187 535 1154 q 403 1265 431 1219 q 375 1344 375 1310 q 382 1361 375 1356 q 399 1368 389 1367 q 447 1374 419 1371 q 485 1378 474 1378 z "},"Û":{"ha":1122,"x_min":35,"x_max":1108,"o":"m 1088 1042 q 1108 1021 1108 1042 l 1108 979 q 1088 958 1108 958 l 1078 958 q 1006 920 1026 958 q 985 826 985 882 l 985 382 q 890 86 985 190 q 588 -18 794 -18 q 270 85 382 -18 q 158 368 158 188 l 158 826 q 138 920 158 882 q 65 958 118 958 l 56 958 q 35 979 35 958 l 35 1021 q 56 1042 35 1042 l 482 1042 q 503 1021 503 1042 l 503 979 q 482 958 503 958 l 474 958 q 401 920 422 958 q 381 826 381 882 l 381 396 q 389 285 381 338 q 423 192 397 232 q 498 128 449 151 q 628 104 547 104 q 756 142 708 104 q 824 247 803 181 q 844 396 844 313 l 844 826 q 824 920 844 882 q 751 958 804 958 l 743 958 q 722 979 722 958 l 722 1021 q 743 1042 722 1042 l 1088 1042 m 606 1282 q 556 1206 586 1243 q 489 1143 526 1168 q 406 1118 451 1118 q 353 1147 371 1118 q 336 1215 336 1176 q 339 1247 336 1233 q 354 1267 342 1261 q 435 1301 400 1285 q 510 1344 471 1318 q 606 1415 550 1371 q 701 1344 663 1371 q 776 1301 740 1318 q 857 1267 811 1285 q 872 1247 869 1261 q 875 1215 875 1233 q 858 1147 875 1176 q 806 1118 842 1118 q 723 1143 761 1118 q 656 1206 685 1168 q 606 1282 626 1243 z "},"Ü":{"ha":1122,"x_min":35,"x_max":1108,"o":"m 1088 1042 q 1108 1021 1108 1042 l 1108 979 q 1088 958 1108 958 l 1078 958 q 1006 920 1026 958 q 985 826 985 882 l 985 382 q 890 86 985 190 q 588 -18 794 -18 q 270 85 382 -18 q 158 368 158 188 l 158 826 q 138 920 158 882 q 65 958 118 958 l 56 958 q 35 979 35 958 l 35 1021 q 56 1042 35 1042 l 482 1042 q 503 1021 503 1042 l 503 979 q 482 958 503 958 l 474 958 q 401 920 422 958 q 381 826 381 882 l 381 396 q 389 285 381 338 q 423 192 397 232 q 498 128 449 151 q 628 104 547 104 q 756 142 708 104 q 824 247 803 181 q 844 396 844 313 l 844 826 q 824 920 844 882 q 751 958 804 958 l 743 958 q 722 979 722 958 l 722 1021 q 743 1042 722 1042 l 1088 1042 m 444 1375 q 514 1340 479 1375 q 549 1271 549 1306 q 514 1201 549 1236 q 444 1167 479 1167 q 375 1201 410 1167 q 340 1271 340 1236 q 349 1306 340 1290 q 375 1340 357 1321 q 444 1375 408 1375 m 767 1375 q 838 1340 803 1375 q 872 1271 872 1306 q 838 1201 872 1236 q 767 1167 803 1167 q 697 1201 732 1167 q 663 1271 663 1236 q 697 1340 663 1306 q 767 1375 732 1375 z "},"Ụ":{"ha":1122,"x_min":35,"x_max":1108,"o":"m 1088 1042 q 1108 1021 1108 1042 l 1108 979 q 1088 958 1108 958 l 1078 958 q 1006 920 1026 958 q 985 826 985 882 l 985 382 q 890 86 985 190 q 588 -18 794 -18 q 270 85 382 -18 q 158 368 158 188 l 158 826 q 138 920 158 882 q 65 958 118 958 l 56 958 q 35 979 35 958 l 35 1021 q 56 1042 35 1042 l 482 1042 q 503 1021 503 1042 l 503 979 q 482 958 503 958 l 474 958 q 401 920 422 958 q 381 826 381 882 l 381 396 q 389 285 381 338 q 423 192 397 232 q 498 128 449 151 q 628 104 547 104 q 756 142 708 104 q 824 247 803 181 q 844 396 844 313 l 844 826 q 824 920 844 882 q 751 958 804 958 l 743 958 q 722 979 722 958 l 722 1021 q 743 1042 722 1042 l 1088 1042 m 611 -92 q 682 -126 647 -92 q 717 -196 717 -161 q 682 -265 717 -231 q 611 -300 647 -300 q 542 -265 578 -300 q 507 -196 507 -232 q 542 -126 507 -161 q 611 -92 576 -92 z "},"Ù":{"ha":1122,"x_min":35,"x_max":1108,"o":"m 1088 1042 q 1108 1021 1108 1042 l 1108 979 q 1088 958 1108 958 l 1078 958 q 1006 920 1026 958 q 985 826 985 882 l 985 382 q 890 86 985 190 q 588 -18 794 -18 q 270 85 382 -18 q 158 368 158 188 l 158 826 q 138 920 158 882 q 65 958 118 958 l 56 958 q 35 979 35 958 l 35 1021 q 56 1042 35 1042 l 482 1042 q 503 1021 503 1042 l 503 979 q 482 958 503 958 l 474 958 q 401 920 422 958 q 381 826 381 882 l 381 396 q 389 285 381 338 q 423 192 397 232 q 498 128 449 151 q 628 104 547 104 q 756 142 708 104 q 824 247 803 181 q 844 396 844 313 l 844 826 q 824 920 844 882 q 751 958 804 958 l 743 958 q 722 979 722 958 l 722 1021 q 743 1042 722 1042 l 1088 1042 m 714 1150 l 663 1125 q 649 1121 654 1121 q 637 1124 643 1121 q 624 1129 631 1126 q 533 1180 581 1149 q 451 1253 485 1211 q 417 1349 417 1296 q 446 1402 417 1385 q 514 1419 475 1419 q 544 1416 529 1419 q 565 1400 560 1413 q 601 1320 585 1356 q 644 1246 618 1285 q 714 1150 669 1207 z "},"Ű":{"ha":1122,"x_min":35,"x_max":1108,"o":"m 1088 1042 q 1108 1021 1108 1042 l 1108 979 q 1088 958 1108 958 l 1078 958 q 1006 920 1026 958 q 985 826 985 882 l 985 382 q 890 86 985 190 q 588 -18 794 -18 q 270 85 382 -18 q 158 368 158 188 l 158 826 q 138 920 158 882 q 65 958 118 958 l 56 958 q 35 979 35 958 l 35 1021 q 56 1042 35 1042 l 482 1042 q 503 1021 503 1042 l 503 979 q 482 958 503 958 l 474 958 q 401 920 422 958 q 381 826 381 882 l 381 396 q 389 285 381 338 q 423 192 397 232 q 498 128 449 151 q 628 104 547 104 q 756 142 708 104 q 824 247 803 181 q 844 396 844 313 l 844 826 q 824 920 844 882 q 751 958 804 958 l 743 958 q 722 979 722 958 l 722 1021 q 743 1042 722 1042 l 1088 1042 m 436 1142 q 451 1285 451 1192 q 450 1327 451 1303 q 447 1372 449 1351 q 444 1396 444 1392 q 457 1418 444 1408 q 503 1443 479 1433 q 547 1453 526 1453 q 586 1440 571 1453 q 601 1394 601 1426 q 590 1317 601 1364 q 558 1226 578 1271 q 513 1154 539 1182 q 492 1144 504 1144 l 436 1142 m 688 1142 q 703 1285 703 1192 q 701 1327 703 1303 q 698 1372 700 1351 q 696 1396 696 1392 q 708 1418 696 1408 q 754 1443 731 1433 q 799 1453 778 1453 q 838 1440 822 1453 q 853 1394 853 1426 q 841 1317 853 1364 q 810 1226 829 1271 q 764 1154 790 1182 q 743 1144 756 1144 l 688 1142 z "},"Ū":{"ha":1122,"x_min":35,"x_max":1108,"o":"m 1088 1042 q 1108 1021 1108 1042 l 1108 979 q 1088 958 1108 958 l 1078 958 q 1006 920 1026 958 q 985 826 985 882 l 985 382 q 890 86 985 190 q 588 -18 794 -18 q 270 85 382 -18 q 158 368 158 188 l 158 826 q 138 920 158 882 q 65 958 118 958 l 56 958 q 35 979 35 958 l 35 1021 q 56 1042 35 1042 l 482 1042 q 503 1021 503 1042 l 503 979 q 482 958 503 958 l 474 958 q 401 920 422 958 q 381 826 381 882 l 381 396 q 389 285 381 338 q 423 192 397 232 q 498 128 449 151 q 628 104 547 104 q 756 142 708 104 q 824 247 803 181 q 844 396 844 313 l 844 826 q 824 920 844 882 q 751 958 804 958 l 743 958 q 722 979 722 958 l 722 1021 q 743 1042 722 1042 l 1088 1042 m 813 1222 q 792 1201 813 1201 l 419 1201 q 399 1222 399 1201 l 399 1306 q 419 1326 399 1326 l 792 1326 q 813 1306 813 1326 l 813 1222 z "},"Ṻ":{"ha":1122,"x_min":35,"x_max":1108,"o":"m 1088 1042 q 1108 1021 1108 1042 l 1108 979 q 1088 958 1108 958 l 1078 958 q 1006 920 1026 958 q 985 826 985 882 l 985 382 q 890 86 985 190 q 588 -18 794 -18 q 270 85 382 -18 q 158 368 158 188 l 158 826 q 138 920 158 882 q 65 958 118 958 l 56 958 q 35 979 35 958 l 35 1021 q 56 1042 35 1042 l 482 1042 q 503 1021 503 1042 l 503 979 q 482 958 503 958 l 474 958 q 401 920 422 958 q 381 826 381 882 l 381 396 q 389 285 381 338 q 423 192 397 232 q 498 128 449 151 q 628 104 547 104 q 756 142 708 104 q 824 247 803 181 q 844 396 844 313 l 844 826 q 824 920 844 882 q 751 958 804 958 l 743 958 q 722 979 722 958 l 722 1021 q 743 1042 722 1042 l 1088 1042 m 813 1222 q 792 1201 813 1201 l 419 1201 q 399 1222 399 1201 l 399 1306 q 419 1326 399 1326 l 792 1326 q 813 1306 813 1326 l 813 1222 m 444 1667 q 514 1632 479 1667 q 549 1563 549 1597 q 514 1493 549 1528 q 444 1458 479 1458 q 375 1493 410 1458 q 340 1563 340 1528 q 349 1597 340 1582 q 375 1632 357 1613 q 444 1667 408 1667 m 767 1667 q 838 1632 803 1667 q 872 1563 872 1597 q 838 1493 872 1528 q 767 1458 803 1458 q 697 1493 732 1458 q 663 1563 663 1528 q 697 1632 663 1597 q 767 1667 732 1667 z "},"Ų":{"ha":1122,"x_min":35,"x_max":1108,"o":"m 1088 1042 q 1108 1021 1108 1042 l 1108 979 q 1088 958 1108 958 l 1078 958 q 1006 920 1026 958 q 985 826 985 882 l 985 382 q 890 86 985 190 q 588 -18 794 -18 q 270 85 382 -18 q 158 368 158 188 l 158 826 q 138 920 158 882 q 65 958 118 958 l 56 958 q 35 979 35 958 l 35 1021 q 56 1042 35 1042 l 482 1042 q 503 1021 503 1042 l 503 979 q 482 958 503 958 l 474 958 q 401 920 422 958 q 381 826 381 882 l 381 396 q 389 285 381 338 q 423 192 397 232 q 498 128 449 151 q 628 104 547 104 q 756 142 708 104 q 824 247 803 181 q 844 396 844 313 l 844 826 q 824 920 844 882 q 751 958 804 958 l 743 958 q 722 979 722 958 l 722 1021 q 743 1042 722 1042 l 1088 1042 m 733 25 q 739 10 739 17 q 722 0 739 0 q 695 -6 717 0 q 649 -27 674 -12 q 606 -67 624 -42 q 588 -131 588 -93 q 617 -212 588 -179 q 699 -244 646 -244 q 749 -235 724 -244 q 793 -217 774 -226 q 819 -208 813 -208 q 832 -225 832 -208 l 832 -281 q 822 -303 832 -297 q 669 -351 742 -351 q 546 -317 594 -351 q 474 -235 497 -283 q 450 -146 450 -187 q 480 -40 450 -82 q 552 26 510 1 q 633 60 594 50 q 686 69 671 69 q 710 57 700 69 l 733 25 z "},"Ů":{"ha":1122,"x_min":35,"x_max":1108,"o":"m 1088 1042 q 1108 1021 1108 1042 l 1108 979 q 1088 958 1108 958 l 1078 958 q 1006 920 1026 958 q 985 826 985 882 l 985 382 q 890 86 985 190 q 588 -18 794 -18 q 270 85 382 -18 q 158 368 158 188 l 158 826 q 138 920 158 882 q 65 958 118 958 l 56 958 q 35 979 35 958 l 35 1021 q 56 1042 35 1042 l 482 1042 q 503 1021 503 1042 l 503 979 q 482 958 503 958 l 474 958 q 401 920 422 958 q 381 826 381 882 l 381 396 q 389 285 381 338 q 423 192 397 232 q 498 128 449 151 q 628 104 547 104 q 756 142 708 104 q 824 247 803 181 q 844 396 844 313 l 844 826 q 824 920 844 882 q 751 958 804 958 l 743 958 q 722 979 722 958 l 722 1021 q 743 1042 722 1042 l 1088 1042 m 608 1111 q 512 1135 556 1111 q 442 1201 468 1160 q 417 1292 417 1242 q 442 1383 417 1342 q 512 1448 468 1424 q 608 1472 556 1472 q 706 1448 663 1472 q 774 1383 749 1424 q 800 1292 800 1342 q 774 1201 800 1242 q 706 1135 749 1160 q 608 1111 663 1111 m 524 1292 q 547 1231 524 1254 q 608 1208 569 1208 q 670 1231 647 1208 q 693 1292 693 1254 q 670 1352 693 1329 q 608 1375 647 1375 q 547 1352 569 1375 q 524 1292 524 1329 z "},"Ũ":{"ha":1122,"x_min":35,"x_max":1108,"o":"m 1088 1042 q 1108 1021 1108 1042 l 1108 979 q 1088 958 1108 958 l 1078 958 q 1006 920 1026 958 q 985 826 985 882 l 985 382 q 890 86 985 190 q 588 -18 794 -18 q 270 85 382 -18 q 158 368 158 188 l 158 826 q 138 920 158 882 q 65 958 118 958 l 56 958 q 35 979 35 958 l 35 1021 q 56 1042 35 1042 l 482 1042 q 503 1021 503 1042 l 503 979 q 482 958 503 958 l 474 958 q 401 920 422 958 q 381 826 381 882 l 381 396 q 389 285 381 338 q 423 192 397 232 q 498 128 449 151 q 628 104 547 104 q 756 142 708 104 q 824 247 803 181 q 844 396 844 313 l 844 826 q 824 920 844 882 q 751 958 804 958 l 743 958 q 722 979 722 958 l 722 1021 q 743 1042 722 1042 l 1088 1042 m 651 1282 q 696 1243 675 1243 q 717 1253 711 1243 q 722 1275 722 1264 q 717 1305 722 1290 q 701 1333 713 1319 q 734 1362 713 1347 q 778 1376 756 1376 q 807 1361 790 1376 q 836 1322 824 1346 q 849 1269 849 1297 q 807 1163 849 1201 q 713 1124 765 1124 q 635 1139 665 1124 q 588 1176 606 1154 q 560 1217 571 1199 q 537 1247 547 1239 q 515 1256 526 1256 q 495 1245 501 1256 q 489 1224 489 1235 q 494 1195 489 1210 q 510 1165 499 1181 q 477 1137 499 1151 q 432 1122 456 1122 q 404 1138 421 1122 q 375 1177 388 1153 q 363 1228 363 1201 q 405 1336 363 1297 q 499 1375 447 1375 q 577 1359 547 1375 q 624 1322 607 1343 q 651 1282 642 1300 z "},"Ṹ":{"ha":1122,"x_min":35,"x_max":1108,"o":"m 1088 1042 q 1108 1021 1108 1042 l 1108 979 q 1088 958 1108 958 l 1078 958 q 1006 920 1026 958 q 985 826 985 882 l 985 382 q 890 86 985 190 q 588 -18 794 -18 q 270 85 382 -18 q 158 368 158 188 l 158 826 q 138 920 158 882 q 65 958 118 958 l 56 958 q 35 979 35 958 l 35 1021 q 56 1042 35 1042 l 482 1042 q 503 1021 503 1042 l 503 979 q 482 958 503 958 l 474 958 q 401 920 422 958 q 381 826 381 882 l 381 396 q 389 285 381 338 q 423 192 397 232 q 498 128 449 151 q 628 104 547 104 q 756 142 708 104 q 824 247 803 181 q 844 396 844 313 l 844 826 q 824 920 844 882 q 751 958 804 958 l 743 958 q 722 979 722 958 l 722 1021 q 743 1042 722 1042 l 1088 1042 m 651 1282 q 696 1243 675 1243 q 717 1253 711 1243 q 722 1275 722 1264 q 717 1305 722 1290 q 701 1333 713 1319 q 734 1362 713 1347 q 778 1376 756 1376 q 807 1361 790 1376 q 836 1322 824 1346 q 849 1269 849 1297 q 807 1163 849 1201 q 713 1124 765 1124 q 635 1139 665 1124 q 588 1176 606 1154 q 560 1217 571 1199 q 537 1247 547 1239 q 515 1256 526 1256 q 495 1245 501 1256 q 489 1224 489 1235 q 494 1195 489 1210 q 510 1165 499 1181 q 477 1137 499 1151 q 432 1122 456 1122 q 404 1138 421 1122 q 375 1177 388 1153 q 363 1228 363 1201 q 405 1336 363 1297 q 499 1375 447 1375 q 577 1359 547 1375 q 624 1322 607 1343 q 651 1282 642 1300 m 507 1442 q 577 1538 551 1499 q 620 1612 603 1576 q 656 1692 638 1647 q 677 1708 661 1704 q 707 1711 693 1711 q 776 1694 747 1711 q 804 1640 804 1676 q 770 1545 804 1588 q 688 1472 736 1503 q 597 1421 640 1440 q 585 1415 592 1418 q 572 1413 579 1413 q 558 1417 567 1413 l 507 1442 z "},"V":{"ha":1089,"x_min":7,"x_max":1082,"o":"m 1061 1042 q 1082 1021 1082 1042 l 1082 979 q 1061 958 1082 958 q 999 920 1022 958 q 957 829 976 882 l 658 17 q 635 0 653 0 l 467 0 q 443 17 450 0 l 131 829 q 88 921 110 883 q 28 958 67 958 q 7 979 7 958 l 7 1021 q 28 1042 7 1042 l 454 1042 q 475 1021 475 1042 l 475 979 q 454 958 475 958 q 378 931 411 958 q 346 863 346 904 q 358 815 346 847 l 594 196 l 818 829 q 824 864 824 846 q 791 931 824 904 q 715 958 758 958 q 694 979 694 958 l 694 1021 q 715 1042 694 1042 l 1061 1042 z "},"W":{"ha":1676,"x_min":7,"x_max":1669,"o":"m 1649 1042 q 1669 1021 1669 1042 l 1669 979 q 1649 958 1669 958 q 1588 919 1610 958 q 1546 825 1565 881 l 1260 17 q 1236 0 1254 0 l 1069 0 q 1046 17 1053 0 l 840 571 l 644 17 q 621 0 639 0 l 453 0 q 429 17 436 0 l 131 825 q 90 919 111 879 q 28 958 68 958 q 7 979 7 958 l 7 1021 q 28 1042 7 1042 l 454 1042 q 475 1021 475 1042 l 475 979 q 454 958 475 958 q 378 931 411 958 q 346 861 346 904 q 353 825 346 846 l 581 196 l 769 763 l 746 825 q 703 919 725 879 q 644 958 682 958 q 624 979 624 958 l 624 1021 q 644 1042 624 1042 l 1069 1042 q 1090 1021 1090 1042 l 1090 979 q 1069 958 1090 958 l 1033 958 q 983 938 1008 958 q 958 876 958 917 q 967 833 958 858 l 1196 196 l 1406 825 q 1411 860 1411 842 q 1379 931 1411 903 q 1304 958 1347 958 q 1283 979 1283 958 l 1283 1021 q 1304 1042 1283 1042 l 1649 1042 z "},"Ẃ":{"ha":1676,"x_min":7,"x_max":1669,"o":"m 1649 1042 q 1669 1021 1669 1042 l 1669 979 q 1649 958 1669 958 q 1588 919 1610 958 q 1546 825 1565 881 l 1260 17 q 1236 0 1254 0 l 1069 0 q 1046 17 1053 0 l 840 571 l 644 17 q 621 0 639 0 l 453 0 q 429 17 436 0 l 131 825 q 90 919 111 879 q 28 958 68 958 q 7 979 7 958 l 7 1021 q 28 1042 7 1042 l 454 1042 q 475 1021 475 1042 l 475 979 q 454 958 475 958 q 378 931 411 958 q 346 861 346 904 q 353 825 346 846 l 581 196 l 769 763 l 746 825 q 703 919 725 879 q 644 958 682 958 q 624 979 624 958 l 624 1021 q 644 1042 624 1042 l 1069 1042 q 1090 1021 1090 1042 l 1090 979 q 1069 958 1090 958 l 1033 958 q 983 938 1008 958 q 958 876 958 917 q 967 833 958 858 l 1196 196 l 1406 825 q 1411 860 1411 842 q 1379 931 1411 903 q 1304 958 1347 958 q 1283 979 1283 958 l 1283 1021 q 1304 1042 1283 1042 l 1649 1042 m 769 1150 q 840 1246 814 1207 q 883 1320 865 1285 q 918 1400 900 1356 q 940 1416 924 1413 q 969 1419 956 1419 q 1038 1402 1010 1419 q 1067 1349 1067 1385 q 1033 1253 1067 1296 q 951 1180 999 1211 q 860 1129 903 1149 q 848 1124 854 1126 q 835 1121 842 1121 q 821 1125 829 1121 l 769 1150 z "},"Ŵ":{"ha":1676,"x_min":7,"x_max":1669,"o":"m 1649 1042 q 1669 1021 1669 1042 l 1669 979 q 1649 958 1669 958 q 1588 919 1610 958 q 1546 825 1565 881 l 1260 17 q 1236 0 1254 0 l 1069 0 q 1046 17 1053 0 l 840 571 l 644 17 q 621 0 639 0 l 453 0 q 429 17 436 0 l 131 825 q 90 919 111 879 q 28 958 68 958 q 7 979 7 958 l 7 1021 q 28 1042 7 1042 l 454 1042 q 475 1021 475 1042 l 475 979 q 454 958 475 958 q 378 931 411 958 q 346 861 346 904 q 353 825 346 846 l 581 196 l 769 763 l 746 825 q 703 919 725 879 q 644 958 682 958 q 624 979 624 958 l 624 1021 q 644 1042 624 1042 l 1069 1042 q 1090 1021 1090 1042 l 1090 979 q 1069 958 1090 958 l 1033 958 q 983 938 1008 958 q 958 876 958 917 q 967 833 958 858 l 1196 196 l 1406 825 q 1411 860 1411 842 q 1379 931 1411 903 q 1304 958 1347 958 q 1283 979 1283 958 l 1283 1021 q 1304 1042 1283 1042 l 1649 1042 m 868 1282 q 819 1206 849 1243 q 751 1143 789 1168 q 668 1118 714 1118 q 616 1147 633 1118 q 599 1215 599 1176 q 601 1247 599 1233 q 617 1267 604 1261 q 698 1301 663 1285 q 773 1344 733 1318 q 868 1415 813 1371 q 964 1344 925 1371 q 1038 1301 1003 1318 q 1119 1267 1074 1285 q 1135 1247 1132 1261 q 1138 1215 1138 1233 q 1121 1147 1138 1176 q 1068 1118 1104 1118 q 985 1143 1024 1118 q 918 1206 947 1168 q 868 1282 889 1243 z "},"Ẅ":{"ha":1676,"x_min":7,"x_max":1669,"o":"m 1649 1042 q 1669 1021 1669 1042 l 1669 979 q 1649 958 1669 958 q 1588 919 1610 958 q 1546 825 1565 881 l 1260 17 q 1236 0 1254 0 l 1069 0 q 1046 17 1053 0 l 840 571 l 644 17 q 621 0 639 0 l 453 0 q 429 17 436 0 l 131 825 q 90 919 111 879 q 28 958 68 958 q 7 979 7 958 l 7 1021 q 28 1042 7 1042 l 454 1042 q 475 1021 475 1042 l 475 979 q 454 958 475 958 q 378 931 411 958 q 346 861 346 904 q 353 825 346 846 l 581 196 l 769 763 l 746 825 q 703 919 725 879 q 644 958 682 958 q 624 979 624 958 l 624 1021 q 644 1042 624 1042 l 1069 1042 q 1090 1021 1090 1042 l 1090 979 q 1069 958 1090 958 l 1033 958 q 983 938 1008 958 q 958 876 958 917 q 967 833 958 858 l 1196 196 l 1406 825 q 1411 860 1411 842 q 1379 931 1411 903 q 1304 958 1347 958 q 1283 979 1283 958 l 1283 1021 q 1304 1042 1283 1042 l 1649 1042 m 707 1375 q 776 1340 742 1375 q 811 1271 811 1306 q 776 1201 811 1236 q 707 1167 742 1167 q 638 1201 672 1167 q 603 1271 603 1236 q 611 1306 603 1290 q 638 1340 619 1321 q 707 1375 671 1375 m 1029 1375 q 1100 1340 1065 1375 q 1135 1271 1135 1306 q 1100 1201 1135 1236 q 1029 1167 1065 1167 q 960 1201 994 1167 q 925 1271 925 1236 q 960 1340 925 1306 q 1029 1375 994 1375 z "},"Ẁ":{"ha":1676,"x_min":7,"x_max":1669,"o":"m 1649 1042 q 1669 1021 1669 1042 l 1669 979 q 1649 958 1669 958 q 1588 919 1610 958 q 1546 825 1565 881 l 1260 17 q 1236 0 1254 0 l 1069 0 q 1046 17 1053 0 l 840 571 l 644 17 q 621 0 639 0 l 453 0 q 429 17 436 0 l 131 825 q 90 919 111 879 q 28 958 68 958 q 7 979 7 958 l 7 1021 q 28 1042 7 1042 l 454 1042 q 475 1021 475 1042 l 475 979 q 454 958 475 958 q 378 931 411 958 q 346 861 346 904 q 353 825 346 846 l 581 196 l 769 763 l 746 825 q 703 919 725 879 q 644 958 682 958 q 624 979 624 958 l 624 1021 q 644 1042 624 1042 l 1069 1042 q 1090 1021 1090 1042 l 1090 979 q 1069 958 1090 958 l 1033 958 q 983 938 1008 958 q 958 876 958 917 q 967 833 958 858 l 1196 196 l 1406 825 q 1411 860 1411 842 q 1379 931 1411 903 q 1304 958 1347 958 q 1283 979 1283 958 l 1283 1021 q 1304 1042 1283 1042 l 1649 1042 m 976 1150 l 925 1125 q 911 1121 917 1121 q 899 1124 906 1121 q 886 1129 893 1126 q 795 1180 843 1149 q 713 1253 747 1211 q 679 1349 679 1296 q 708 1402 679 1385 q 776 1419 738 1419 q 807 1416 792 1419 q 828 1400 822 1413 q 864 1320 847 1356 q 906 1246 881 1285 q 976 1150 932 1207 z "},"X":{"ha":1185,"x_min":14,"x_max":1171,"o":"m 1149 93 q 1171 69 1171 93 l 1171 24 q 1149 0 1171 0 l 736 0 q 713 24 713 0 l 713 69 q 736 93 713 93 l 739 93 q 775 99 754 93 q 796 126 796 106 q 791 146 796 135 q 774 171 786 157 l 543 451 l 342 192 q 308 144 319 164 q 296 113 296 124 q 333 93 296 93 l 364 93 q 388 69 388 93 l 388 24 q 364 0 388 0 l 38 0 q 14 24 14 0 l 14 69 q 38 93 14 93 l 44 93 q 115 116 89 93 q 182 190 142 139 l 463 550 l 217 850 q 79 949 135 949 l 76 949 q 53 972 53 949 l 53 1018 q 76 1042 53 1042 l 479 1042 q 503 1018 503 1042 l 503 972 q 481 949 503 949 l 478 949 q 421 925 421 949 q 447 876 421 907 l 631 653 l 786 850 q 819 897 807 878 q 832 928 832 917 q 794 947 832 947 l 779 947 q 756 971 756 947 l 756 1018 q 779 1042 756 1042 l 1106 1042 q 1129 1018 1129 1042 l 1129 971 q 1106 947 1129 947 l 1083 947 q 1013 924 1040 947 q 946 850 986 901 l 711 554 l 1008 192 q 1144 93 1089 93 l 1149 93 z "},"Y":{"ha":1103,"x_min":14,"x_max":1089,"o":"m 1068 1042 q 1089 1021 1089 1042 l 1089 979 q 1068 958 1089 958 q 978 926 1022 958 q 894 825 935 894 l 681 463 q 674 436 674 453 l 674 215 q 694 122 674 160 q 767 83 714 83 l 776 83 q 797 63 797 83 l 797 21 q 776 0 797 0 l 349 0 q 328 21 328 0 l 328 63 q 349 83 328 83 l 357 83 q 431 122 410 83 q 451 215 451 160 l 451 429 q 443 454 451 442 l 193 825 q 113 926 146 894 q 35 958 79 958 q 14 979 14 958 l 14 1021 q 35 1042 14 1042 l 517 1042 q 538 1021 538 1042 l 538 979 q 517 958 538 958 q 449 944 479 958 q 419 893 419 929 q 443 825 419 864 l 606 565 l 756 825 q 786 913 786 881 q 722 958 786 958 q 701 979 701 958 l 701 1021 q 722 1042 701 1042 l 1068 1042 z "},"Ý":{"ha":1103,"x_min":14,"x_max":1089,"o":"m 1068 1042 q 1089 1021 1089 1042 l 1089 979 q 1068 958 1089 958 q 978 926 1022 958 q 894 825 935 894 l 681 463 q 674 436 674 453 l 674 215 q 694 122 674 160 q 767 83 714 83 l 776 83 q 797 63 797 83 l 797 21 q 776 0 797 0 l 349 0 q 328 21 328 0 l 328 63 q 349 83 328 83 l 357 83 q 431 122 410 83 q 451 215 451 160 l 451 429 q 443 454 451 442 l 193 825 q 113 926 146 894 q 35 958 79 958 q 14 979 14 958 l 14 1021 q 35 1042 14 1042 l 517 1042 q 538 1021 538 1042 l 538 979 q 517 958 538 958 q 449 944 479 958 q 419 893 419 929 q 443 825 419 864 l 606 565 l 756 825 q 786 913 786 881 q 722 958 786 958 q 701 979 701 958 l 701 1021 q 722 1042 701 1042 l 1068 1042 m 518 1150 q 588 1246 563 1207 q 631 1320 614 1285 q 667 1400 649 1356 q 688 1416 672 1413 q 718 1419 704 1419 q 787 1402 758 1419 q 815 1349 815 1385 q 781 1253 815 1296 q 699 1180 747 1211 q 608 1129 651 1149 q 597 1124 603 1126 q 583 1121 590 1121 q 569 1125 578 1121 l 518 1150 z "},"Ŷ":{"ha":1103,"x_min":14,"x_max":1089,"o":"m 1068 1042 q 1089 1021 1089 1042 l 1089 979 q 1068 958 1089 958 q 978 926 1022 958 q 894 825 935 894 l 681 463 q 674 436 674 453 l 674 215 q 694 122 674 160 q 767 83 714 83 l 776 83 q 797 63 797 83 l 797 21 q 776 0 797 0 l 349 0 q 328 21 328 0 l 328 63 q 349 83 328 83 l 357 83 q 431 122 410 83 q 451 215 451 160 l 451 429 q 443 454 451 442 l 193 825 q 113 926 146 894 q 35 958 79 958 q 14 979 14 958 l 14 1021 q 35 1042 14 1042 l 517 1042 q 538 1021 538 1042 l 538 979 q 517 958 538 958 q 449 944 479 958 q 419 893 419 929 q 443 825 419 864 l 606 565 l 756 825 q 786 913 786 881 q 722 958 786 958 q 701 979 701 958 l 701 1021 q 722 1042 701 1042 l 1068 1042 m 617 1282 q 567 1206 597 1243 q 500 1143 538 1168 q 417 1118 463 1118 q 365 1147 382 1118 q 347 1215 347 1176 q 350 1247 347 1233 q 365 1267 353 1261 q 447 1301 411 1285 q 522 1344 482 1318 q 617 1415 561 1371 q 713 1344 674 1371 q 787 1301 751 1318 q 868 1267 822 1285 q 883 1247 881 1261 q 886 1215 886 1233 q 869 1147 886 1176 q 817 1118 853 1118 q 734 1143 772 1118 q 667 1206 696 1168 q 617 1282 638 1243 z "},"Ÿ":{"ha":1103,"x_min":14,"x_max":1089,"o":"m 1068 1042 q 1089 1021 1089 1042 l 1089 979 q 1068 958 1089 958 q 978 926 1022 958 q 894 825 935 894 l 681 463 q 674 436 674 453 l 674 215 q 694 122 674 160 q 767 83 714 83 l 776 83 q 797 63 797 83 l 797 21 q 776 0 797 0 l 349 0 q 328 21 328 0 l 328 63 q 349 83 328 83 l 357 83 q 431 122 410 83 q 451 215 451 160 l 451 429 q 443 454 451 442 l 193 825 q 113 926 146 894 q 35 958 79 958 q 14 979 14 958 l 14 1021 q 35 1042 14 1042 l 517 1042 q 538 1021 538 1042 l 538 979 q 517 958 538 958 q 449 944 479 958 q 419 893 419 929 q 443 825 419 864 l 606 565 l 756 825 q 786 913 786 881 q 722 958 786 958 q 701 979 701 958 l 701 1021 q 722 1042 701 1042 l 1068 1042 m 456 1375 q 525 1340 490 1375 q 560 1271 560 1306 q 525 1201 560 1236 q 456 1167 490 1167 q 386 1201 421 1167 q 351 1271 351 1236 q 360 1306 351 1290 q 386 1340 368 1321 q 456 1375 419 1375 m 778 1375 q 849 1340 814 1375 q 883 1271 883 1306 q 849 1201 883 1236 q 778 1167 814 1167 q 708 1201 743 1167 q 674 1271 674 1236 q 708 1340 674 1306 q 778 1375 743 1375 z "},"Ẏ":{"ha":1103,"x_min":14,"x_max":1089,"o":"m 1068 1042 q 1089 1021 1089 1042 l 1089 979 q 1068 958 1089 958 q 978 926 1022 958 q 894 825 935 894 l 681 463 q 674 436 674 453 l 674 215 q 694 122 674 160 q 767 83 714 83 l 776 83 q 797 63 797 83 l 797 21 q 776 0 797 0 l 349 0 q 328 21 328 0 l 328 63 q 349 83 328 83 l 357 83 q 431 122 410 83 q 451 215 451 160 l 451 429 q 443 454 451 442 l 193 825 q 113 926 146 894 q 35 958 79 958 q 14 979 14 958 l 14 1021 q 35 1042 14 1042 l 517 1042 q 538 1021 538 1042 l 538 979 q 517 958 538 958 q 449 944 479 958 q 419 893 419 929 q 443 825 419 864 l 606 565 l 756 825 q 786 913 786 881 q 722 958 786 958 q 701 979 701 958 l 701 1021 q 722 1042 701 1042 l 1068 1042 m 617 1375 q 688 1340 653 1375 q 722 1271 722 1306 q 688 1201 722 1236 q 617 1167 653 1167 q 547 1201 583 1167 q 513 1271 513 1235 q 547 1340 513 1306 q 617 1375 582 1375 z "},"Ỳ":{"ha":1103,"x_min":14,"x_max":1089,"o":"m 1068 1042 q 1089 1021 1089 1042 l 1089 979 q 1068 958 1089 958 q 978 926 1022 958 q 894 825 935 894 l 681 463 q 674 436 674 453 l 674 215 q 694 122 674 160 q 767 83 714 83 l 776 83 q 797 63 797 83 l 797 21 q 776 0 797 0 l 349 0 q 328 21 328 0 l 328 63 q 349 83 328 83 l 357 83 q 431 122 410 83 q 451 215 451 160 l 451 429 q 443 454 451 442 l 193 825 q 113 926 146 894 q 35 958 79 958 q 14 979 14 958 l 14 1021 q 35 1042 14 1042 l 517 1042 q 538 1021 538 1042 l 538 979 q 517 958 538 958 q 449 944 479 958 q 419 893 419 929 q 443 825 419 864 l 606 565 l 756 825 q 786 913 786 881 q 722 958 786 958 q 701 979 701 958 l 701 1021 q 722 1042 701 1042 l 1068 1042 m 725 1150 l 674 1125 q 660 1121 665 1121 q 648 1124 654 1121 q 635 1129 642 1126 q 544 1180 592 1149 q 462 1253 496 1211 q 428 1349 428 1296 q 457 1402 428 1385 q 525 1419 486 1419 q 556 1416 540 1419 q 576 1400 571 1413 q 613 1320 596 1356 q 655 1246 629 1285 q 725 1150 681 1207 z "},"Ȳ":{"ha":1103,"x_min":14,"x_max":1089,"o":"m 1068 1042 q 1089 1021 1089 1042 l 1089 979 q 1068 958 1089 958 q 978 926 1022 958 q 894 825 935 894 l 681 463 q 674 436 674 453 l 674 215 q 694 122 674 160 q 767 83 714 83 l 776 83 q 797 63 797 83 l 797 21 q 776 0 797 0 l 349 0 q 328 21 328 0 l 328 63 q 349 83 328 83 l 357 83 q 431 122 410 83 q 451 215 451 160 l 451 429 q 443 454 451 442 l 193 825 q 113 926 146 894 q 35 958 79 958 q 14 979 14 958 l 14 1021 q 35 1042 14 1042 l 517 1042 q 538 1021 538 1042 l 538 979 q 517 958 538 958 q 449 944 479 958 q 419 893 419 929 q 443 825 419 864 l 606 565 l 756 825 q 786 913 786 881 q 722 958 786 958 q 701 979 701 958 l 701 1021 q 722 1042 701 1042 l 1068 1042 m 824 1222 q 803 1201 824 1201 l 431 1201 q 410 1222 410 1201 l 410 1306 q 431 1326 410 1326 l 803 1326 q 824 1306 824 1326 l 824 1222 z "},"Ỹ":{"ha":1103,"x_min":14,"x_max":1089,"o":"m 1068 1042 q 1089 1021 1089 1042 l 1089 979 q 1068 958 1089 958 q 978 926 1022 958 q 894 825 935 894 l 681 463 q 674 436 674 453 l 674 215 q 694 122 674 160 q 767 83 714 83 l 776 83 q 797 63 797 83 l 797 21 q 776 0 797 0 l 349 0 q 328 21 328 0 l 328 63 q 349 83 328 83 l 357 83 q 431 122 410 83 q 451 215 451 160 l 451 429 q 443 454 451 442 l 193 825 q 113 926 146 894 q 35 958 79 958 q 14 979 14 958 l 14 1021 q 35 1042 14 1042 l 517 1042 q 538 1021 538 1042 l 538 979 q 517 958 538 958 q 449 944 479 958 q 419 893 419 929 q 443 825 419 864 l 606 565 l 756 825 q 786 913 786 881 q 722 958 786 958 q 701 979 701 958 l 701 1021 q 722 1042 701 1042 l 1068 1042 m 663 1282 q 707 1243 686 1243 q 728 1253 722 1243 q 733 1275 733 1264 q 728 1305 733 1290 q 713 1333 724 1319 q 745 1362 724 1347 q 789 1376 767 1376 q 818 1361 801 1376 q 847 1322 835 1346 q 860 1269 860 1297 q 818 1163 860 1201 q 724 1124 776 1124 q 647 1139 676 1124 q 599 1176 617 1154 q 571 1217 582 1199 q 548 1247 558 1239 q 526 1256 538 1256 q 506 1245 513 1256 q 500 1224 500 1235 q 505 1195 500 1210 q 521 1165 510 1181 q 488 1137 510 1151 q 443 1122 467 1122 q 415 1138 432 1122 q 386 1177 399 1153 q 374 1228 374 1201 q 416 1336 374 1297 q 510 1375 458 1375 q 588 1359 558 1375 q 635 1322 618 1343 q 663 1282 653 1300 z "},"Z":{"ha":1035,"x_min":21,"x_max":1008,"o":"m 997 239 q 1008 222 1008 232 q 1004 210 1008 218 l 893 -7 q 876 -18 886 -18 q 864 -14 868 -18 l 857 -7 q 844 -1 851 -1 q 831 0 838 0 l 42 0 q 21 21 21 0 l 21 97 q 31 125 21 111 l 656 929 l 419 929 q 313 910 357 929 q 237 859 269 892 q 171 786 204 826 l 165 779 q 149 767 156 767 q 136 771 143 767 l 78 803 q 67 819 67 810 q 71 832 67 824 l 181 1049 q 199 1060 186 1060 q 206 1058 203 1060 q 218 1049 210 1057 q 231 1042 224 1043 q 244 1042 238 1042 l 988 1042 q 996 1035 996 1042 l 996 1028 q 993 1019 996 1024 q 988 1011 990 1015 l 306 126 l 493 126 q 702 140 622 126 q 829 183 782 154 q 904 254 876 211 l 910 263 q 926 275 917 275 q 939 271 933 275 l 997 239 z "},"Ź":{"ha":1035,"x_min":21,"x_max":1008,"o":"m 997 239 q 1008 222 1008 232 q 1004 210 1008 218 l 893 -7 q 876 -18 886 -18 q 864 -14 868 -18 l 857 -7 q 844 -1 851 -1 q 831 0 838 0 l 42 0 q 21 21 21 0 l 21 97 q 31 125 21 111 l 656 929 l 419 929 q 313 910 357 929 q 237 859 269 892 q 171 786 204 826 l 165 779 q 149 767 156 767 q 136 771 143 767 l 78 803 q 67 819 67 810 q 71 832 67 824 l 181 1049 q 199 1060 186 1060 q 206 1058 203 1060 q 218 1049 210 1057 q 231 1042 224 1043 q 244 1042 238 1042 l 988 1042 q 996 1035 996 1042 l 996 1028 q 993 1019 996 1024 q 988 1011 990 1015 l 306 126 l 493 126 q 702 140 622 126 q 829 183 782 154 q 904 254 876 211 l 910 263 q 926 275 917 275 q 939 271 933 275 l 997 239 m 482 1150 q 552 1246 526 1207 q 595 1320 578 1285 q 631 1400 613 1356 q 652 1416 636 1413 q 682 1419 668 1419 q 751 1402 722 1419 q 779 1349 779 1385 q 745 1253 779 1296 q 663 1180 711 1211 q 572 1129 615 1149 q 560 1124 567 1126 q 547 1121 554 1121 q 533 1125 542 1121 l 482 1150 z "},"Ž":{"ha":1035,"x_min":21,"x_max":1008,"o":"m 997 239 q 1008 222 1008 232 q 1004 210 1008 218 l 893 -7 q 876 -18 886 -18 q 864 -14 868 -18 l 857 -7 q 844 -1 851 -1 q 831 0 838 0 l 42 0 q 21 21 21 0 l 21 97 q 31 125 21 111 l 656 929 l 419 929 q 313 910 357 929 q 237 859 269 892 q 171 786 204 826 l 165 779 q 149 767 156 767 q 136 771 143 767 l 78 803 q 67 819 67 810 q 71 832 67 824 l 181 1049 q 199 1060 186 1060 q 206 1058 203 1060 q 218 1049 210 1057 q 231 1042 224 1043 q 244 1042 238 1042 l 988 1042 q 996 1035 996 1042 l 996 1028 q 993 1019 996 1024 q 988 1011 990 1015 l 306 126 l 493 126 q 702 140 622 126 q 829 183 782 154 q 904 254 876 211 l 910 263 q 926 275 917 275 q 939 271 933 275 l 997 239 m 576 1251 q 626 1328 597 1290 q 694 1390 656 1365 q 776 1415 732 1415 q 829 1387 813 1415 q 846 1318 846 1358 q 843 1286 846 1300 q 828 1267 840 1272 q 747 1233 782 1250 q 672 1189 711 1215 q 576 1118 633 1163 q 481 1189 521 1163 q 406 1233 442 1215 q 325 1267 371 1250 q 310 1286 313 1272 q 307 1318 307 1300 q 324 1387 307 1358 q 376 1415 342 1415 q 460 1390 422 1415 q 527 1328 497 1365 q 576 1251 557 1290 z "},"Ż":{"ha":1035,"x_min":21,"x_max":1008,"o":"m 997 239 q 1008 222 1008 232 q 1004 210 1008 218 l 893 -7 q 876 -18 886 -18 q 864 -14 868 -18 l 857 -7 q 844 -1 851 -1 q 831 0 838 0 l 42 0 q 21 21 21 0 l 21 97 q 31 125 21 111 l 656 929 l 419 929 q 313 910 357 929 q 237 859 269 892 q 171 786 204 826 l 165 779 q 149 767 156 767 q 136 771 143 767 l 78 803 q 67 819 67 810 q 71 832 67 824 l 181 1049 q 199 1060 186 1060 q 206 1058 203 1060 q 218 1049 210 1057 q 231 1042 224 1043 q 244 1042 238 1042 l 988 1042 q 996 1035 996 1042 l 996 1028 q 993 1019 996 1024 q 988 1011 990 1015 l 306 126 l 493 126 q 702 140 622 126 q 829 183 782 154 q 904 254 876 211 l 910 263 q 926 275 917 275 q 939 271 933 275 l 997 239 m 581 1375 q 651 1340 617 1375 q 686 1271 686 1306 q 651 1201 686 1236 q 581 1167 617 1167 q 511 1201 547 1167 q 476 1271 476 1235 q 511 1340 476 1306 q 581 1375 546 1375 z "},"Ẓ":{"ha":1035,"x_min":21,"x_max":1008,"o":"m 997 239 q 1008 222 1008 232 q 1004 210 1008 218 l 893 -7 q 876 -18 886 -18 q 864 -14 868 -18 l 857 -7 q 844 -1 851 -1 q 831 0 838 0 l 42 0 q 21 21 21 0 l 21 97 q 31 125 21 111 l 656 929 l 419 929 q 313 910 357 929 q 237 859 269 892 q 171 786 204 826 l 165 779 q 149 767 156 767 q 136 771 143 767 l 78 803 q 67 819 67 810 q 71 832 67 824 l 181 1049 q 199 1060 186 1060 q 206 1058 203 1060 q 218 1049 210 1057 q 231 1042 224 1043 q 244 1042 238 1042 l 988 1042 q 996 1035 996 1042 l 996 1028 q 993 1019 996 1024 q 988 1011 990 1015 l 306 126 l 493 126 q 702 140 622 126 q 829 183 782 154 q 904 254 876 211 l 910 263 q 926 275 917 275 q 939 271 933 275 l 997 239 m 474 -92 q 544 -126 510 -92 q 579 -196 579 -161 q 544 -265 579 -231 q 474 -300 510 -300 q 404 -265 440 -300 q 369 -196 369 -232 q 404 -126 369 -161 q 474 -92 439 -92 z "},"a":{"ha":860,"x_min":42,"x_max":839,"o":"m 740 257 q 756 167 740 207 q 822 121 771 128 q 839 103 839 119 l 839 57 q 818 38 839 38 q 705 30 750 38 q 627 10 660 22 q 563 -15 594 -1 q 553 -18 557 -18 l 549 -18 q 546 -12 546 -18 q 549 15 546 -7 q 555 63 551 36 q 561 110 558 90 q 531 61 554 92 q 465 6 508 31 q 350 -18 421 -18 q 249 1 303 -18 q 149 64 196 21 q 72 177 101 107 q 42 349 42 247 q 88 558 42 478 q 209 675 135 638 q 367 713 283 713 q 492 692 435 713 q 592 632 549 671 q 653 660 628 647 q 697 688 679 674 q 712 699 704 693 q 729 710 719 704 q 736 713 733 713 l 738 713 q 740 710 740 713 l 740 257 m 546 475 q 526 537 542 503 q 478 595 510 571 q 392 619 446 619 q 288 587 325 619 q 235 503 250 554 q 221 393 221 451 q 274 182 221 260 q 413 104 328 104 q 491 126 463 104 q 532 169 519 147 q 546 196 544 192 l 546 475 z "},"á":{"ha":860,"x_min":42,"x_max":839,"o":"m 740 257 q 756 167 740 207 q 822 121 771 128 q 839 103 839 119 l 839 57 q 818 38 839 38 q 705 30 750 38 q 627 10 660 22 q 563 -15 594 -1 q 553 -18 557 -18 l 549 -18 q 546 -12 546 -18 q 549 15 546 -7 q 555 63 551 36 q 561 110 558 90 q 531 61 554 92 q 465 6 508 31 q 350 -18 421 -18 q 249 1 303 -18 q 149 64 196 21 q 72 177 101 107 q 42 349 42 247 q 88 558 42 478 q 209 675 135 638 q 367 713 283 713 q 492 692 435 713 q 592 632 549 671 q 653 660 628 647 q 697 688 679 674 q 712 699 704 693 q 729 710 719 704 q 736 713 733 713 l 738 713 q 740 710 740 713 l 740 257 m 546 475 q 526 537 542 503 q 478 595 510 571 q 392 619 446 619 q 288 587 325 619 q 235 503 250 554 q 221 393 221 451 q 274 182 221 260 q 413 104 328 104 q 491 126 463 104 q 532 169 519 147 q 546 196 544 192 l 546 475 m 299 803 q 369 899 343 860 q 412 973 394 938 q 447 1053 429 1008 q 469 1069 453 1065 q 499 1072 485 1072 q 567 1055 539 1072 q 596 1001 596 1038 q 562 906 596 949 q 480 833 528 864 q 389 782 432 801 q 377 776 383 779 q 364 774 371 774 q 350 778 358 774 l 299 803 z "},"ă":{"ha":860,"x_min":42,"x_max":839,"o":"m 740 257 q 756 167 740 207 q 822 121 771 128 q 839 103 839 119 l 839 57 q 818 38 839 38 q 705 30 750 38 q 627 10 660 22 q 563 -15 594 -1 q 553 -18 557 -18 l 549 -18 q 546 -12 546 -18 q 549 15 546 -7 q 555 63 551 36 q 561 110 558 90 q 531 61 554 92 q 465 6 508 31 q 350 -18 421 -18 q 249 1 303 -18 q 149 64 196 21 q 72 177 101 107 q 42 349 42 247 q 88 558 42 478 q 209 675 135 638 q 367 713 283 713 q 492 692 435 713 q 592 632 549 671 q 653 660 628 647 q 697 688 679 674 q 712 699 704 693 q 729 710 719 704 q 736 713 733 713 l 738 713 q 740 710 740 713 l 740 257 m 546 475 q 526 537 542 503 q 478 595 510 571 q 392 619 446 619 q 288 587 325 619 q 235 503 250 554 q 221 393 221 451 q 274 182 221 260 q 413 104 328 104 q 491 126 463 104 q 532 169 519 147 q 546 196 544 192 l 546 475 m 276 1031 q 299 1010 294 1031 q 330 943 308 967 q 397 919 351 919 q 465 943 443 919 q 496 1010 486 967 q 518 1031 500 1031 q 556 1027 529 1031 q 604 1021 583 1024 q 621 1014 614 1019 q 628 997 628 1008 q 600 917 628 963 q 521 840 572 872 q 397 807 469 807 q 274 840 326 807 q 194 917 222 872 q 167 997 167 963 q 174 1014 167 1008 q 190 1021 181 1019 q 238 1027 211 1024 q 276 1031 265 1031 z "},"â":{"ha":860,"x_min":42,"x_max":839,"o":"m 740 257 q 756 167 740 207 q 822 121 771 128 q 839 103 839 119 l 839 57 q 818 38 839 38 q 705 30 750 38 q 627 10 660 22 q 563 -15 594 -1 q 553 -18 557 -18 l 549 -18 q 546 -12 546 -18 q 549 15 546 -7 q 555 63 551 36 q 561 110 558 90 q 531 61 554 92 q 465 6 508 31 q 350 -18 421 -18 q 249 1 303 -18 q 149 64 196 21 q 72 177 101 107 q 42 349 42 247 q 88 558 42 478 q 209 675 135 638 q 367 713 283 713 q 492 692 435 713 q 592 632 549 671 q 653 660 628 647 q 697 688 679 674 q 712 699 704 693 q 729 710 719 704 q 736 713 733 713 l 738 713 q 740 710 740 713 l 740 257 m 546 475 q 526 537 542 503 q 478 595 510 571 q 392 619 446 619 q 288 587 325 619 q 235 503 250 554 q 221 393 221 451 q 274 182 221 260 q 413 104 328 104 q 491 126 463 104 q 532 169 519 147 q 546 196 544 192 l 546 475 m 397 935 q 348 858 378 896 q 281 796 318 821 q 197 771 243 771 q 145 800 163 771 q 128 868 128 829 q 131 900 128 886 q 146 919 133 914 q 227 954 192 938 q 302 997 263 971 q 397 1068 342 1024 q 493 997 454 1024 q 567 954 532 971 q 649 919 603 938 q 664 900 661 914 q 667 868 667 886 q 650 800 667 829 q 597 771 633 771 q 515 796 553 771 q 447 858 476 821 q 397 935 418 896 z "},"ä":{"ha":860,"x_min":42,"x_max":839,"o":"m 740 257 q 756 167 740 207 q 822 121 771 128 q 839 103 839 119 l 839 57 q 818 38 839 38 q 705 30 750 38 q 627 10 660 22 q 563 -15 594 -1 q 553 -18 557 -18 l 549 -18 q 546 -12 546 -18 q 549 15 546 -7 q 555 63 551 36 q 561 110 558 90 q 531 61 554 92 q 465 6 508 31 q 350 -18 421 -18 q 249 1 303 -18 q 149 64 196 21 q 72 177 101 107 q 42 349 42 247 q 88 558 42 478 q 209 675 135 638 q 367 713 283 713 q 492 692 435 713 q 592 632 549 671 q 653 660 628 647 q 697 688 679 674 q 712 699 704 693 q 729 710 719 704 q 736 713 733 713 l 738 713 q 740 710 740 713 l 740 257 m 546 475 q 526 537 542 503 q 478 595 510 571 q 392 619 446 619 q 288 587 325 619 q 235 503 250 554 q 221 393 221 451 q 274 182 221 260 q 413 104 328 104 q 491 126 463 104 q 532 169 519 147 q 546 196 544 192 l 546 475 m 236 1028 q 306 993 271 1028 q 340 924 340 958 q 306 854 340 889 q 236 819 271 819 q 167 854 201 819 q 132 924 132 889 q 140 958 132 943 q 167 993 149 974 q 236 1028 200 1028 m 558 1028 q 629 993 594 1028 q 664 924 664 958 q 629 854 664 889 q 558 819 594 819 q 489 854 524 819 q 454 924 454 889 q 489 993 454 958 q 558 1028 524 1028 z "},"ạ":{"ha":860,"x_min":42,"x_max":839,"o":"m 740 257 q 756 167 740 207 q 822 121 771 128 q 839 103 839 119 l 839 57 q 818 38 839 38 q 705 30 750 38 q 627 10 660 22 q 563 -15 594 -1 q 553 -18 557 -18 l 549 -18 q 546 -12 546 -18 q 549 15 546 -7 q 555 63 551 36 q 561 110 558 90 q 531 61 554 92 q 465 6 508 31 q 350 -18 421 -18 q 249 1 303 -18 q 149 64 196 21 q 72 177 101 107 q 42 349 42 247 q 88 558 42 478 q 209 675 135 638 q 367 713 283 713 q 492 692 435 713 q 592 632 549 671 q 653 660 628 647 q 697 688 679 674 q 712 699 704 693 q 729 710 719 704 q 736 713 733 713 l 738 713 q 740 710 740 713 l 740 257 m 546 475 q 526 537 542 503 q 478 595 510 571 q 392 619 446 619 q 288 587 325 619 q 235 503 250 554 q 221 393 221 451 q 274 182 221 260 q 413 104 328 104 q 491 126 463 104 q 532 169 519 147 q 546 196 544 192 l 546 475 m 443 -92 q 514 -126 479 -92 q 549 -196 549 -161 q 514 -265 549 -231 q 443 -300 479 -300 q 374 -265 410 -300 q 339 -196 339 -232 q 374 -126 339 -161 q 443 -92 408 -92 z "},"à":{"ha":860,"x_min":42,"x_max":839,"o":"m 740 257 q 756 167 740 207 q 822 121 771 128 q 839 103 839 119 l 839 57 q 818 38 839 38 q 705 30 750 38 q 627 10 660 22 q 563 -15 594 -1 q 553 -18 557 -18 l 549 -18 q 546 -12 546 -18 q 549 15 546 -7 q 555 63 551 36 q 561 110 558 90 q 531 61 554 92 q 465 6 508 31 q 350 -18 421 -18 q 249 1 303 -18 q 149 64 196 21 q 72 177 101 107 q 42 349 42 247 q 88 558 42 478 q 209 675 135 638 q 367 713 283 713 q 492 692 435 713 q 592 632 549 671 q 653 660 628 647 q 697 688 679 674 q 712 699 704 693 q 729 710 719 704 q 736 713 733 713 l 738 713 q 740 710 740 713 l 740 257 m 546 475 q 526 537 542 503 q 478 595 510 571 q 392 619 446 619 q 288 587 325 619 q 235 503 250 554 q 221 393 221 451 q 274 182 221 260 q 413 104 328 104 q 491 126 463 104 q 532 169 519 147 q 546 196 544 192 l 546 475 m 506 803 l 454 778 q 440 774 446 774 q 428 776 435 774 q 415 782 422 779 q 324 833 372 801 q 242 906 276 864 q 208 1001 208 949 q 238 1055 208 1038 q 306 1072 267 1072 q 336 1069 321 1072 q 357 1053 351 1065 q 393 973 376 1008 q 435 899 410 938 q 506 803 461 860 z "},"ā":{"ha":860,"x_min":42,"x_max":839,"o":"m 740 257 q 756 167 740 207 q 822 121 771 128 q 839 103 839 119 l 839 57 q 818 38 839 38 q 705 30 750 38 q 627 10 660 22 q 563 -15 594 -1 q 553 -18 557 -18 l 549 -18 q 546 -12 546 -18 q 549 15 546 -7 q 555 63 551 36 q 561 110 558 90 q 531 61 554 92 q 465 6 508 31 q 350 -18 421 -18 q 249 1 303 -18 q 149 64 196 21 q 72 177 101 107 q 42 349 42 247 q 88 558 42 478 q 209 675 135 638 q 367 713 283 713 q 492 692 435 713 q 592 632 549 671 q 653 660 628 647 q 697 688 679 674 q 712 699 704 693 q 729 710 719 704 q 736 713 733 713 l 738 713 q 740 710 740 713 l 740 257 m 546 475 q 526 537 542 503 q 478 595 510 571 q 392 619 446 619 q 288 587 325 619 q 235 503 250 554 q 221 393 221 451 q 274 182 221 260 q 413 104 328 104 q 491 126 463 104 q 532 169 519 147 q 546 196 544 192 l 546 475 m 604 875 q 583 854 604 854 l 211 854 q 190 875 190 854 l 190 958 q 211 979 190 979 l 583 979 q 604 958 604 979 l 604 875 z "},"ą":{"ha":860,"x_min":42,"x_max":872,"o":"m 740 257 q 756 167 740 207 q 822 121 771 128 q 839 103 839 119 l 839 57 q 818 38 839 38 q 705 30 750 38 q 627 10 660 22 q 563 -15 594 -1 q 553 -18 557 -18 l 549 -18 q 546 -12 546 -18 q 549 15 546 -7 q 555 63 551 36 q 561 110 558 90 q 531 61 554 92 q 465 6 508 31 q 350 -18 421 -18 q 249 1 303 -18 q 149 64 196 21 q 72 177 101 107 q 42 349 42 247 q 88 558 42 478 q 209 675 135 638 q 367 713 283 713 q 492 692 435 713 q 592 632 549 671 q 653 660 628 647 q 697 688 679 674 q 712 699 704 693 q 729 710 719 704 q 736 713 733 713 l 738 713 q 740 710 740 713 l 740 257 m 546 475 q 526 537 542 503 q 478 595 510 571 q 392 619 446 619 q 288 587 325 619 q 235 503 250 554 q 221 393 221 451 q 274 182 221 260 q 413 104 328 104 q 491 126 463 104 q 532 169 519 147 q 546 196 544 192 l 546 475 m 774 61 q 779 46 779 53 q 763 36 779 36 q 735 30 757 36 q 689 9 714 24 q 646 -31 664 -6 q 628 -94 628 -57 q 657 -176 628 -143 q 739 -208 686 -208 q 789 -199 764 -208 q 833 -181 814 -190 q 860 -172 853 -172 q 872 -189 872 -172 l 872 -244 q 863 -267 872 -261 q 710 -315 782 -315 q 586 -281 635 -315 q 514 -199 538 -247 q 490 -110 490 -151 q 520 -4 490 -46 q 592 62 550 38 q 673 96 635 86 q 726 106 711 106 q 750 93 740 106 l 774 61 z "},"å":{"ha":860,"x_min":42,"x_max":839,"o":"m 740 257 q 756 167 740 207 q 822 121 771 128 q 839 103 839 119 l 839 57 q 818 38 839 38 q 705 30 750 38 q 627 10 660 22 q 563 -15 594 -1 q 553 -18 557 -18 l 549 -18 q 546 -12 546 -18 q 549 15 546 -7 q 555 63 551 36 q 561 110 558 90 q 531 61 554 92 q 465 6 508 31 q 350 -18 421 -18 q 249 1 303 -18 q 149 64 196 21 q 72 177 101 107 q 42 349 42 247 q 88 558 42 478 q 209 675 135 638 q 367 713 283 713 q 492 692 435 713 q 592 632 549 671 q 653 660 628 647 q 697 688 679 674 q 712 699 704 693 q 729 710 719 704 q 736 713 733 713 l 738 713 q 740 710 740 713 l 740 257 m 546 475 q 526 537 542 503 q 478 595 510 571 q 392 619 446 619 q 288 587 325 619 q 235 503 250 554 q 221 393 221 451 q 274 182 221 260 q 413 104 328 104 q 491 126 463 104 q 532 169 519 147 q 546 196 544 192 l 546 475 m 400 764 q 303 788 347 764 q 234 853 260 813 q 208 944 208 894 q 234 1035 208 994 q 303 1101 260 1076 q 400 1125 347 1125 q 497 1101 454 1125 q 566 1035 540 1076 q 592 944 592 994 q 566 853 592 894 q 497 788 540 813 q 400 764 454 764 m 315 944 q 338 884 315 907 q 400 861 361 861 q 462 884 439 861 q 485 944 485 907 q 462 1005 485 982 q 400 1028 439 1028 q 338 1005 361 1028 q 315 944 315 982 z "},"ǻ":{"ha":860,"x_min":42,"x_max":839,"o":"m 740 257 q 756 167 740 207 q 822 121 771 128 q 839 103 839 119 l 839 57 q 818 38 839 38 q 705 30 750 38 q 627 10 660 22 q 563 -15 594 -1 q 553 -18 557 -18 l 549 -18 q 546 -12 546 -18 q 549 15 546 -7 q 555 63 551 36 q 561 110 558 90 q 531 61 554 92 q 465 6 508 31 q 350 -18 421 -18 q 249 1 303 -18 q 149 64 196 21 q 72 177 101 107 q 42 349 42 247 q 88 558 42 478 q 209 675 135 638 q 367 713 283 713 q 492 692 435 713 q 592 632 549 671 q 653 660 628 647 q 697 688 679 674 q 712 699 704 693 q 729 710 719 704 q 736 713 733 713 l 738 713 q 740 710 740 713 l 740 257 m 546 475 q 526 537 542 503 q 478 595 510 571 q 392 619 446 619 q 288 587 325 619 q 235 503 250 554 q 221 393 221 451 q 274 182 221 260 q 413 104 328 104 q 491 126 463 104 q 532 169 519 147 q 546 196 544 192 l 546 475 m 400 764 q 303 788 347 764 q 234 853 260 813 q 208 944 208 894 q 234 1035 208 994 q 303 1101 260 1076 q 400 1125 347 1125 q 497 1101 454 1125 q 566 1035 540 1076 q 592 944 592 994 q 566 853 592 894 q 497 788 540 813 q 400 764 454 764 m 315 944 q 338 884 315 907 q 400 861 361 861 q 462 884 439 861 q 485 944 485 907 q 462 1005 485 982 q 400 1028 439 1028 q 338 1005 361 1028 q 315 944 315 982 m 299 1192 q 369 1288 343 1249 q 412 1362 394 1326 q 447 1442 429 1397 q 469 1458 453 1454 q 499 1461 485 1461 q 567 1444 539 1461 q 596 1390 596 1426 q 562 1295 596 1338 q 480 1222 528 1253 q 389 1171 432 1190 q 377 1165 383 1168 q 364 1163 371 1163 q 350 1167 358 1163 l 299 1192 z "},"ã":{"ha":860,"x_min":42,"x_max":839,"o":"m 740 257 q 756 167 740 207 q 822 121 771 128 q 839 103 839 119 l 839 57 q 818 38 839 38 q 705 30 750 38 q 627 10 660 22 q 563 -15 594 -1 q 553 -18 557 -18 l 549 -18 q 546 -12 546 -18 q 549 15 546 -7 q 555 63 551 36 q 561 110 558 90 q 531 61 554 92 q 465 6 508 31 q 350 -18 421 -18 q 249 1 303 -18 q 149 64 196 21 q 72 177 101 107 q 42 349 42 247 q 88 558 42 478 q 209 675 135 638 q 367 713 283 713 q 492 692 435 713 q 592 632 549 671 q 653 660 628 647 q 697 688 679 674 q 712 699 704 693 q 729 710 719 704 q 736 713 733 713 l 738 713 q 740 710 740 713 l 740 257 m 546 475 q 526 537 542 503 q 478 595 510 571 q 392 619 446 619 q 288 587 325 619 q 235 503 250 554 q 221 393 221 451 q 274 182 221 260 q 413 104 328 104 q 491 126 463 104 q 532 169 519 147 q 546 196 544 192 l 546 475 m 443 935 q 488 896 467 896 q 508 906 503 896 q 514 928 514 917 q 509 958 514 943 q 493 986 504 972 q 526 1015 504 1000 q 569 1029 547 1029 q 599 1014 582 1029 q 628 974 615 999 q 640 922 640 950 q 599 815 640 854 q 504 776 557 776 q 427 792 457 776 q 380 829 397 807 q 351 869 363 851 q 328 900 339 892 q 307 908 318 908 q 287 898 293 908 q 281 876 281 888 q 285 848 281 863 q 301 818 290 833 q 269 790 290 804 q 224 775 247 775 q 196 790 213 775 q 167 830 179 806 q 154 881 154 854 q 197 989 154 950 q 290 1028 239 1028 q 369 1012 339 1028 q 416 974 399 996 q 443 935 433 953 z "}}}
